<svg width="20" height="20" viewBox="0 0 20 20" fill="none" xmlns="http://www.w3.org/2000/svg">
<g clip-path="url(#clip0_1615_1268)">
<path d="M17.0711 2.92895C15.1823 1.04016 12.6711 0 10 0C7.32892 0 4.81767 1.04016 2.92895 2.92891C1.04016 4.81767 0 7.32892 0 10C0 12.6711 1.04016 15.1823 2.92895 17.0711C4.81767 18.9598 7.32892 20 10 20C12.6712 20 15.1823 18.9598 17.0711 17.0711C18.9598 15.1823 20 12.6711 20 9.99998C20 7.32888 18.9598 4.81767 17.0711 2.92895ZM3.75845 3.75845C4.63778 2.87911 5.67009 2.2084 6.79525 1.77063C6.49556 2.14477 6.21513 2.57481 5.95814 3.05848C5.65966 3.6202 5.40212 4.23712 5.18763 4.89606C4.44458 4.77274 3.7561 4.6211 3.14102 4.44313C3.3338 4.20618 3.53946 3.97743 3.75845 3.75845ZM2.43083 5.45255C3.15024 5.6829 3.97298 5.87716 4.87071 6.03103C4.62071 7.0922 4.47356 8.23412 4.43845 9.4135H1.19281C1.285 7.99814 1.71008 6.64736 2.43083 5.45255ZM2.36696 14.439C1.68512 13.2711 1.28223 11.9593 1.19278 10.5865H4.44067C4.47903 11.7322 4.62325 12.8417 4.86481 13.8751C3.94864 14.0236 3.10524 14.2129 2.36696 14.439ZM3.75845 16.2416C3.50923 15.9923 3.27712 15.7306 3.06192 15.4582C3.69954 15.2814 4.41235 15.1317 5.17966 15.0116C5.39567 15.6797 5.65599 16.3048 5.9581 16.8734C6.23818 17.4005 6.54611 17.8636 6.87646 18.2603C5.71982 17.8235 4.65892 17.142 3.75845 16.2416ZM9.41346 18.6764C8.52252 18.4268 7.6797 17.6132 6.99408 16.3229C6.75427 15.8717 6.54365 15.3794 6.36322 14.8547C7.32923 14.7483 8.35717 14.6855 9.41346 14.6707V18.6764ZM9.41346 13.4976C8.24205 13.5135 7.10029 13.5871 6.03103 13.7127C5.79517 12.7376 5.65325 11.6823 5.61431 10.5866H9.4135V13.4976H9.41346ZM9.41346 9.41346H5.61208C5.64767 8.28713 5.79185 7.20232 6.03505 6.20247C7.09748 6.33529 8.23685 6.41607 9.41346 6.43919V9.41346ZM9.41346 5.26595C8.35306 5.24458 7.3274 5.17544 6.36822 5.06263C6.54755 4.54341 6.75654 4.05606 6.99408 3.60891C7.67966 2.3186 8.52252 1.505 9.41346 1.25543V5.26595ZM17.6062 5.51485C18.3044 6.69427 18.7166 8.02263 18.8073 9.41346H15.5617C15.5269 8.24767 15.3826 7.11857 15.1378 6.06786C16.0415 5.92193 16.8744 5.73626 17.6062 5.51485ZM16.2416 3.75845C16.4771 3.99395 16.6971 4.24083 16.9023 4.49712C16.2744 4.66856 15.5752 4.81407 14.824 4.93118C14.6073 4.25899 14.3457 3.6302 14.0419 3.05848C13.7849 2.57481 13.5045 2.14477 13.2048 1.77063C14.3299 2.2084 15.3623 2.87911 16.2416 3.75845ZM10.5866 10.5866H14.3858C14.3466 11.6908 14.2027 12.7542 13.9635 13.7355C12.9012 13.6034 11.7624 13.5234 10.5866 13.5009V10.5866ZM10.5866 9.41346V6.4431C11.7587 6.42771 12.9013 6.35478 13.9716 6.22966C14.2108 7.22197 14.3527 8.29732 14.388 9.41346H10.5866ZM10.5865 1.25543H10.5865C11.4775 1.505 12.3203 2.3186 13.0059 3.60891C13.2473 4.06309 13.4591 4.55884 13.6403 5.08735C12.673 5.19329 11.6439 5.25567 10.5865 5.26993V1.25543ZM10.5866 18.6764V14.6741C11.646 14.6949 12.6708 14.7634 13.6297 14.8755C13.4508 15.3924 13.2425 15.8776 13.006 16.3229C12.3203 17.6132 11.4775 18.4268 10.5866 18.6764ZM16.2416 16.2416C15.3411 17.142 14.2802 17.8235 13.1235 18.2603C13.4539 17.8636 13.7618 17.4005 14.0419 16.8734C14.3396 16.3132 14.5965 15.6981 14.8107 15.0411C15.571 15.1666 16.2744 15.3218 16.9011 15.5044C16.6963 15.7601 16.4766 16.0065 16.2416 16.2416ZM17.6018 14.4926C16.8739 14.2585 16.0393 14.0616 15.1282 13.9062C15.3741 12.864 15.5207 11.7437 15.5594 10.5866H18.8073C18.7164 11.9803 18.3027 13.3113 17.6018 14.4926Z" fill="white"/>
</g>
<defs>
<clipPath id="clip0_1615_1268">
<rect width="20" height="20" fill="white"/>
</clipPath>
</defs>
</svg>
