<svg width="30" height="31" viewBox="0 0 30 31" fill="none" xmlns="http://www.w3.org/2000/svg">
<g clip-path="url(#clip0_1091_343)">
<path d="M10.5389 30.1704C11.3929 29.367 11.6688 27.8142 11.9739 26.7204C12.2558 25.7091 12.9267 22.8867 13.0588 21.8744C14.0524 23.9685 16.493 24.2167 18.552 24.0988C21.6209 23.9235 24.7639 21.5879 25.9791 18.7205C27.0742 16.1358 27.8633 12.9891 27.5912 10.1552C27.3811 7.96957 26.344 5.2895 24.7917 3.71711C23.6099 2.52033 22.0581 1.57651 20.6389 0.864091C18.8687 -0.024154 16.4383 -0.0941022 14.5499 0.070707C13.3973 0.171317 12.3123 0.346187 11.2047 0.742879C10.2241 1.09454 9.35151 1.72455 8.41032 2.21179C7.52662 2.66933 6.76346 3.12016 6.13291 3.82586C5.45739 4.58044 4.78742 5.49168 4.18098 6.29704C3.46095 7.25428 3.15911 8.42279 2.72885 9.59562C2.34681 10.6391 2.27078 11.9834 2.44232 13.129C2.74508 15.1474 3.38073 16.9392 4.86253 18.3506C5.38042 18.8441 6.43984 20.0572 7.1367 19.4415C7.82799 18.8312 7.87157 17.1237 7.48443 16.4065C7.06715 15.6318 6.30678 15.0214 6.20802 14.0958C5.91871 11.386 6.7426 8.46112 8.42284 6.36124C11.2047 2.88636 16.9946 2.29707 20.4636 4.96611C21.9157 6.08337 22.8458 7.78799 23.015 9.65216C23.187 11.5508 23.2895 13.8471 22.55 15.6318C22.066 16.8008 21.3992 17.9927 20.6597 19.0103C19.9026 20.0529 18.6225 20.7629 17.3605 20.7715C15.6213 20.7825 15.1711 19.6274 14.0987 18.5006C14.4316 17.8198 14.5953 16.658 14.7437 15.8804C14.9532 14.7785 15.2421 13.8859 15.6097 12.842C16.1239 11.3836 16.3914 9.15821 15.0047 8.11857C13.4789 6.97401 11.2367 8.13821 10.3692 9.64928C9.83834 10.5749 9.81933 11.7142 9.8439 12.7586C9.86847 13.7633 10.1991 14.7478 10.1541 15.7568C10.111 16.7351 9.70342 17.6497 9.55969 18.6117C9.38675 19.7712 9.20917 20.8831 8.91384 22.0181C8.36488 24.1252 6.90348 28.4394 7.58736 30.3003C8.10895 31.7227 10.0739 30.6078 10.5389 30.1704Z" fill="white"/>
</g>
<defs>
<clipPath id="clip0_1091_343">
<rect width="30" height="31" fill="white"/>
</clipPath>
</defs>
</svg>
