<svg width="17" height="25" viewBox="0 0 17 25" fill="none" xmlns="http://www.w3.org/2000/svg">
<path d="M8.0345 0C3.60436 0 0 3.60436 0 8.0345C0 9.36443 0.332505 10.6831 0.964609 11.8526L7.59513 23.8445C7.6834 24.0044 7.85161 24.1035 8.0345 24.1035C8.21739 24.1035 8.3856 24.0044 8.47387 23.8445L15.1068 11.8487C15.7365 10.6831 16.069 9.36438 16.069 8.03445C16.069 3.60436 12.4646 0 8.0345 0ZM8.0345 12.0517C5.81943 12.0517 4.01727 10.2496 4.01727 8.0345C4.01727 5.81943 5.81943 4.01727 8.0345 4.01727C10.2496 4.01727 12.0517 5.81943 12.0517 8.0345C12.0517 10.2496 10.2496 12.0517 8.0345 12.0517Z" fill="#222222"/>
</svg>
