<svg width="20" height="15" viewBox="0 0 20 15" fill="none" xmlns="http://www.w3.org/2000/svg">
<path d="M12.9592 7.86133L11.2841 9.54203C10.6049 10.2237 9.40973 10.2384 8.71579 9.54203L7.04067 7.86133L1.02441 13.8971C1.24836 14.0007 1.49527 14.0625 1.75777 14.0625H18.2422C18.5047 14.0625 18.7515 14.0007 18.9754 13.8972L12.9592 7.86133Z" fill="#222222"/>
<path d="M18.2421 0H1.7577C1.4952 0 1.24828 0.061797 1.02441 0.165352L7.45321 6.61547C7.45364 6.6159 7.45415 6.61598 7.45458 6.61641C7.455 6.61684 7.45508 6.61743 7.45508 6.61743L9.54544 8.71469C9.76747 8.93673 10.2324 8.93673 10.4544 8.71469L12.5443 6.61778C12.5443 6.61778 12.5449 6.61684 12.5453 6.61641C12.5453 6.61641 12.5462 6.6159 12.5466 6.61547L18.9753 0.165313C18.7514 0.0617189 18.5046 0 18.2421 0Z" fill="#222222"/>
<path d="M0.186953 0.984863C0.0710938 1.21916 0 1.47924 0 1.75783V12.3047C0 12.5833 0.0710157 12.8434 0.186914 13.0777L6.2136 7.03147L0.186953 0.984863Z" fill="#222222"/>
<path d="M19.8137 0.984619L13.7871 7.0313L19.8137 13.0776C19.9296 12.8433 20.0007 12.5832 20.0007 12.3046V1.75767C20.0007 1.47899 19.9296 1.21892 19.8137 0.984619Z" fill="#222222"/>
</svg>
