<svg width="30" height="31" viewBox="0 0 30 31" fill="none" xmlns="http://www.w3.org/2000/svg">
<path d="M12.12 17.1121C12.03 17.1121 10.05 17.1121 9.15002 17.1121C8.67002 17.1121 8.52002 16.9261 8.52002 16.4611C8.52002 15.2211 8.52002 13.9501 8.52002 12.7101C8.52002 12.2141 8.70002 12.0591 9.15002 12.0591H12.12C12.12 11.9661 12.12 10.1681 12.12 9.3311C12.12 8.0911 12.33 6.9131 12.93 5.8281C13.56 4.7121 14.46 3.9681 15.6 3.5341C16.35 3.2551 17.1 3.1311 17.91 3.1311H20.85C21.27 3.1311 21.45 3.3171 21.45 3.7511V7.2851C21.45 7.7191 21.27 7.9051 20.85 7.9051C20.04 7.9051 19.23 7.9051 18.42 7.9361C17.61 7.9361 17.19 8.3391 17.19 9.2071C17.16 10.1371 17.19 11.0361 17.19 11.9971H20.67C21.15 11.9971 21.33 12.1831 21.33 12.6791V16.4301C21.33 16.9261 21.18 17.0811 20.67 17.0811C19.59 17.0811 17.28 17.0811 17.19 17.0811V27.1871C17.19 27.7141 17.04 27.9001 16.5 27.9001C15.24 27.9001 14.01 27.9001 12.75 27.9001C12.3 27.9001 12.12 27.7141 12.12 27.2491C12.12 23.9941 12.12 17.2051 12.12 17.1121Z" fill="white"/>
</svg>
