<svg width="21" height="21" viewBox="0 0 21 21" fill="none" xmlns="http://www.w3.org/2000/svg">
<path d="M10.3007 1.85494C13.053 1.85494 13.3789 1.86701 14.4613 1.91529C15.4672 1.95955 16.0104 2.12855 16.3725 2.26938C16.8513 2.45447 17.1974 2.6798 17.5555 3.03791C17.9176 3.40004 18.1389 3.74206 18.324 4.22088C18.4649 4.58302 18.6339 5.13024 18.6781 6.13215C18.7264 7.21856 18.7385 7.54448 18.7385 10.2927C18.7385 13.0449 18.7264 13.3708 18.6781 14.4532C18.6339 15.4591 18.4649 16.0023 18.324 16.3645C18.1389 16.8433 17.9136 17.1893 17.5555 17.5474C17.1934 17.9096 16.8513 18.1309 16.3725 18.316C16.0104 18.4568 15.4632 18.6258 14.4613 18.6701C13.3749 18.7184 13.0489 18.7304 10.3007 18.7304C7.5485 18.7304 7.22258 18.7184 6.1402 18.6701C5.13427 18.6258 4.59107 18.4568 4.22893 18.316C3.75011 18.1309 3.40407 17.9056 3.04596 17.5474C2.68382 17.1853 2.46252 16.8433 2.27743 16.3645C2.1366 16.0023 1.9676 15.4551 1.92334 14.4532C1.87505 13.3668 1.86298 13.0409 1.86298 10.2927C1.86298 7.54045 1.87505 7.21453 1.92334 6.13215C1.9676 5.12622 2.1366 4.58302 2.27743 4.22088C2.46252 3.74206 2.68785 3.39602 3.04596 3.03791C3.40809 2.67577 3.75011 2.45447 4.22893 2.26938C4.59107 2.12855 5.13829 1.95955 6.1402 1.91529C7.22258 1.86701 7.5485 1.85494 10.3007 1.85494ZM10.3007 0C7.50424 0 7.15418 0.0120712 6.0557 0.0603558C4.96125 0.10864 4.20881 0.285684 3.55697 0.539179C2.87696 0.804744 2.30157 1.15481 1.7302 1.7302C1.15481 2.30157 0.804744 2.87696 0.539179 3.55295C0.285684 4.20881 0.10864 4.95722 0.0603558 6.05168C0.0120712 7.15418 0 7.50424 0 10.3007C0 13.0972 0.0120712 13.4473 0.0603558 14.5458C0.10864 15.6402 0.285684 16.3926 0.539179 17.0445C0.804744 17.7245 1.15481 18.2999 1.7302 18.8713C2.30157 19.4426 2.87696 19.7967 3.55295 20.0583C4.20881 20.3117 4.95722 20.4888 6.05168 20.5371C7.15015 20.5854 7.50022 20.5974 10.2967 20.5974C13.0932 20.5974 13.4433 20.5854 14.5417 20.5371C15.6362 20.4888 16.3886 20.3117 17.0405 20.0583C17.7164 19.7967 18.2918 19.4426 18.8632 18.8713C19.4346 18.2999 19.7887 17.7245 20.0502 17.0485C20.3037 16.3926 20.4807 15.6442 20.529 14.5498C20.5773 13.4513 20.5894 13.1012 20.5894 10.3048C20.5894 7.50826 20.5773 7.1582 20.529 6.05972C20.4807 4.96527 20.3037 4.21284 20.0502 3.56099C19.7967 2.87696 19.4466 2.30157 18.8713 1.7302C18.2999 1.15883 17.7245 0.804744 17.0485 0.543202C16.3926 0.289708 15.6442 0.112664 14.5498 0.0643795C13.4473 0.0120712 13.0972 0 10.3007 0Z" fill="#222222"/>
<path d="M10.301 5.00952C7.37974 5.00952 5.00977 7.37949 5.00977 10.3007C5.00977 13.2219 7.37974 15.5919 10.301 15.5919C13.2222 15.5919 15.5922 13.2219 15.5922 10.3007C15.5922 7.37949 13.2222 5.00952 10.301 5.00952ZM10.301 13.7329C8.40579 13.7329 6.86872 12.1959 6.86872 10.3007C6.86872 8.40554 8.40579 6.86848 10.301 6.86848C12.1961 6.86848 13.7332 8.40554 13.7332 10.3007C13.7332 12.1959 12.1961 13.7329 10.301 13.7329Z" fill="#222222"/>
<path d="M17.037 4.79949C17.037 5.48353 16.4817 6.03478 15.8017 6.03478C15.1177 6.03478 14.5664 5.4795 14.5664 4.79949C14.5664 4.11546 15.1217 3.56421 15.8017 3.56421C16.4817 3.56421 17.037 4.11948 17.037 4.79949Z" fill="#222222"/>
</svg>
