<?xml version="1.0" encoding="UTF-8"?>
<svg id="Layer_2" data-name="Layer 2" xmlns="http://www.w3.org/2000/svg" viewBox="0 0 20.79 19.9">
   <g id="Layer_1-2" data-name="Layer 1">
    <g>
      <path fill="#fff" d="M19.9,6.14c-.4.07-.68.45-.61.86.02.09.02.19.02.28v8.91c0,1.23-1,2.23-2.23,2.23H3.71c-1.23,0-2.23-1-2.23-2.23V7.27c0-1.23,1-2.23,2.23-2.23h2.23c.41,0,.74-.33.74-.74,0-1.23,1-2.23,2.23-2.23h2.97c.3,0,.6.06.88.18.38.16.81,0,.98-.38.16-.38,0-.81-.38-.98-.46-.2-.97-.31-1.47-.31h-2.97c-1.79,0-3.29,1.28-3.64,2.97h-1.56c-2.05,0-3.71,1.67-3.71,3.71v8.91c0,2.05,1.67,3.71,3.71,3.71h13.37c2.05,0,3.71-1.67,3.71-3.71V7.27c0-.17-.01-.35-.04-.52-.07-.4-.45-.68-.86-.61Z"/>
      <path fill="#fff" d="M10.4,6.53c-2.87,0-5.2,2.33-5.2,5.2s2.33,5.2,5.2,5.2,5.2-2.33,5.2-5.2-2.33-5.2-5.2-5.2ZM10.4,15.44c-2.05,0-3.71-1.67-3.71-3.71s1.67-3.71,3.71-3.71,3.71,1.67,3.71,3.71-1.67,3.71-3.71,3.71Z"/>
      <path fill="#fff" d="M17.82,0c-.41,0-.74.33-.74.74v1.33h-1.33c-.41,0-.74.33-.74.74s.33.74.74.74h1.33v1.33c0,.41.33.74.74.74s.74-.33.74-.74v-1.33h1.33c.41,0,.74-.33.74-.74s-.33-.74-.74-.74h-1.33V.74c0-.41-.33-.74-.74-.74Z"/>
    </g>
  </g>
</svg>
