<?xml version="1.0" encoding="UTF-8"?>
<svg id="Layer_1" xmlns="http://www.w3.org/2000/svg" version="1.1" viewBox="0 0 32 32">
  <!-- Generator: Adobe Illustrator 29.5.0, SVG Export Plug-In . SVG Version: 2.1.0 Build 137)  -->
  <defs>
    <style>
      .st0 {
        fill: #171717;
      }

      .st1 {
        fill: #fff;
      }
    </style>
  </defs>
  <circle class="st0" cx="16" cy="16" r="16"/>
  <g>
    <path class="st1" d="M22.383,13.441c-.271.046-.455.303-.409.575.011.062.013.124.013.187v5.987c0,.825-.671,1.497-1.497,1.497h-8.98c-.825,0-1.497-.671-1.497-1.497v-5.987c0-.825.671-1.497,1.497-1.497h1.497c.276,0,.499-.223.499-.499,0-.825.671-1.497,1.497-1.497h1.996c.201,0,.404.043.589.123.253.111.547-.005.657-.257.111-.252-.005-.547-.257-.657-.309-.135-.651-.206-.988-.206h-1.996c-1.205,0-2.212.858-2.444,1.996h-1.048c-1.375,0-2.494,1.119-2.494,2.494v5.987c0,1.375,1.119,2.494,2.494,2.494h8.98c1.375,0,2.494-1.119,2.494-2.494v-5.987c0-.117-.007-.235-.027-.352-.046-.272-.3-.456-.575-.409Z"/>
    <path class="st1" d="M16,13.704c-1.925,0-3.492,1.567-3.492,3.492s1.567,3.492,3.492,3.492,3.492-1.567,3.492-3.492-1.567-3.492-3.492-3.492ZM16,19.69c-1.375,0-2.494-1.119-2.494-2.494s1.119-2.494,2.494-2.494,2.494,1.119,2.494,2.494-1.119,2.494-2.494,2.494Z"/>
    <path class="st1" d="M20.989,9.317c-.276,0-.499.223-.499.499v.895h-.894c-.276,0-.499.223-.499.499s.223.499.499.499h.894v.895c0,.276.223.499.499.499s.499-.223.499-.499v-.895h.894c.276,0,.499-.223.499-.499s-.223-.499-.499-.499h-.894v-.895c0-.276-.223-.499-.499-.499Z"/>
  </g>
</svg>