<?xml version="1.0" encoding="UTF-8"?>
<svg id="Layer_1" xmlns="http://www.w3.org/2000/svg" version="1.1" viewBox="0 0 32 32">
  <!-- Generator: Adobe Illustrator 29.5.0, SVG Export Plug-In . SVG Version: 2.1.0 Build 137)  -->
  <defs>
    <style>
      .st0 {
        fill: #171717;
      }
    </style>
  </defs>
  <path class="st0" d="M3.775,17.851h-1.427c-1.296.002-2.346,1.052-2.348,2.348v6.125c.002,1.296,1.052,2.346,2.348,2.348h1.427c1.296-.002,2.346-1.052,2.348-2.348v-6.125c-.002-1.296-1.052-2.346-2.348-2.348ZM4.925,26.323c0,.634-.515,1.149-1.149,1.149h-1.427c-.634,0-1.149-.515-1.149-1.149v-6.125c0-.634.515-1.149,1.149-1.149h1.427c.634,0,1.149.515,1.149,1.149v6.125Z"/>
  <path class="st0" d="M12.401,14.227h-1.427c-1.295.002-2.345,1.052-2.347,2.348v9.749c.002,1.296,1.052,2.346,2.348,2.348h1.427c1.296-.001,2.347-1.052,2.349-2.348v-9.749c-.002-1.297-1.053-2.348-2.35-2.348h0ZM13.551,26.323c0,.635-.515,1.149-1.15,1.149h-1.427c-.634-.002-1.147-.515-1.148-1.149v-9.749c0-.634.515-1.149,1.15-1.149h1.427c.635,0,1.149.515,1.15,1.149l-.002,9.749Z"/>
  <path class="st0" d="M21.026,9.594h-1.428c-1.296.002-2.347,1.052-2.348,2.349v14.381c.002,1.296,1.052,2.346,2.348,2.348h1.428c1.296-.002,2.346-1.052,2.348-2.348v-14.38c-.001-1.296-1.052-2.347-2.348-2.349ZM22.176,26.323c0,.634-.515,1.149-1.149,1.149h-1.428c-.634,0-1.149-.515-1.149-1.149v-14.38c0-.635.514-1.15,1.149-1.15h1.428c.635,0,1.149.515,1.149,1.15v14.381Z"/>
  <path class="st0" d="M29.652,3.329h-1.428c-1.296.002-2.347,1.052-2.348,2.348v20.646c.002,1.296,1.052,2.346,2.348,2.348h1.428c1.296-.002,2.346-1.052,2.348-2.348V5.677c-.002-1.296-1.052-2.347-2.348-2.348ZM30.801,26.323c0,.634-.515,1.149-1.149,1.149h-1.428c-.634,0-1.149-.515-1.15-1.149V5.677c0-.635.515-1.149,1.15-1.15h1.428c.634,0,1.149.515,1.149,1.15v20.646Z"/>
</svg>