<?xml version="1.0" encoding="UTF-8"?>
<svg id="Layer_1" xmlns="http://www.w3.org/2000/svg" version="1.1" viewBox="0 0 32 32">
  <!-- Generator: Adobe Illustrator 29.5.0, SVG Export Plug-In . SVG Version: 2.1.0 Build 137)  -->
  <defs>
    <style>
      .st0 {
        fill: #171717;
      }
    </style>
  </defs>
  <path class="st0" d="M16,32C7.184,32,0,24.816,0,16S7.184,0,16,0s16,6.464,16,14.4c0,5.296-4.304,9.6-9.6,9.6h-2.832c-.448,0-.8.352-.8.8,0,.192.08.368.208.528.656.752,1.024,1.696,1.024,2.672,0,2.208-1.792,4-4,4ZM16,3.2c-7.056,0-12.8,5.744-12.8,12.8s5.744,12.8,12.8,12.8c.448,0,.8-.352.8-.8,0-.256-.128-.448-.224-.56-.656-.736-1.008-1.68-1.008-2.64,0-2.208,1.792-4,4-4h2.832c3.536,0,6.4-2.864,6.4-6.4,0-6.176-5.744-11.2-12.8-11.2Z"/>
  <path class="st0" d="M7.2,17.6c1.325,0,2.4-1.075,2.4-2.4s-1.075-2.4-2.4-2.4-2.4,1.075-2.4,2.4,1.075,2.4,2.4,2.4Z"/>
  <path class="st0" d="M12,11.2c1.325,0,2.4-1.075,2.4-2.4s-1.075-2.4-2.4-2.4-2.4,1.075-2.4,2.4,1.075,2.4,2.4,2.4Z"/>
  <path class="st0" d="M20,11.2c1.325,0,2.4-1.075,2.4-2.4s-1.075-2.4-2.4-2.4-2.4,1.075-2.4,2.4,1.075,2.4,2.4,2.4Z"/>
  <path class="st0" d="M24.8,17.6c1.325,0,2.4-1.075,2.4-2.4s-1.075-2.4-2.4-2.4-2.4,1.075-2.4,2.4,1.075,2.4,2.4,2.4Z"/>
</svg>