<?xml version="1.0" encoding="UTF-8"?>
<svg id="Layer_1" xmlns="http://www.w3.org/2000/svg" version="1.1" viewBox="0 0 32 32">
  <!-- Generator: Adobe Illustrator 29.5.1, SVG Export Plug-In . SVG Version: 2.1.0 Build 141)  -->
  <circle fill="#171717" cx="16" cy="16" r="15.591"/>
  <g>
    <path fill="#FFF" d="M22.45,11.392c-.509,0-.921.413-.921.921v10.312c-.055.97-.882,1.714-1.852,1.667h-7.353c-.97.047-1.797-.697-1.852-1.667v-10.312c0-.509-.413-.921-.921-.921s-.921.413-.921.921v10.312c.055,1.988,1.707,3.557,3.695,3.51h7.353c1.988.047,3.64-1.522,3.695-3.51v-10.312c0-.509-.413-.921-.921-.921Z"/>
    <path fill="#FFF" d="M23.372,8.628h-3.686v-1.843c0-.509-.413-.921-.921-.921h-5.529c-.509,0-.921.413-.921.921v1.843h-3.686c-.509,0-.921.413-.921.921s.413.921.921.921h14.743c.509,0,.921-.413.921-.921s-.413-.921-.921-.921ZM14.157,8.628v-.921h3.686v.921h-3.686Z"/>
    <path fill="#FFF" d="M15.079,20.607v-6.45c0-.509-.413-.921-.921-.921s-.921.413-.921.921v6.45c0,.509.413.921.921.921s.921-.413.921-.921Z"/>
    <path fill="#FFF" d="M18.764,20.607v-6.45c0-.509-.413-.921-.921-.921s-.921.413-.921.921v6.45c0,.509.413.921.921.921s.921-.413.921-.921Z"/>
  </g>
</svg>
