<?xml version="1.0" encoding="UTF-8"?>
<svg id="Layer_1" xmlns="http://www.w3.org/2000/svg" version="1.1" viewBox="0 0 32 32">
  <!-- Generator: Adobe Illustrator 29.5.0, SVG Export Plug-In . SVG Version: 2.1.0 Build 137)  -->
  <defs>
    <style>
      .st0 {
        fill: #171717;
      }
    </style>
  </defs>
  <path class="st0" d="M28.571,2.286h-3.429v-1.143c0-.631-.512-1.143-1.143-1.143s-1.143.512-1.143,1.143v1.143h-13.714v-1.143c0-.631-.512-1.143-1.143-1.143s-1.143.512-1.143,1.143v1.143h-3.429c-1.894,0-3.429,1.535-3.429,3.429v22.857c0,1.894,1.535,3.429,3.429,3.429h25.143c1.894,0,3.429-1.535,3.429-3.429V5.714c0-1.894-1.535-3.429-3.429-3.429ZM29.714,28.571c0,.631-.512,1.143-1.143,1.143H3.429c-.631,0-1.143-.512-1.143-1.143V11.429h27.429v17.143ZM29.714,9.143H2.286v-3.429c0-.631.512-1.143,1.143-1.143h3.429v1.143c0,.631.512,1.143,1.143,1.143s1.143-.512,1.143-1.143v-1.143h13.714v1.143c0,.631.512,1.143,1.143,1.143s1.143-.512,1.143-1.143v-1.143h3.429c.631,0,1.143.512,1.143,1.143v3.429Z"/>
</svg>