<?xml version="1.0" encoding="UTF-8"?>
<svg id="Layer_1" xmlns="http://www.w3.org/2000/svg" version="1.1" viewBox="0 0 32 32">
  <!-- Generator: Adobe Illustrator 29.5.0, SVG Export Plug-In . SVG Version: 2.1.0 Build 137)  -->
  <defs>
    <style>
      .st0 {
        fill: #171717;
      }
    </style>
  </defs>
  <g id="Layer">
    <path class="st0" d="M28.571,6.857h-4.823l-.491-1.977c-.383-1.525-1.753-2.594-3.326-2.594h-7.863c-1.572,0-2.943,1.069-3.326,2.594l-.491,1.977H3.429c-1.894,0-3.429,1.535-3.429,3.429v16c0,1.894,1.535,3.429,3.429,3.429h25.143c1.894,0,3.429-1.535,3.429-3.429V10.286c0-1.894-1.535-3.429-3.429-3.429ZM29.714,26.286c0,.631-.512,1.143-1.143,1.143H3.429c-.631,0-1.143-.512-1.143-1.143V10.286c0-.631.512-1.143,1.143-1.143h5.714c.538.016,1.014-.346,1.143-.869l.709-2.834c.129-.522.605-.884,1.143-.869h7.863c.538-.016,1.014.346,1.143.869l.571,2.834c.129.522.605.884,1.143.869h5.714c.631,0,1.143.512,1.143,1.143v16ZM16,11.429c-3.787,0-6.857,3.07-6.857,6.857s3.07,6.857,6.857,6.857,6.857-3.07,6.857-6.857-3.07-6.857-6.857-6.857ZM16,22.857c-2.525,0-4.571-2.047-4.571-4.571s2.047-4.571,4.571-4.571,4.571,2.047,4.571,4.571-2.047,4.571-4.571,4.571ZM12.571,8c0-.631.512-1.143,1.143-1.143h4.571c.631,0,1.143.512,1.143,1.143s-.512,1.143-1.143,1.143h-4.571c-.631,0-1.143-.512-1.143-1.143Z"/>
  </g>
</svg>