<?xml version="1.0" encoding="UTF-8"?>
<svg id="Layer_1" xmlns="http://www.w3.org/2000/svg" version="1.1" viewBox="0 0 32 32">
  <!-- Generator: Adobe Illustrator 29.5.0, SVG Export Plug-In . SVG Version: 2.1.0 Build 137)  -->
  <defs>
    <style>
      .st0 {
        fill: #171717;
      }
    </style>
  </defs>
  <path class="st0" d="M22,30.669H7.333c-4,0-7.333-3.333-7.333-7.333v-14.667C0,4.669,3.333,1.336,7.333,1.336h3.333c.8,0,1.333.533,1.333,1.333s-.533,1.333-1.333,1.333h-3.333c-2.533,0-4.667,2.133-4.667,4.667v14.667c0,2.533,2.133,4.667,4.667,4.667h14.667c2.533,0,4.667-2.133,4.667-4.667v-2c0-.8.533-1.333,1.333-1.333s1.333.533,1.333,1.333v2c0,4-3.333,7.333-7.333,7.333ZM9.733,21.336c-.533,0-1.067-.4-1.333-.933-.267-.933-.4-2-.4-3.067,0-5.867,4.8-10.667,10.667-10.667h2.667v-4c0-.533.267-1.067.8-1.2.533-.267,1.067-.133,1.467.267l8,8c.533.533.533,1.333,0,1.867l-8,8c-.4.4-.933.533-1.467.267-.533-.133-.8-.667-.8-1.2v-4h-2.667c-3.6,0-6.667,2.267-7.733,5.733-.133.533-.667.933-1.2.933ZM18.667,12.003h4c.8,0,1.333.533,1.333,1.333v2.133l4.8-4.8-4.8-4.8v2.133c0,.8-.533,1.333-1.333,1.333h-4c-3.733,0-6.8,2.533-7.733,6,2-2.133,4.667-3.333,7.733-3.333Z"/>
</svg>