<?xml version="1.0" encoding="UTF-8"?>
<svg id="Layer_1" xmlns="http://www.w3.org/2000/svg" version="1.1" viewBox="0 0 32 32">
  <!-- Generator: Adobe Illustrator 29.5.0, SVG Export Plug-In . SVG Version: 2.1.0 Build 137)  -->
  <path class="st0" fill="#171717" d="M30.366,32.001c-.417,0-.836-.159-1.155-.478L.478,2.788C-.159,2.15-.159,1.116.478.478S2.151-.16,2.789.478l28.733,28.734c.638.638.638,1.672,0,2.31-.319.319-.738.478-1.155.478Z"/>
  <path class="st0" fill="#171717" d="M1.634,32.001c-.418,0-.836-.159-1.155-.478-.638-.638-.638-1.672,0-2.31L29.211.478c.638-.638,1.672-.638,2.31,0s.638,1.672,0,2.31L2.789,31.522c-.319.319-.737.478-1.155.478Z"/>
</svg>
