<?xml version="1.0" encoding="UTF-8"?>
<svg id="Layer_2" data-name="Layer 2" xmlns="http://www.w3.org/2000/svg" viewBox="0 0 33.5 33.5">
  <defs>
    <style>
      .cls-1 {
        fill: #f97827;
      }

      .cls-2 {
        fill: #dd3242;
      }

      .cls-3 {
        fill: #01ae5c;
      }

      .cls-4 {
        fill: #a23ca2;
      }

      .cls-5 {
        fill: #f45542;
      }

      .cls-6 {
        fill: #7943a3;
      }

      .cls-7 {
        fill: #fca313;
      }

      .cls-8 {
        fill: #ffe503;
      }

      .cls-9 {
        fill: #af2f79;
      }

      .cls-10 {
        fill: #2656ab;
      }

      .cls-11 {
        fill: #019a85;
      }

      .cls-12 {
        fill: #a1cf49;
      }
    </style>
  </defs>
  <g id="Layer_1-2" data-name="Layer 1">
    <g>
      <path class="cls-5" d="M33.5,16.75c0,2.94-.77,5.83-2.24,8.37l-14.5-8.37h16.75Z"/>
      <path class="cls-2" d="M31.25,25.12c-1.47,2.55-3.58,4.66-6.13,6.13l-8.37-14.51,14.5,8.38Z"/>
      <path class="cls-9" d="M25.12,31.25c-2.55,1.47-5.43,2.24-8.37,2.24v-16.75s8.37,14.51,8.37,14.51Z"/>
      <path class="cls-10" d="M0,16.75c0,2.94.77,5.83,2.24,8.37l14.5-8.37H0Z"/>
      <path class="cls-6" d="M2.24,25.12c1.47,2.55,3.58,4.66,6.13,6.13l8.37-14.51L2.24,25.12Z"/>
      <path class="cls-4" d="M8.38,31.25c2.55,1.47,5.43,2.24,8.37,2.24v-16.75s-8.37,14.51-8.37,14.51Z"/>
      <path class="cls-11" d="M0,16.75c0-2.94.77-5.83,2.24-8.37l14.5,8.37H0Z"/>
      <path class="cls-3" d="M2.24,8.37c1.47-2.55,3.58-4.66,6.13-6.13l8.37,14.51L2.24,8.37Z"/>
      <path class="cls-12" d="M8.38,2.24C10.92.77,13.81,0,16.75,0v16.75S8.38,2.24,8.38,2.24Z"/>
      <path class="cls-1" d="M33.5,16.75c0-2.94-.77-5.83-2.24-8.37l-14.5,8.37h16.75Z"/>
      <path class="cls-7" d="M31.25,8.37c-1.47-2.55-3.58-4.66-6.13-6.13l-8.37,14.51,14.5-8.38Z"/>
      <path class="cls-8" d="M25.12,2.24C22.58.77,19.69,0,16.75,0v16.75S25.12,2.24,25.12,2.24Z"/>
    </g>
  </g>
</svg>