<?xml version="1.0" encoding="UTF-8"?>
<svg id="Layer_1" xmlns="http://www.w3.org/2000/svg" version="1.1" viewBox="0 0 32 32">
  <!-- Generator: Adobe Illustrator 29.5.0, SVG Export Plug-In . SVG Version: 2.1.0 Build 137)  -->
  <defs>
    <style>
      .st0 {
        fill: #171717;
      }
    </style>
  </defs>
  <path class="st0" d="M14.951,17.116c-4.718,0-8.558-3.84-8.558-8.558S10.233,0,14.951,0s8.558,3.84,8.558,8.558-3.84,8.558-8.558,8.558ZM14.951,2.233c-3.483,0-6.326,2.843-6.326,6.326s2.843,6.326,6.326,6.326,6.326-2.843,6.326-6.326-2.843-6.326-6.326-6.326Z"/>
  <path class="st0" d="M20.636,32c-.566,0-1.101-.208-1.488-.595-.461-.461-.67-1.131-.566-1.831l.283-2.009c.074-.521.387-1.131.759-1.518l5.269-5.269c2.113-2.113,3.974-.908,4.882,0,.774.774,1.176,1.607,1.176,2.441,0,.848-.387,1.637-1.176,2.426l-5.269,5.269c-.372.372-.997.685-1.518.759l-2.009.283c-.119.03-.223.045-.342.045h0ZM27.319,21.834c-.268,0-.506.179-.848.521l-5.269,5.269c-.045.045-.119.193-.119.253l-.268,1.86,1.86-.268c.06-.015.208-.089.253-.134l5.269-5.269c.238-.238.521-.58.521-.848,0-.223-.179-.536-.521-.863-.357-.357-.625-.521-.878-.521h0Z"/>
  <path class="st0" d="M28.228,26.746c-.104,0-.208-.015-.298-.045-1.965-.551-3.527-2.113-4.078-4.078-.164-.595.179-1.206.774-1.369s1.206.179,1.369.774c.342,1.22,1.31,2.188,2.53,2.53.595.164.938.789.774,1.369-.134.491-.58.818-1.072.818h0Z"/>
  <path class="st0" d="M2.166,32c-.61,0-1.116-.506-1.116-1.116,0-6.355,6.236-11.535,13.901-11.535,1.622,0,3.23.238,4.733.685.595.179.923.804.744,1.384-.179.595-.804.923-1.384.744-1.31-.387-2.679-.595-4.093-.595-6.43,0-11.669,4.167-11.669,9.302,0,.625-.506,1.131-1.116,1.131Z"/>
</svg>