<?xml version="1.0" encoding="UTF-8"?>
<svg id="Layer_1" xmlns="http://www.w3.org/2000/svg" version="1.1" viewBox="0 0 32 32">
  <!-- Generator: Adobe Illustrator 29.5.0, SVG Export Plug-In . SVG Version: 2.1.0 Build 137)  -->
  <defs>
    <style>
      .st0 {
        fill: #171717;
      }
    </style>
  </defs>
  <path class="st0" d="M28.8,0H6.4c-1.767.002-3.198,1.433-3.2,3.2v3.2H1.067c-.589,0-1.067.478-1.067,1.067s.478,1.067,1.067,1.067h2.133v6.4H1.067c-.589,0-1.067.478-1.067,1.067s.478,1.067,1.067,1.067h2.133v6.4H1.067c-.589,0-1.067.478-1.067,1.067s.478,1.067,1.067,1.067h2.133v3.2c.002,1.767,1.433,3.198,3.2,3.2h22.4c1.767-.002,3.198-1.433,3.2-3.2V3.2C31.998,1.433,30.567.002,28.8,0ZM29.867,28.8c0,.589-.478,1.066-1.067,1.067H6.4c-.589,0-1.066-.478-1.067-1.067v-3.2h2.133c.589,0,1.067-.478,1.067-1.067s-.478-1.067-1.067-1.067h-2.133v-6.4h2.133c.589,0,1.067-.478,1.067-1.067s-.478-1.067-1.067-1.067h-2.133v-6.4h2.133c.589,0,1.067-.478,1.067-1.067s-.478-1.067-1.067-1.067h-2.133v-3.2c0-.589.478-1.066,1.067-1.067h22.4c.589,0,1.066.478,1.067,1.067v25.6Z"/>
  <path class="st0" d="M20.628,17.485c2.604-1.378,3.597-4.605,2.22-7.208-1.378-2.604-4.605-3.597-7.208-2.22-2.604,1.378-3.597,4.605-2.22,7.208.5.946,1.274,1.719,2.22,2.22-2.592.878-4.496,3.105-4.958,5.803-.099.581.292,1.132.873,1.231.581.099,1.132-.292,1.231-.873.55-2.954,3.391-4.902,6.344-4.351,2.21.412,3.94,2.141,4.351,4.351.106.576.652.963,1.231.873.58-.099.971-.65.873-1.23-.462-2.698-2.365-4.925-4.958-5.803h0ZM18.133,9.6c1.767,0,3.2,1.433,3.2,3.2s-1.433,3.2-3.2,3.2-3.2-1.433-3.2-3.2c.002-1.767,1.433-3.198,3.2-3.2Z"/>
</svg>