<?xml version="1.0" encoding="UTF-8"?>
<svg id="Layer_1" xmlns="http://www.w3.org/2000/svg" version="1.1" viewBox="0 0 32 32">
  <!-- Generator: Adobe Illustrator 29.5.0, SVG Export Plug-In . SVG Version: 2.1.0 Build 137)  -->
  <defs>
    <style>
      .st0 {
        fill: #171717;
      }
    </style>
  </defs>
  <path class="st0" d="M25.157,31.913h-9.692c-3.773,0-6.843-3.072-6.843-6.845v-9.691c0-3.773,3.07-6.845,6.843-6.845h9.692c3.774,0,6.843,3.072,6.843,6.845v9.691c0,3.773-3.07,6.845-6.843,6.845ZM15.464,12.557c-1.554,0-2.819,1.264-2.819,2.819v9.691c0,1.555,1.265,2.819,2.819,2.819h9.692c1.555,0,2.819-1.264,2.819-2.819v-9.691c0-1.555-1.265-2.819-2.819-2.819h-9.692Z"/>
  <path class="st0" d="M10.633,23.467h-3.79c-3.773,0-6.843-3.07-6.843-6.843V6.931C0,3.157,3.07.087,6.843.087h9.692c3.773,0,6.843,3.07,6.843,6.843v3.614h-4.024v-3.614c0-1.553-1.265-2.818-2.819-2.818H6.843c-1.554,0-2.819,1.264-2.819,2.818v9.693c0,1.553,1.265,2.818,2.819,2.818h3.79v4.026Z"/>
</svg>