<?xml version="1.0" encoding="UTF-8"?>
<svg id="Layer_2" data-name="Layer 2" xmlns="http://www.w3.org/2000/svg" viewBox="0 0 11.45 14">
  <g id="Layer_1-2" data-name="Layer 1">
    <g>
      <path fill="#171717" d="M10.18,3.82c-.35,0-.64.29-.64.64v7.12c-.04.67-.61,1.18-1.28,1.15H3.19c-.67.03-1.24-.48-1.28-1.15v-7.12c0-.35-.29-.64-.64-.64s-.64.29-.64.64v7.12c.04,1.37,1.18,2.46,2.55,2.42h5.08c1.37.03,2.51-1.05,2.55-2.42v-7.12c0-.35-.29-.64-.64-.64h0Z"/>
      <path fill="#171717" d="M10.82,1.91h-2.55V.64c0-.35-.29-.64-.64-.64h-3.82c-.35,0-.64.29-.64.64v1.27H.64c-.35,0-.64.29-.64.64s.29.64.64.64h10.18c.35,0,.64-.29.64-.64s-.29-.64-.64-.64ZM4.45,1.91v-.64h2.55v.64h-2.55Z"/>
      <path fill="#171717" d="M5.09,10.18v-4.45c0-.35-.29-.64-.64-.64s-.64.29-.64.64v4.45c0,.35.29.64.64.64s.64-.29.64-.64Z"/>
      <path fill="#171717" d="M7.64,10.18v-4.45c0-.35-.29-.64-.64-.64s-.64.29-.64.64v4.45c0,.35.29.64.64.64s.64-.29.64-.64Z"/>
    </g>
  </g>
</svg>
