<?xml version="1.0" encoding="UTF-8"?>
<svg id="Layer_1" xmlns="http://www.w3.org/2000/svg" version="1.1" viewBox="0 0 32 32">
  <!-- Generator: Adobe Illustrator 29.5.0, SVG Export Plug-In . SVG Version: 2.1.0 Build 137)  -->
  <defs>
    <style>
      .st0 {
        fill: #171717;
      }
    </style>
  </defs>
  <path class="st0" d="M24.889,32H7.111c-1.899,0-3.685-.74-5.028-2.083C.74,28.574,0,26.788,0,24.889v-1.778C0,22.129.796,21.333,1.778,21.333s1.778.796,1.778,1.778v1.778c0,.95.37,1.843,1.041,2.514.672.672,1.564,1.042,2.514,1.042h17.778c.95,0,1.842-.37,2.514-1.042.672-.672,1.042-1.564,1.042-2.514v-1.778c0-.982.796-1.778,1.778-1.778s1.778.796,1.778,1.778v1.778c0,1.899-.74,3.685-2.083,5.028-1.343,1.343-3.129,2.083-5.028,2.083h0ZM16,24.889c-.246,0-.48-.05-.693-.14-.199-.084-.385-.206-.549-.365,0,0,0,0,0,0-.001-.001-.002-.002-.004-.003,0,0,0,0,0,0,0,0-.002-.002-.003-.003,0,0-.001-.001-.002-.002,0,0-.001-.001-.002-.002-.001-.001-.003-.003-.004-.004l-7.111-7.111c-.694-.694-.694-1.82,0-2.514.694-.694,1.82-.694,2.514,0l4.076,4.076V1.778c0-.982.796-1.778,1.778-1.778s1.778.796,1.778,1.778v17.041l4.076-4.076c.694-.694,1.82-.694,2.514,0,.694.694.694,1.82,0,2.514l-7.111,7.111-.004.004s-.001.001-.002.002c0,0-.001.001-.002.002,0,0-.002.002-.003.003,0,0,0,0-.001,0-.001.001-.002.002-.003.003h0c-.02.019-.039.038-.06.056-.149.133-.315.236-.49.31,0,0-.001,0-.002,0,0,0-.001,0-.002,0-.212.089-.445.138-.689.138h0Z"/>
</svg>