<?xml version="1.0" encoding="UTF-8"?>
<svg id="Layer_1" xmlns="http://www.w3.org/2000/svg" version="1.1" viewBox="0 0 32 32">
  <!-- Generator: Adobe Illustrator 29.5.1, SVG Export Plug-In . SVG Version: 2.1.0 Build 141)  -->
  <circle fill="#fff" cx="16" cy="16" r="15.591"/>
  <g id="_38_Question">
    <path fill="#171717" d="M8.868,24.293c-.643-.002-1.163-.524-1.162-1.167,0-.05.003-.099.01-.149l.416-3.179c.038-.288.17-.555.374-.76l10.959-10.959c.498-.497,1.305-.497,1.803,0l2.651,2.651c.497.498.497,1.305,0,1.803l-10.959,10.959c-.205.205-.473.337-.76.374l-3.179.416c-.051.007-.102.01-.154.01h0ZM9.725,20.111l-.326,2.489,2.489-.326,10.642-10.642-2.163-2.163-10.642,10.642Z"/>
    <path fill="#171717" d="M20.887,15.232c-.215,0-.421-.084-.573-.236l-3.31-3.31c-.316-.317-.316-.83,0-1.146.317-.316.83-.316,1.146,0l3.309,3.309c.316.316.316.829,0,1.145-.152.152-.358.237-.573.237Z"/>
  </g>
</svg>
