<?xml version="1.0" encoding="UTF-8"?>
<svg id="Layer_2" data-name="Layer 2" xmlns="http://www.w3.org/2000/svg" viewBox="0 0 14 14">
  <g id="Layer_1-2" data-name="Layer 1">
    <g id="_38_Question" data-name=" 38 Question">
      <path d="M.98,14C.44,14,0,13.56,0,13.02c0-.04,0-.08,0-.13l.35-2.68c.03-.24.14-.47.32-.64L9.93.31c.42-.42,1.1-.42,1.52,0l2.24,2.24c.42.42.42,1.1,0,1.52L4.43,13.32c-.17.17-.4.28-.64.32l-2.68.35s-.09,0-.13,0h0ZM1.7,10.47l-.28,2.1,2.1-.28L12.51,3.31l-1.83-1.83L1.7,10.47Z"/>
      <path d="M11.13,6.35c-.18,0-.36-.07-.48-.2l-2.79-2.79c-.27-.27-.27-.7,0-.97.27-.27.7-.27.97,0l2.79,2.79c.27.27.27.7,0,.97-.13.13-.3.2-.48.2h0Z"/>
    </g>
  </g>
</svg>