<?xml version="1.0" encoding="UTF-8"?>
<svg id="Layer_1" xmlns="http://www.w3.org/2000/svg" version="1.1" viewBox="0 0 32 32">
  <!-- Generator: Adobe Illustrator 29.5.0, SVG Export Plug-In . SVG Version: 2.1.0 Build 137)  -->
  <defs>
    <style>
      .st0 {
        fill: #171717;
      }
    </style>
  </defs>
  <path class="st0" d="M14.646,29.97H4.666c-.568,0-1.028-.46-1.028-1.028V1.029C3.638.461,4.098,0,4.666,0h13.702c.568,0,1.028.46,1.028,1.028v7.938h7.938c.568,0,1.028.46,1.028,1.028v6.852c0,.568-.46,1.028-1.028,1.028s-1.028-.46-1.028-1.028v-5.824h-7.938c-.568,0-1.028-.46-1.028-1.028V2.057H5.694v25.857h8.952c.568,0,1.028.46,1.028,1.028s-.46,1.028-1.028,1.028Z"/>
  <path class="st0" d="M27.334,11.023h-8.966c-.568,0-1.028-.46-1.028-1.028V1.029c0-.416.251-.791.634-.949.383-.161.826-.072,1.121.223l8.966,8.966c.294.294.382.735.222,1.12s-.534.635-.949.635ZM19.396,8.966h5.457l-5.457-5.457v5.457Z"/>
  <path class="st0" d="M22.85,32c-.235,0-.469-.079-.661-.242-.435-.365-.491-1.014-.125-1.447l3.893-4.627-3.853-4.072c-.391-.412-.373-1.062.041-1.453.407-.391,1.06-.374,1.453.041l4.484,4.736c.358.378.376.967.039,1.367l-4.484,5.329c-.202.242-.494.367-.786.367Z"/>
  <path class="st0" d="M27.334,26.968h-9.304c-.568,0-1.028-.46-1.028-1.028s.46-1.028,1.028-1.028h9.304c.568,0,1.028.46,1.028,1.028s-.46,1.028-1.028,1.028Z"/>
</svg>