<?xml version="1.0" encoding="UTF-8"?>
<svg id="Layer_2" data-name="Layer 2" xmlns="http://www.w3.org/2000/svg" viewBox="0 0 158.8 158.8">
  <defs>
    <style>
      .cls-1 {
        fill: #f3f4f5;
      }

      .cls-2 {
        fill: #d4d4d4;
      }
    </style>
  </defs>
  <g id="Layer_1-2" data-name="Layer 1">
    <g>
      <rect class="cls-1" width="158.8" height="158.8" rx="12" ry="12"/>
      <g id="Layer">
        <path class="cls-2" d="M98.82,64.39h-8.13l-.83-3.33c-.64-2.57-2.96-4.37-5.61-4.37h-13.25c-2.65,0-4.96,1.8-5.61,4.37l-.83,3.33h-8.13c-3.19,0-5.78,2.59-5.78,5.78v26.97c0,3.19,2.59,5.78,5.78,5.78h42.38c3.19,0,5.78-2.59,5.78-5.78v-26.97c0-3.19-2.59-5.78-5.78-5.78ZM100.74,97.14c0,1.06-.86,1.93-1.93,1.93h-42.38c-1.06,0-1.93-.86-1.93-1.93v-26.97c0-1.06.86-1.93,1.93-1.93h9.63c.91.03,1.71-.58,1.93-1.46l1.19-4.78c.22-.88,1.02-1.49,1.93-1.46h13.25c.91-.03,1.71.58,1.93,1.46l.96,4.78c.22.88,1.02,1.49,1.93,1.46h9.63c1.06,0,1.93.86,1.93,1.93v26.97ZM77.63,72.1c-6.38,0-11.56,5.17-11.56,11.56s5.17,11.56,11.56,11.56,11.56-5.17,11.56-11.56-5.17-11.56-11.56-11.56ZM77.63,91.36c-4.26,0-7.71-3.45-7.71-7.71s3.45-7.71,7.71-7.71,7.71,3.45,7.71,7.71-3.45,7.71-7.71,7.71ZM71.85,66.32c0-1.06.86-1.93,1.93-1.93h7.71c1.06,0,1.93.86,1.93,1.93s-.86,1.93-1.93,1.93h-7.71c-1.06,0-1.93-.86-1.93-1.93Z"/>
      </g>
    </g>
  </g>
</svg>