<?xml version="1.0" encoding="UTF-8"?>
<svg id="Layer_2" data-name="Layer 2" xmlns="http://www.w3.org/2000/svg" viewBox="0 0 52.7 50.43">
  <defs>
    <style>
      .placeholder-cls-1 {
        fill: #d4d4d4;
      }
    </style>
  </defs>
  <g id="Layer_1-2" data-name="Layer 1">
    <g>
      <path class="placeholder-cls-1" d="M50.43,15.56c-1.02.17-1.72,1.14-1.54,2.17.04.24.05.47.05.7v22.58c0,3.11-2.53,5.65-5.65,5.65H9.41c-3.11,0-5.65-2.53-5.65-5.65v-22.58c0-3.11,2.53-5.65,5.65-5.65h5.65c1.04,0,1.88-.84,1.88-1.88,0-3.11,2.53-5.65,5.65-5.65h7.53c.76,0,1.53.16,2.22.46.96.42,2.06-.02,2.48-.97.42-.95-.02-2.06-.97-2.48-1.17-.51-2.46-.78-3.73-.78h-7.53c-4.55,0-8.35,3.24-9.22,7.53h-3.95C4.22,9.02,0,13.24,0,18.43v22.58c0,5.19,4.22,9.41,9.41,9.41h33.88c5.19,0,9.41-4.22,9.41-9.41v-22.58c0-.44-.03-.88-.1-1.33-.17-1.02-1.13-1.72-2.17-1.54Z"/>
      <path class="placeholder-cls-1" d="M26.35,16.55c-7.26,0-13.17,5.91-13.17,13.17s5.91,13.17,13.17,13.17,13.17-5.91,13.17-13.17-5.91-13.17-13.17-13.17ZM26.35,39.13c-5.19,0-9.41-4.22-9.41-9.41s4.22-9.41,9.41-9.41,9.41,4.22,9.41,9.41-4.22,9.41-9.41,9.41Z"/>
      <path class="placeholder-cls-1" d="M45.17,0c-1.04,0-1.88.84-1.88,1.88v3.38h-3.37c-1.04,0-1.88.84-1.88,1.88s.84,1.88,1.88,1.88h3.37v3.38c0,1.04.84,1.88,1.88,1.88s1.88-.84,1.88-1.88v-3.38h3.37c1.04,0,1.88-.84,1.88-1.88s-.84-1.88-1.88-1.88h-3.37V1.88c0-1.04-.84-1.88-1.88-1.88Z"/>
    </g>
  </g>
</svg>
