<?xml version="1.0" encoding="UTF-8"?>
<svg id="Layer_1" xmlns="http://www.w3.org/2000/svg" version="1.1" viewBox="0 0 32 32">
  <!-- Generator: Adobe Illustrator 29.5.0, SVG Export Plug-In . SVG Version: 2.1.0 Build 137)  -->
  <defs>
    <style>
      .st0 {
        fill: #171717;
      }
    </style>
  </defs>
  <path class="st0" d="M16,0C7.156,0,0,7.157,0,16s7.157,16,16,16,16-7.157,16-16S24.843,0,16,0ZM16,29.5c-7.462,0-13.5-6.038-13.5-13.5S8.538,2.5,16,2.5s13.5,6.038,13.5,13.5-6.038,13.5-13.5,13.5Z"/>
  <path class="st0" d="M16,13.396c-.69,0-1.25.56-1.25,1.25v8.05c0,.69.56,1.25,1.25,1.25s1.25-.56,1.25-1.25v-8.049c0-.69-.56-1.25-1.25-1.25Z"/>
  <circle class="st0" cx="16" cy="10.177" r="1.688"/>
</svg>