<?xml version="1.0" encoding="UTF-8"?>
<svg id="Layer_1" xmlns="http://www.w3.org/2000/svg" version="1.1" viewBox="0 0 32 32">
  <!-- Generator: Adobe Illustrator 29.5.0, SVG Export Plug-In . SVG Version: 2.1.0 Build 137)  -->
  <path class="st0" fill="#171717" d="M27.314,4.686C24.292,1.664,20.274,0,16,0S7.708,1.664,4.686,4.686C1.664,7.708,0,11.726,0,16s1.664,8.292,4.686,11.314c3.022,3.022,7.04,4.686,11.314,4.686s8.292-1.664,11.314-4.686c3.022-3.022,4.686-7.04,4.686-11.314s-1.664-8.292-4.686-11.314ZM6.944,26.831c.528-4.546,4.437-8.056,9.056-8.056,2.435,0,4.725.949,6.447,2.671,1.455,1.455,2.373,3.355,2.609,5.385-2.454,2.055-5.613,3.294-9.056,3.294s-6.602-1.239-9.056-3.294ZM16,16.844c-2.679,0-4.86-2.18-4.86-4.86s2.18-4.86,4.86-4.86,4.86,2.18,4.86,4.86-2.18,4.86-4.86,4.86ZM26.67,25.246c-.478-1.926-1.474-3.702-2.897-5.125-1.152-1.152-2.516-2.017-4.002-2.559,1.787-1.212,2.964-3.26,2.964-5.577,0-3.713-3.021-6.735-6.735-6.735s-6.735,3.021-6.735,6.735c0,2.319,1.178,4.367,2.967,5.579-1.368.499-2.634,1.269-3.723,2.284-1.577,1.469-2.672,3.342-3.18,5.397-2.151-2.479-3.454-5.712-3.454-9.244C1.875,8.211,8.211,1.875,16,1.875s14.125,6.336,14.125,14.125c0,3.533-1.304,6.767-3.455,9.246Z"/>
</svg>
