<?xml version="1.0" encoding="UTF-8"?>
<svg id="Layer_1" xmlns="http://www.w3.org/2000/svg" version="1.1" viewBox="0 0 32 32">
  <!-- Generator: Adobe Illustrator 29.5.0, SVG Export Plug-In . SVG Version: 2.1.0 Build 137)  -->
  <defs>
    <style>
      .st0 {
        fill: #171717;
      }
    </style>
  </defs>
  <path class="st0" d="M10.667,14.222H3.556c-1.963-.002-3.554-1.593-3.556-3.556V3.556C.002,1.593,1.593.002,3.556,0h7.111c1.963.002,3.554,1.593,3.556,3.556v7.111c-.002,1.963-1.593,3.554-3.556,3.556ZM3.556,3.556v7.111h7.114l-.003-7.111H3.556Z"/>
  <path class="st0" d="M10.667,32H3.556c-1.963-.002-3.554-1.593-3.556-3.556v-7.111c.002-1.963,1.593-3.554,3.556-3.556h7.111c1.963.002,3.554,1.593,3.556,3.556v7.111c-.002,1.963-1.593,3.554-3.556,3.556ZM3.556,21.333v7.111h7.114l-.003-7.111H3.556Z"/>
  <path class="st0" d="M28.444,14.222h-7.111c-1.963-.002-3.554-1.593-3.556-3.556V3.556c.002-1.963,1.593-3.554,3.556-3.556h7.111c1.963.002,3.554,1.593,3.556,3.556v7.111c-.002,1.963-1.593,3.554-3.556,3.556ZM21.333,3.556v7.111h7.114l-.003-7.111h-7.111Z"/>
  <path class="st0" d="M28.444,32h-7.111c-1.963-.002-3.554-1.593-3.556-3.556v-7.111c.002-1.963,1.593-3.554,3.556-3.556h7.111c1.963.002,3.554,1.593,3.556,3.556v7.111c-.002,1.963-1.593,3.554-3.556,3.556ZM21.333,21.333v7.111h7.114l-.003-7.111h-7.111Z"/>
</svg>