<?xml version="1.0" encoding="UTF-8"?>
<svg id="Layer_1" xmlns="http://www.w3.org/2000/svg" version="1.1" viewBox="0 0 32 32">
  <!-- Generator: Adobe Illustrator 29.5.0, SVG Export Plug-In . SVG Version: 2.1.0 Build 137)  -->
  <path class="st0" fill="#171717" d="M17.004,32h-2.008c-1.624,0-2.946-1.322-2.946-2.946v-.679c-.691-.221-1.361-.499-2.006-.833l-.481.482c-1.166,1.168-3.034,1.133-4.167,0l-1.419-1.419c-1.134-1.133-1.167-3,0-4.167l.481-.481c-.334-.645-.612-1.315-.833-2.006h-.679c-1.624,0-2.946-1.322-2.946-2.946v-2.008c0-1.624,1.322-2.946,2.946-2.946h.679c.221-.691.499-1.361.833-2.006l-.481-.481c-1.167-1.165-1.134-3.033,0-4.167l1.42-1.419c1.135-1.136,3.003-1.165,4.166,0l.481.481c.645-.333,1.316-.612,2.006-.833v-.679C12.05,1.322,13.372,0,14.996,0h2.008C18.629,0,19.95,1.322,19.95,2.946v.679c.691.221,1.361.499,2.006.833l.482-.481c1.166-1.168,3.034-1.133,4.167,0l1.419,1.419c1.134,1.133,1.167,3.001,0,4.167l-.481.481c.334.645.612,1.315.833,2.006h.679c1.624,0,2.946,1.321,2.946,2.946v2.008c0,1.624-1.322,2.946-2.946,2.946h-.679c-.221.691-.499,1.361-.833,2.006l.482.482c1.167,1.165,1.134,3.033,0,4.167l-1.42,1.42c-1.135,1.136-3.003,1.165-4.167,0l-.481-.481c-.645.333-1.316.612-2.006.833v.679c0,1.624-1.322,2.946-2.946,2.946ZM10.357,25.573c.895.53,1.859.93,2.864,1.189.414.107.703.48.703.908v1.384c0,.59.48,1.071,1.071,1.071h2.008c.59,0,1.071-.48,1.071-1.071v-1.384c0-.428.289-.801.703-.908,1.005-.259,1.969-.66,2.864-1.189.368-.218.837-.159,1.14.144l.98.981c.423.423,1.102.413,1.514,0l1.42-1.42c.411-.411.425-1.09,0-1.514l-.981-.981c-.303-.303-.362-.772-.144-1.14.53-.895.93-1.859,1.189-2.864.107-.414.48-.703.908-.703h1.384c.59,0,1.071-.48,1.071-1.071v-2.008c0-.59-.48-1.071-1.071-1.071h-1.384c-.428,0-.801-.289-.908-.703-.259-1.005-.66-1.969-1.189-2.864-.218-.368-.159-.837.144-1.14l.981-.981c.424-.423.413-1.102,0-1.514l-1.42-1.42c-.412-.412-1.091-.424-1.514,0l-.981.981c-.303.303-.772.362-1.14.144-.895-.53-1.859-.93-2.864-1.189-.414-.107-.703-.48-.703-.908v-1.384c0-.59-.48-1.071-1.071-1.071h-2.008c-.59,0-1.071.48-1.071,1.071v1.384c0,.428-.289.801-.703.908-1.005.259-1.969.66-2.864,1.189-.368.218-.838.159-1.14-.144l-.981-.981c-.423-.423-1.102-.413-1.514,0l-1.42,1.42c-.411.411-.425,1.09,0,1.514l.981.981c.303.303.362.772.144,1.14-.53.895-.93,1.859-1.189,2.864-.107.414-.48.703-.908.703h-1.384c-.59,0-1.071.48-1.071,1.071v2.008c0,.59.48,1.071,1.071,1.071h1.384c.428,0,.801.289.908.703.259,1.005.66,1.969,1.189,2.864.218.368.159.837-.144,1.14l-.981.981c-.424.423-.413,1.102,0,1.514l1.42,1.42c.412.412,1.091.424,1.514,0l.981-.981c.223-.223.687-.412,1.14-.144h0Z"/>
  <path class="st0" fill="#171717" d="M16,22.962c-3.839,0-6.962-3.123-6.962-6.962s3.123-6.962,6.962-6.962,6.962,3.123,6.962,6.962-3.123,6.962-6.962,6.962ZM16,10.912c-2.805,0-5.087,2.282-5.087,5.088s2.282,5.087,5.087,5.087,5.087-2.282,5.087-5.087-2.282-5.087-5.087-5.087h0Z"/>
</svg>
