<?xml version="1.0" encoding="UTF-8"?>
<svg id="Layer_1" xmlns="http://www.w3.org/2000/svg" version="1.1" viewBox="0 0 32 32">
  <!-- Generator: Adobe Illustrator 29.5.0, SVG Export Plug-In . SVG Version: 2.1.0 Build 137)  -->
  <path class="st0" fill="#171717" d="M16,2.462c-7.477,0-13.538,6.061-13.538,13.538s6.061,13.538,13.538,13.538,13.538-6.061,13.538-13.538S23.477,2.462,16,2.462ZM0,16C0,7.163,7.163,0,16,0s16,7.163,16,16-7.164,16-16,16S0,24.836,0,16Z"/>
  <path class="st0" fill="#171717" d="M16,9.846c-1.133,0-2.051.918-2.051,2.051,0,.68-.551,1.231-1.231,1.231s-1.231-.551-1.231-1.231c0-2.492,2.02-4.513,4.513-4.513s4.513,2.02,4.513,4.513c0,.897-.263,1.736-.716,2.44-.284.441-.616.862-.921,1.242-.056.069-.111.138-.165.204-.254.314-.487.603-.702.898-.531.73-.778,1.278-.778,1.779,0,.68-.551,1.231-1.231,1.231s-1.231-.551-1.231-1.231c0-1.312.644-2.396,1.249-3.228.256-.351.536-.698.79-1.013.051-.063.101-.125.15-.185.304-.378.563-.71.769-1.031.205-.319.324-.697.324-1.108,0-1.133-.918-2.051-2.051-2.051Z"/>
  <path class="st1" fill="#171717" d="M17.641,23.385c0,.906-.735,1.641-1.641,1.641s-1.641-.735-1.641-1.641.735-1.641,1.641-1.641,1.641.735,1.641,1.641Z"/>
</svg>
