<?xml version="1.0" encoding="UTF-8"?>
<svg id="Layer_2" data-name="Layer 2" xmlns="http://www.w3.org/2000/svg" viewBox="0 0 14 14">
    <g id="Layer_1-2" data-name="Layer 1">
        <path fill="#171717"
              d="M10.89,14H3.11c-.83,0-1.61-.32-2.2-.91-.59-.59-.91-1.37-.91-2.2v-.78c0-.43.35-.78.78-.78s.78.35.78.78v.78c0,.42.16.81.46,1.1.29.29.68.46,1.1.46h7.78c.42,0,.81-.16,1.1-.46.29-.29.46-.68.46-1.1v-.78c0-.43.35-.78.78-.78s.78.35.78.78v.78c0,.83-.32,1.61-.91,2.2-.59.59-1.37.91-2.2.91h0ZM7,0c.11,0,.21.02.3.06.09.04.17.09.24.16,0,0,0,0,0,0,0,0,0,0,0,0,0,0,0,0,0,0,0,0,0,0,0,0,0,0,0,0,0,0,0,0,0,0,0,0,0,0,0,0,0,0l3.11,3.11c.3.3.3.8,0,1.1-.3.3-.8.3-1.1,0l-1.78-1.78v7.46c0,.43-.35.78-.78.78s-.78-.35-.78-.78V2.66l-1.78,1.78c-.3.3-.8.3-1.1,0-.3-.3-.3-.8,0-1.1L6.45.23h0s0,0,0,0c0,0,0,0,0,0,0,0,0,0,0,0,0,0,0,0,0,0,0,0,0,0,0,0h0s.02-.02.03-.02c.07-.06.14-.1.21-.14,0,0,0,0,0,0,0,0,0,0,0,0,.09-.04.19-.06.3-.06h0Z"/>
    </g>
</svg>
