<?xml version="1.0" encoding="UTF-8"?>
<svg id="Layer_2" data-name="Layer 2" xmlns="http://www.w3.org/2000/svg" viewBox="0 0 52.7 43.31">
  <defs>
    <style>
      .placeholder-cls-1 {
        fill: #d4d4d4;
      }
    </style>
  </defs>
  <g id="Layer_1-2" data-name="Layer 1">
    <g>
      <path class="placeholder-cls-1" d="M28.23,0c-1.04,0-1.88.84-1.88,1.88v3.38h-3.37c-1.04,0-1.88.84-1.88,1.88s.84,1.88,1.88,1.88h3.37v3.38c0,1.04.84,1.88,1.88,1.88s1.88-.84,1.88-1.88v-3.38h3.37c1.04,0,1.88-.84,1.88-1.88s-.84-1.88-1.88-1.88h-3.37V1.88c0-1.04-.84-1.88-1.88-1.88Z"/>
      <path class="placeholder-cls-1" d="M17.01,7.14c0-1.01-.82-1.84-1.84-1.84h-5.94C4.69,4.77.58,8.03.06,12.57c-.07.63-.07,1.27,0,1.91v19.59c-.53,4.54,2.73,8.65,7.27,9.18.63.07,1.27.07,1.91,0h22.04c4.54.53,8.65-2.73,9.18-7.27.07-.63.07-1.27,0-1.91v-1.07l6.28,5.02c.65.52,1.45.81,2.29.81.55,0,1.1-.13,1.6-.36,1.28-.61,2.09-1.9,2.08-3.31V13.41c0-1.41-.8-2.7-2.08-3.31h0c-1.27-.62-2.79-.45-3.89.44l-6.28,5.02v-3.24c0-1.01-.82-1.84-1.84-1.84h0c-1.01,0-1.84.82-1.84,1.84v21.75c0,3.04-2.47,5.51-5.51,5.51H9.24c-3.04,0-5.51-2.47-5.51-5.51V14.48c0-3.04,2.47-5.51,5.51-5.51h5.94c1.01,0,1.84-.82,1.84-1.84h0ZM49.02,35.15l-8.57-6.86v-8.03l8.57-6.86v21.74Z"/>
    </g>
  </g>
</svg>
