<?xml version="1.0" encoding="UTF-8"?>
<svg id="Layer_1" xmlns="http://www.w3.org/2000/svg" version="1.1" viewBox="0 0 32 32">
  <!-- Generator: Adobe Illustrator 29.5.0, SVG Export Plug-In . SVG Version: 2.1.0 Build 137)  -->
  <defs>
    <style>
      .st0 {
        fill: #171717;
      }
    </style>
  </defs>
  <path id="video" class="st0" d="M30.736,7.388c-.772-.376-1.692-.271-2.36.269l-3.811,3.048v-.653c.32-2.759-1.658-5.256-4.417-5.575-.385-.045-.773-.045-1.158,0H5.609C2.85,4.158.354,6.135.034,8.895c-.045.385-.045.773,0,1.158v11.894c-.32,2.759,1.658,5.256,4.417,5.575.385.045.773.045,1.158,0h13.381c2.759.32,5.256-1.658,5.575-4.417.045-.385.045-.773,0-1.158v-.653l3.811,3.048c.393.318.883.491,1.389.491.336,0,.668-.076.971-.222.775-.369,1.268-1.153,1.264-2.012v-13.2c.004-.859-.488-1.642-1.264-2.012h0ZM22.336,21.947c0,2.345-1.001,3.345-3.345,3.345H5.609c-2.345,0-3.345-1.001-3.345-3.345v-11.894c0-2.345,1.001-3.345,3.345-3.345h13.381c2.345,0,3.345,1.001,3.345,3.345v11.894ZM29.77,22.601l-5.204-4.163v-4.877l5.204-4.163v13.203Z"/>
</svg>