<svg width="20" height="20" viewBox="0 0 20 20" fill="none" xmlns="http://www.w3.org/2000/svg">
<g clip-path="url(#clip0_1615_1224)">
<g clip-path="url(#clip1_1615_1224)">
<path fill-rule="evenodd" clip-rule="evenodd" d="M9.99998 19.9989C4.4858 19.9989 0 15.5127 0 9.99951C0 4.48731 4.4858 0.0012207 9.99998 0.0012207C15.5142 0.0012207 20 4.48731 20 9.99951C20 15.5127 15.5142 19.9989 9.99998 19.9989ZM17.9919 11.297C17.7153 11.2107 15.4865 10.5449 12.9503 10.9506C14.009 13.8593 14.44 16.23 14.5227 16.7213C16.3385 15.4936 17.6316 13.5491 17.9919 11.297ZM13.1623 17.4629C13.0411 16.7529 12.5712 14.2775 11.4348 11.3253C11.4177 11.3313 11.3999 11.3365 11.3814 11.3431C6.81659 12.9327 5.17767 16.1003 5.03181 16.3979C6.40368 17.4675 8.12892 18.106 9.99998 18.106C11.1209 18.106 12.1902 17.8761 13.1623 17.4629ZM3.98661 15.4239C4.16965 15.1097 6.39146 11.432 10.5658 10.0825C10.6714 10.0483 10.7778 10.0167 10.8845 9.987C10.6816 9.52635 10.4607 9.06725 10.2283 8.61285C6.18636 9.82272 2.26403 9.77265 1.9093 9.76479C1.90698 9.8471 1.90571 9.92975 1.90571 10.0121C1.90571 12.0913 2.69371 13.9891 3.98661 15.4239ZM2.07659 8.35468C2.43887 8.35924 5.77341 8.3731 9.55977 7.36872C8.21883 4.98422 6.77218 2.97972 6.55845 2.688C4.29413 3.75555 2.60117 5.84304 2.07659 8.35468ZM8.10323 2.14431C8.32713 2.44364 9.79712 4.44519 11.1236 6.88233C14.0023 5.80227 15.2201 4.16593 15.3653 3.95909C13.9362 2.68999 12.0565 1.91973 9.99994 1.91973C9.34669 1.91973 8.71177 1.99744 8.10323 2.14431ZM16.2653 4.89401C16.0951 5.12523 14.738 6.8639 11.7456 8.08463C11.934 8.47126 12.1144 8.86376 12.283 9.25765C12.342 9.39794 12.4002 9.53691 12.4569 9.67521C15.1503 9.33667 17.8262 9.87904 18.094 9.93634C18.0758 8.02602 17.3932 6.2718 16.2653 4.89401Z" fill="white"/>
</g>
</g>
<defs>
<clipPath id="clip0_1615_1224">
<rect width="20" height="20" fill="white"/>
</clipPath>
<clipPath id="clip1_1615_1224">
<rect width="20" height="20" fill="white"/>
</clipPath>
</defs>
</svg>
