<svg width="19" height="13" viewBox="0 0 19 13" fill="none" xmlns="http://www.w3.org/2000/svg">
<path d="M18.1692 2.78505C18.1692 2.78505 17.9899 1.51977 17.4379 0.964195C16.739 0.232984 15.9576 0.229399 15.5992 0.186387C13.0328 -1.0255e-07 9.17956 0 9.17956 0H9.17239C9.17239 0 5.3192 -1.0255e-07 2.75279 0.186387C2.39436 0.229399 1.61296 0.232984 0.914014 0.964195C0.362021 1.51977 0.186387 2.78505 0.186387 2.78505C0.186387 2.78505 0 4.27257 0 5.75649V7.14723C0 8.63115 0.182803 10.1187 0.182803 10.1187C0.182803 10.1187 0.362021 11.3839 0.910429 11.9395C1.60938 12.6707 2.52698 12.6456 2.9356 12.7245C4.40519 12.8643 9.17598 12.9073 9.17598 12.9073C9.17598 12.9073 13.0328 12.9001 15.5992 12.7173C15.9576 12.6743 16.739 12.6707 17.4379 11.9395C17.9899 11.3839 18.1692 10.1187 18.1692 10.1187C18.1692 10.1187 18.352 8.63474 18.352 7.14723V5.75649C18.352 4.27257 18.1692 2.78505 18.1692 2.78505ZM7.27985 8.83546V3.67756L12.237 6.26547L7.27985 8.83546Z" fill="#222222"/>
</svg>
