<svg width="30" height="31" viewBox="0 0 30 31" fill="none" xmlns="http://www.w3.org/2000/svg">
<g clip-path="url(#clip0_1096_215)">
<path d="M15 0C6.74062 0 0 6.96592 0 15.5C0 24.0347 6.74121 31 15 31C23.2594 31 30 24.0341 30 15.5C30 6.96531 23.2588 0 15 0ZM25.1742 6.75158C27.0469 9.07295 28.19 12.0428 28.2393 15.282C25.892 14.7147 23.2852 14.6766 20.6303 15.1767C19.9395 15.3069 19.2486 15.4721 18.5619 15.6707C18.3334 15.0283 18.0908 14.3914 17.833 13.7605C17.5699 13.1169 17.2922 12.4842 17.0016 11.8605C20.165 10.6121 23.5928 8.75326 25.1742 6.75158ZM15 1.81641C18.4465 1.81641 21.5889 3.18416 23.9473 5.42137C23.0273 6.71768 20.4059 8.60492 16.2 10.2324C14.7316 7.4073 12.9709 4.81105 10.9365 2.47637C12.2174 2.0483 13.5832 1.81641 15 1.81641ZM9.19629 3.20293C11.2711 5.49947 13.0559 8.06424 14.526 10.8349C10.1502 12.2983 5.71992 12.8953 2.07715 12.5096C2.96426 8.41359 5.6332 5.00541 9.19629 3.20293ZM1.75781 15.5C1.75781 15.098 1.77598 14.7002 1.80879 14.3072C2.6127 14.395 3.45117 14.4392 4.31777 14.4392C7.73555 14.4392 11.5752 13.7599 15.3457 12.4696C15.9211 13.6866 16.4385 14.9387 16.8949 16.2217C15.4248 16.7679 13.9939 17.4623 12.6504 18.2888C9.35625 20.3153 6.94629 22.9224 5.94668 25.4763C3.37031 22.9781 1.75781 19.4301 1.75781 15.5ZM15 29.1836C12.1705 29.1836 9.54551 28.2615 7.39102 26.6927C8.05898 24.3604 10.3184 21.8374 13.5498 19.8497C14.6883 19.1486 16.0195 18.488 17.4686 17.9509C18.4957 21.2871 19.125 24.8085 19.3248 28.4334C17.9689 28.919 16.5141 29.1836 15 29.1836ZM21.0393 27.676C20.7955 24.1449 20.1592 20.707 19.1379 17.4048C21.9855 16.5959 25.1484 16.3246 28.1479 17.1287C27.617 21.7309 24.8678 25.6398 21.0393 27.676Z" fill="white"/>
</g>
<defs>
<clipPath id="clip0_1096_215">
<rect width="30" height="31" fill="white"/>
</clipPath>
</defs>
</svg>
