<?xml version="1.0" encoding="UTF-8"?>
<svg id="Layer_1" xmlns="http://www.w3.org/2000/svg" version="1.1" viewBox="0 0 230 65">
  <!-- Generator: Adobe Illustrator 29.5.0, SVG Export Plug-In . SVG Version: 2.1.0 Build 137)  -->
  <path class="st0" fill="#171717" d="M14.813,53.909c-1.763,0-3.292-.628-4.545-1.866-1.241-1.257-1.868-2.778-1.868-4.524v-13.355h-3.71c-.592,0-1.111-.218-1.54-.649-.43-.414-.649-.933-.649-1.54,0-.649.218-1.176.649-1.606.431-.43.949-.648,1.54-.648h3.71v-6.736c0-.607.218-1.132.648-1.563.433-.417.95-.627,1.541-.627.656,0,1.174.21,1.602.625.434.432.652.957.652,1.565v6.736h3.71c.591,0,1.109.218,1.54.648.431.431.649.957.649,1.563,0,.651-.219,1.17-.652,1.587-.427.428-.945.646-1.537.646h-3.71v13.355c0,.543.186.994.57,1.377.384.384.842.57,1.399.57h1.741c.592,0,1.111.218,1.54.649.431.43.649.955.649,1.563,0,.65-.219,1.169-.652,1.586-.428.428-.946.646-1.537.646h-1.741Z"/>
  <path class="st0" fill="#171717" d="M43.31,53.909c-.591,0-1.109-.218-1.541-.648-.429-.415-.648-.935-.648-1.541v-.55c-2.203,1.818-4.774,2.739-7.651,2.739-3.323,0-6.2-1.193-8.551-3.544-2.352-2.351-3.545-5.228-3.545-8.551s1.193-6.199,3.545-8.551c2.352-2.351,5.228-3.544,8.551-3.544s6.198,1.193,8.551,3.544c2.351,2.353,3.544,5.229,3.544,8.551v9.905c0,.608-.219,1.127-.652,1.543-.428.428-.946.646-1.537.646h-.065ZM33.47,34.164c-2.11,0-3.936.756-5.427,2.246-1.476,1.489-2.225,3.308-2.225,5.404,0,2.11.749,3.936,2.225,5.427,1.489,1.475,3.316,2.224,5.427,2.224s3.928-.749,5.404-2.225c1.49-1.49,2.246-3.316,2.246-5.426,0-2.095-.756-3.914-2.246-5.404-1.477-1.492-3.295-2.246-5.404-2.246Z"/>
  <path class="st0" fill="#171717" d="M51.692,62.857c-.591,0-1.109-.218-1.54-.649-.431-.43-.649-.948-.649-1.54v-18.897c.015-3.322,1.215-6.192,3.567-8.528,2.337-2.337,5.206-3.523,8.528-3.523s6.198,1.193,8.551,3.544c2.351,2.353,3.544,5.229,3.544,8.551s-1.193,6.199-3.544,8.551c-2.352,2.351-5.228,3.544-8.551,3.544-2.89,0-5.462-.921-7.652-2.737v9.496c0,.593-.218,1.112-.648,1.54-.431.431-.949.649-1.54.649h-.066ZM61.598,34.12c-2.11,0-3.937.749-5.428,2.225-1.475,1.489-2.224,3.315-2.224,5.426,0,2.096.749,3.915,2.225,5.405,1.49,1.489,3.316,2.245,5.427,2.245s3.927-.755,5.404-2.245c1.49-1.492,2.246-3.31,2.246-5.405,0-2.109-.756-3.935-2.246-5.426-1.476-1.476-3.295-2.225-5.404-2.225Z"/>
  <path class="st0" fill="#171717" d="M88.419,53.909c-3.323,0-6.2-1.193-8.551-3.544-2.351-2.351-3.544-5.227-3.544-8.551s1.193-6.199,3.544-8.551c2.352-2.351,5.228-3.544,8.551-3.544,2.396,0,4.617.663,6.602,1.972,1.954,1.278,3.43,2.993,4.385,5.094.254.541.278,1.106.072,1.68-.209.561-.596.973-1.154,1.229-2.034.915-4.704,2.12-8.013,3.615l-7.743,3.503c1.498,1.803,3.466,2.717,5.851,2.717,1.645,0,3.157-.492,4.493-1.463,1.293-.941,2.214-2.181,2.734-3.687.352-.99,1.062-1.49,2.112-1.49.75,0,1.355.315,1.801.937.433.608.522,1.279.267,1.997-.823,2.381-2.284,4.333-4.342,5.803-2.1,1.513-4.478,2.281-7.065,2.281ZM88.419,34.207c-2.11,0-3.936.756-5.426,2.246-1.476,1.489-2.225,3.315-2.225,5.426,0,.288.015.572.048.849l13.272-5.997c-1.494-1.675-3.4-2.525-5.669-2.525Z"/>
  <path class="st0" fill="#171717" d="M114.913,53.909c-3.323,0-6.2-1.193-8.551-3.544-2.351-2.351-3.544-5.227-3.544-8.551s1.193-6.199,3.544-8.551c2.352-2.351,5.228-3.544,8.551-3.544,2.396,0,4.617.663,6.602,1.972,1.954,1.278,3.43,2.993,4.385,5.094.254.541.278,1.106.072,1.68-.209.561-.596.973-1.154,1.229-2.034.915-4.704,2.12-8.013,3.615l-7.743,3.503c1.498,1.803,3.466,2.717,5.851,2.717,1.645,0,3.157-.492,4.493-1.463,1.293-.941,2.214-2.181,2.734-3.687.352-.99,1.062-1.49,2.112-1.49.75,0,1.355.315,1.801.937.433.608.522,1.279.267,1.997-.823,2.381-2.284,4.333-4.342,5.803-2.1,1.513-4.478,2.281-7.065,2.281ZM114.913,34.207c-2.11,0-3.936.756-5.426,2.246-1.476,1.489-2.225,3.315-2.225,5.426,0,.288.015.572.048.849l13.272-5.997c-1.494-1.675-3.4-2.525-5.669-2.525Z"/>
  <path class="st0" fill="#171717" d="M167.998,53.909c-.591,0-1.109-.218-1.541-.648-.429-.415-.648-.935-.648-1.541v-.55c-2.203,1.818-4.774,2.739-7.651,2.739-3.323,0-6.2-1.193-8.551-3.544-2.352-2.351-3.545-5.228-3.545-8.551s1.193-6.199,3.545-8.551c2.352-2.351,5.228-3.544,8.551-3.544s6.198,1.193,8.551,3.544c2.351,2.353,3.544,5.229,3.544,8.551v9.905c0,.608-.219,1.127-.652,1.543-.428.428-.946.646-1.537.646h-.065ZM158.158,34.164c-2.11,0-3.936.756-5.427,2.246-1.476,1.489-2.225,3.308-2.225,5.404,0,2.11.749,3.936,2.225,5.427,1.489,1.475,3.316,2.224,5.427,2.224s3.928-.749,5.404-2.225c1.49-1.49,2.246-3.316,2.246-5.426,0-2.095-.756-3.914-2.246-5.404-1.477-1.492-3.295-2.246-5.404-2.246Z"/>
  <path class="st0" fill="#171717" d="M139.501,53.909c-1.763,0-3.292-.628-4.545-1.866-1.241-1.257-1.868-2.778-1.868-4.524v-13.355h-3.71c-.592,0-1.111-.218-1.54-.649-.43-.414-.649-.933-.649-1.54,0-.649.218-1.176.649-1.606.431-.43.949-.648,1.54-.648h3.71v-6.736c0-.607.218-1.132.648-1.563.433-.417.95-.627,1.541-.627.656,0,1.174.21,1.602.625.434.432.652.957.652,1.565v6.736h3.71c.591,0,1.109.218,1.54.648.431.431.649.957.649,1.563,0,.651-.219,1.17-.652,1.587-.427.428-.945.646-1.537.646h-3.71v13.355c0,.543.186.994.57,1.377.384.384.842.57,1.399.57h1.741c.592,0,1.111.218,1.54.649.431.43.649.955.649,1.563,0,.65-.219,1.169-.652,1.586-.428.428-.946.646-1.537.646h-1.741Z"/>
  <g>
    <path class="st0" fill="#171717" d="M225.316,36.825c-1.207,0-2.184-.978-2.184-2.185,0-15.51-12.618-28.127-28.127-28.127-1.207,0-2.184-.978-2.184-2.185s.977-2.185,2.184-2.185c17.918,0,32.496,14.578,32.496,32.497,0,1.207-.977,2.185-2.184,2.185Z"/>
    <path class="st0" fill="#171717" d="M214.912,36.825c-1.207,0-2.184-.978-2.184-2.185,0-9.773-7.951-17.723-17.723-17.723-1.207,0-2.184-.978-2.184-2.185s.977-2.185,2.184-2.185c12.182,0,22.092,9.911,22.092,22.093,0,1.207-.977,2.185-2.184,2.185Z"/>
    <path class="st0" fill="#171717" d="M204.508,36.825c-1.207,0-2.184-.978-2.184-2.185,0-4.036-3.284-7.319-7.319-7.319-1.207,0-2.184-.978-2.184-2.185s.977-2.185,2.184-2.185c6.446,0,11.688,5.244,11.688,11.689,0,1.207-.977,2.185-2.184,2.185Z"/>
  </g>
  <path class="st0" fill="#171717" d="M194.357,38.071c-.542.542-.745,1.319-.587,2.069.11.522.166,1.066.166,1.631,0,2.095-.756,3.914-2.246,5.405-1.477,1.49-3.295,2.245-5.404,2.245s-3.936-.756-5.427-2.245c-1.476-1.49-2.225-3.309-2.225-5.405,0-2.11.749-3.936,2.224-5.426,1.49-1.476,3.317-2.225,5.428-2.225.797,0,1.552.109,2.262.322.807.243,1.679.072,2.275-.523h0c1.153-1.153.714-3.161-.842-3.651-1.16-.365-2.394-.549-3.695-.549-3.322,0-6.192,1.186-8.528,3.523-2.352,2.337-3.552,5.206-3.567,8.528v18.897c0,.592.218,1.111.649,1.54.431.431.949.649,1.54.649h.066c.591,0,1.109-.218,1.54-.649.43-.429.648-.947.648-1.54v-9.496c2.189,1.816,4.761,2.737,7.65,2.737,3.356,0,6.596-1.432,8.884-3.887,2.132-2.287,3.212-5.045,3.212-8.207,0-.896-.089-1.758-.264-2.587-.37-1.746-2.497-2.418-3.759-1.156h0Z"/>
</svg>
