<?xml version="1.0" encoding="UTF-8"?>
<svg id="Layer_1" xmlns="http://www.w3.org/2000/svg" version="1.1" viewBox="0 0 225 60">
  <!-- Generator: Adobe Illustrator 29.5.0, SVG Export Plug-In . SVG Version: 2.1.0 Build 137)  -->
  <defs>
    <style>
      .st0 {
        fill: #171717;
      }
    </style>
  </defs>
  <path class="st0" d="M14.743,48.364c-1.753,0-3.273-.624-4.519-1.856-1.234-1.25-1.858-2.762-1.858-4.499v-13.279h-3.689c-.589,0-1.104-.217-1.532-.646-.427-.411-.646-.927-.646-1.532,0-.646.217-1.169.646-1.597.428-.427.944-.645,1.532-.645h3.689v-6.698c0-.603.217-1.125.645-1.554.43-.414.945-.623,1.533-.623.653,0,1.167.209,1.593.621.431.429.649.952.649,1.556v6.698h3.689c.588,0,1.103.217,1.532.645.428.428.646.952.646,1.554,0,.648-.218,1.164-.649,1.578-.424.425-.94.643-1.529.643h-3.689v13.279c0,.539.185.988.567,1.369.382.382.838.567,1.391.567h1.732c.589,0,1.104.217,1.532.646.428.427.646.95.646,1.554,0,.647-.218,1.163-.649,1.577-.425.425-.941.643-1.529.643h-1.732Z"/>
  <path class="st0" d="M43.079,48.364c-.588,0-1.103-.217-1.533-.645-.426-.412-.645-.929-.645-1.533v-.547c-2.19,1.807-4.747,2.724-7.607,2.724-3.305,0-6.165-1.186-8.502-3.524-2.339-2.338-3.525-5.199-3.525-8.502s1.186-6.164,3.525-8.502c2.339-2.338,5.199-3.524,8.502-3.524s6.163,1.186,8.502,3.524c2.338,2.34,3.524,5.2,3.524,8.502v9.849c0,.604-.218,1.12-.649,1.535-.425.425-.941.643-1.529.643h-.065ZM33.295,28.731c-2.098,0-3.914.752-5.396,2.234-1.468,1.481-2.212,3.289-2.212,5.374,0,2.098.745,3.914,2.212,5.396,1.481,1.467,3.297,2.211,5.396,2.211s3.906-.745,5.374-2.212c1.482-1.482,2.234-3.297,2.234-5.395,0-2.083-.752-3.891-2.234-5.374-1.469-1.483-3.276-2.234-5.374-2.234Z"/>
  <path class="st0" d="M51.412,57.261c-.588,0-1.103-.217-1.532-.646-.428-.427-.646-.943-.646-1.532v-18.79c.015-3.304,1.208-6.156,3.547-8.48,2.324-2.324,5.177-3.503,8.48-3.503s6.163,1.186,8.502,3.524c2.338,2.34,3.524,5.2,3.524,8.502s-1.186,6.164-3.524,8.502c-2.339,2.338-5.199,3.524-8.502,3.524-2.873,0-5.431-.915-7.608-2.722v9.442c0,.59-.217,1.105-.645,1.532-.428.428-.944.646-1.532.646h-.066ZM61.262,28.687c-2.098,0-3.915.745-5.397,2.212-1.467,1.481-2.211,3.296-2.211,5.395,0,2.084.745,3.893,2.212,5.375,1.482,1.481,3.297,2.233,5.396,2.233s3.905-.751,5.374-2.233c1.482-1.483,2.234-3.291,2.234-5.375,0-2.097-.752-3.913-2.234-5.395-1.468-1.468-3.276-2.212-5.374-2.212Z"/>
  <path class="st0" d="M87.931,48.364c-3.305,0-6.165-1.186-8.502-3.524s-3.524-5.198-3.524-8.502,1.186-6.164,3.524-8.502c2.339-2.338,5.199-3.524,8.502-3.524,2.382,0,4.591.66,6.565,1.961,1.943,1.271,3.411,2.976,4.36,5.065.253.537.277,1.1.072,1.671-.208.558-.593.968-1.148,1.222-2.023.91-4.677,2.108-7.968,3.594l-7.699,3.483c1.489,1.793,3.446,2.701,5.818,2.701,1.636,0,3.139-.489,4.467-1.455,1.286-.935,2.201-2.169,2.719-3.666.35-.984,1.056-1.482,2.1-1.482.746,0,1.348.313,1.791.931.43.604.519,1.272.266,1.986-.818,2.367-2.271,4.309-4.318,5.771-2.088,1.504-4.452,2.268-7.025,2.268ZM87.931,28.774c-2.098,0-3.914.752-5.395,2.234-1.468,1.481-2.212,3.296-2.212,5.395,0,.286.015.569.047.845l13.197-5.963c-1.485-1.666-3.38-2.51-5.637-2.51Z"/>
  <path class="st0" d="M114.276,48.364c-3.305,0-6.165-1.186-8.502-3.524s-3.524-5.198-3.524-8.502,1.186-6.164,3.524-8.502c2.339-2.338,5.199-3.524,8.502-3.524,2.382,0,4.591.66,6.565,1.961,1.943,1.271,3.411,2.976,4.36,5.065.253.537.277,1.1.072,1.671-.208.558-.593.968-1.148,1.222-2.023.91-4.677,2.108-7.968,3.594l-7.699,3.483c1.489,1.793,3.446,2.701,5.818,2.701,1.636,0,3.139-.489,4.467-1.455,1.286-.935,2.201-2.169,2.719-3.666.35-.984,1.056-1.482,2.1-1.482.746,0,1.348.313,1.791.931.43.604.519,1.272.266,1.986-.818,2.367-2.271,4.309-4.318,5.771-2.088,1.504-4.452,2.268-7.025,2.268ZM114.276,28.774c-2.098,0-3.914.752-5.395,2.234-1.468,1.481-2.212,3.296-2.212,5.395,0,.286.015.569.047.845l13.197-5.963c-1.485-1.666-3.38-2.51-5.637-2.51Z"/>
  <path class="st0" d="M167.059,48.364c-.588,0-1.103-.217-1.533-.645-.426-.412-.645-.929-.645-1.533v-.547c-2.19,1.807-4.747,2.724-7.607,2.724-3.305,0-6.165-1.186-8.502-3.524-2.339-2.338-3.525-5.199-3.525-8.502s1.186-6.164,3.525-8.502c2.339-2.338,5.199-3.524,8.502-3.524s6.163,1.186,8.502,3.524c2.338,2.34,3.524,5.2,3.524,8.502v9.849c0,.604-.218,1.12-.649,1.535-.425.425-.941.643-1.529.643h-.065ZM157.275,28.731c-2.098,0-3.914.752-5.396,2.234-1.468,1.481-2.212,3.289-2.212,5.374,0,2.098.745,3.914,2.212,5.396,1.481,1.467,3.297,2.211,5.396,2.211s3.906-.745,5.374-2.212c1.482-1.482,2.234-3.297,2.234-5.395,0-2.083-.752-3.891-2.234-5.374-1.469-1.483-3.276-2.234-5.374-2.234Z"/>
  <path class="st0" d="M138.724,48.364c-1.753,0-3.273-.624-4.519-1.856-1.234-1.25-1.858-2.762-1.858-4.499v-13.279h-3.689c-.589,0-1.104-.217-1.532-.646-.427-.411-.646-.927-.646-1.532,0-.646.217-1.169.646-1.597.428-.427.944-.645,1.532-.645h3.689v-6.698c0-.603.217-1.125.645-1.554.43-.414.945-.623,1.533-.623.653,0,1.167.209,1.593.621.431.429.649.952.649,1.556v6.698h3.689c.588,0,1.103.217,1.532.645.428.428.646.952.646,1.554,0,.648-.218,1.164-.649,1.578-.424.425-.94.643-1.529.643h-3.689v13.279c0,.539.185.988.567,1.369.382.382.838.567,1.391.567h1.732c.589,0,1.104.217,1.532.646.428.427.646.95.646,1.554,0,.647-.218,1.163-.649,1.577-.425.425-.941.643-1.529.643h-1.732Z"/>
  <path class="st0" d="M219.169,42.296c-.203,0-.406-.03-.602-.09-1.093-.337-1.712-1.499-1.381-2.589,2.048-6.715,1.381-13.813-1.879-19.989-3.258-6.174-8.743-10.733-15.445-12.839-.526-.165-.957-.524-1.212-1.013-.259-.493-.309-1.057-.141-1.587.16-.52.516-.95,1.004-1.207.301-.159.636-.242.971-.242.211,0,.421.032.624.097,7.748,2.433,14.091,7.709,17.864,14.857,3.773,7.15,4.549,15.365,2.185,23.134-.17.535-.531.97-1.018,1.227-.3.159-.635.242-.97.242Z"/>
  <path class="st0" d="M210.827,39.712c-.212,0-.422-.033-.627-.098-.527-.165-.96-.526-1.216-1.017-.255-.492-.303-1.054-.137-1.581,1.398-4.432.959-9.165-1.238-13.327-2.197-4.162-5.856-7.196-10.305-8.543-.531-.162-.967-.519-1.226-1.006-.261-.486-.316-1.047-.156-1.577.163-.534.524-.973,1.017-1.233.298-.158.631-.24.965-.24.203,0,.405.03.602.09,5.517,1.671,10.052,5.426,12.769,10.573,2.717,5.148,3.258,11.011,1.523,16.51-.164.523-.522.953-1.008,1.209-.298.158-.63.24-.963.24Z"/>
  <path class="st0" d="M202.532,37.15c-.207,0-.413-.031-.614-.093-.529-.166-.964-.526-1.222-1.015-.259-.491-.31-1.051-.144-1.576.684-2.199.451-4.646-.639-6.713-1.105-2.094-2.946-3.629-5.184-4.32-.529-.164-.963-.522-1.22-1.012-.259-.489-.311-1.05-.147-1.58.163-.528.522-.962,1.012-1.22.299-.158.632-.24.966-.24.207,0,.414.031.615.093,3.295,1.019,6.003,3.272,7.624,6.344,1.598,3.03,1.939,6.627.933,9.872-.164.528-.524.962-1.013,1.22-.299.158-.632.24-.966.24Z"/>
  <path class="st0" d="M175.393,57.261c-.588,0-1.103-.217-1.532-.646-.428-.427-.646-.943-.646-1.532v-18.79c.015-3.304,1.208-6.156,3.547-8.48,2.324-2.324,5.177-3.503,8.48-3.503,1.867,0,3.609.386,5.178,1.146.592.286,1.018.819,1.17,1.462.154.649.009,1.322-.396,1.849-.416.54-1.065.864-1.734.864-.314,0-.616-.07-.897-.207-.999-.49-2.116-.737-3.321-.737-2.098,0-3.915.745-5.397,2.212-1.467,1.481-2.211,3.296-2.211,5.395,0,2.084.745,3.893,2.212,5.375,1.482,1.481,3.297,2.233,5.396,2.233s3.905-.751,5.374-2.233c1.482-1.483,2.234-3.291,2.234-5.375,0-.318-.022-.628-.057-.932l-.02-.188.01-.002c-.004-.031-.008-.064-.013-.095-.183-.978.38-1.969,1.338-2.357.264-.107.54-.161.823-.161,1.063,0,1.97.755,2.159,1.794.015.084.025.171.033.259l.046.191c.032.27.057.541.074.816l.005.118c.01.199.02.397.02.6,0,.076-.016.381-.016.381-.007.185-.011.308-.02.432-.095,1.566-.473,3.043-1.124,4.387l-.081.173c-.088.173-.152.297-.219.42-.025.043-.536.88-.806,1.234-.411.558-.822,1.041-1.255,1.474-2.204,2.204-5.118,3.456-8.206,3.523l-.294.003c-2.875,0-5.433-.915-7.612-2.722v9.442c0,.59-.217,1.105-.645,1.532-.428.428-.944.646-1.532.646h-.066Z"/>
</svg>