<svg width="22" height="22" viewBox="0 0 22 22" fill="none" xmlns="http://www.w3.org/2000/svg">
<path d="M17.75 2.25403H17.5V1.00403C17.5 0.594028 17.16 0.254028 16.75 0.254028C16.34 0.254028 16 0.594028 16 1.00403V2.25403H11.5V1.00403C11.5 0.594028 11.16 0.254028 10.75 0.254028C10.34 0.254028 10 0.594028 10 1.00403V2.25403H5.5V1.00403C5.5 0.594028 5.16 0.254028 4.75 0.254028C4.34 0.254028 4 0.594028 4 1.00403V2.25403H3.75C1.68 2.25403 0 3.93403 0 6.00403V18.004C0 20.074 1.68 21.754 3.75 21.754H17.75C19.82 21.754 21.5 20.074 21.5 18.004V6.00403C21.5 3.93403 19.82 2.25403 17.75 2.25403ZM3.75 3.75403H4V5.00403C4 5.41403 4.34 5.75403 4.75 5.75403C5.16 5.75403 5.5 5.41403 5.5 5.00403V3.75403H10V5.00403C10 5.41403 10.34 5.75403 10.75 5.75403C11.16 5.75403 11.5 5.41403 11.5 5.00403V3.75403H16V5.00403C16 5.41403 16.34 5.75403 16.75 5.75403C17.16 5.75403 17.5 5.41403 17.5 5.00403V3.75403H17.75C18.99 3.75403 20 4.76403 20 6.00403V8.25403H1.5V6.00403C1.5 4.76403 2.51 3.75403 3.75 3.75403ZM17.75 20.254H3.75C2.51 20.254 1.5 19.244 1.5 18.004V9.75403H20V18.004C20 19.244 18.99 20.254 17.75 20.254Z" fill="#222222"/>
</svg>
