<svg width="18" height="26" viewBox="0 0 18 26" fill="none" xmlns="http://www.w3.org/2000/svg">
<path fill-rule="evenodd" clip-rule="evenodd" d="M0 5.08696C0 2.27751 2.26656 0 5.0625 0H12.9375C15.7335 0 18 2.27751 18 5.08696C18 6.68497 17.2667 8.11089 16.1198 9.04348C17.2667 9.97606 18 11.402 18 13C18 15.8095 15.7335 18.087 12.9375 18.087C11.8968 18.087 10.9294 17.7715 10.125 17.2303V20.913C10.125 23.7225 7.85846 26 5.0625 26C2.26656 26 0 23.7225 0 20.913C0 19.3151 0.733309 17.8891 1.88026 16.9565C0.733309 16.0239 0 14.598 0 13C0 11.402 0.733309 9.97606 1.88025 9.04348C0.733309 8.11089 0 6.68497 0 5.08696ZM5.0625 7.91304H7.875V2.26087H5.0625C3.5092 2.26087 2.25 3.52615 2.25 5.08696C2.25 6.64776 3.5092 7.91304 5.0625 7.91304ZM10.125 2.26087V7.91304H12.9375C14.4908 7.91304 15.75 6.64776 15.75 5.08696C15.75 3.52615 14.4908 2.26087 12.9375 2.26087H10.125ZM7.875 10.1739H5.0625C3.5092 10.1739 2.25 11.4392 2.25 13C2.25 14.5608 3.5092 15.8261 5.0625 15.8261H7.875V10.1739ZM7.875 18.087H5.0625C3.5092 18.087 2.25 19.3523 2.25 20.913C2.25 22.4738 3.5092 23.7391 5.0625 23.7391C6.6158 23.7391 7.875 22.4738 7.875 20.913V18.087ZM12.9375 10.1739C11.3842 10.1739 10.125 11.4392 10.125 13C10.125 14.5608 11.3842 15.8261 12.9375 15.8261C14.4908 15.8261 15.75 14.5608 15.75 13C15.75 11.4392 14.4908 10.1739 12.9375 10.1739Z" fill="white"/>
</svg>
