<svg width="30" height="31" viewBox="0 0 30 31" fill="none" xmlns="http://www.w3.org/2000/svg">
<g clip-path="url(#clip0_1078_209)">
<path d="M12.3423 14.57C12.9648 14.2464 13.4355 13.886 13.758 13.4965C14.3318 12.7951 14.6149 11.865 14.6149 10.7121C14.6149 9.5902 14.3318 8.63106 13.7655 7.82693C12.8204 6.51708 11.2209 5.84665 8.95948 5.81177H0V24.7098H8.35381C9.29514 24.7098 10.1671 24.6264 10.9734 24.4559C11.7797 24.2835 12.4773 23.9676 13.0679 23.5065C13.593 23.1054 14.0318 22.6074 14.3806 22.0203C14.9318 21.1328 15.2075 20.1272 15.2075 19.0072C15.2075 17.9221 14.9656 16.9979 14.4856 16.2383C13.9999 15.4787 13.2873 14.9226 12.3423 14.57ZM3.69593 9.09416H7.73126C8.61821 9.09416 9.34952 9.19298 9.92331 9.38869C10.5871 9.67352 10.919 10.2529 10.919 11.1365C10.919 11.929 10.6659 12.4831 10.1652 12.7951C9.66079 13.1071 9.00636 13.264 8.2038 13.264H3.69593V9.09416ZM10.0771 21.098C9.63079 21.3208 9.00261 21.4312 8.19817 21.4312H3.69593V16.3914H8.26005C9.05512 16.3972 9.67392 16.5057 10.1165 16.7092C10.904 17.0773 11.2959 17.7516 11.2959 18.7379C11.2959 19.9005 10.8909 20.6833 10.0771 21.098Z" fill="white"/>
<path d="M27.1164 6.69336H19.1714V9.04568H27.1164V6.69336Z" fill="white"/>
<path d="M29.8766 15.9767C29.7116 14.8819 29.3478 13.9189 28.7815 13.0877C28.1609 12.146 27.3733 11.4561 26.4151 11.0202C25.4606 10.5823 24.3862 10.3633 23.1898 10.3652C21.1815 10.3652 19.5502 11.0144 18.2882 12.3029C17.03 13.5953 16.3999 15.4535 16.3999 17.8756C16.3999 20.4585 17.0956 22.3245 18.4944 23.4696C19.8877 24.6167 21.4966 25.1883 23.323 25.1883C25.5338 25.1883 27.2533 24.5082 28.4815 23.1519C29.2672 22.2954 29.7116 21.4525 29.8091 20.6252H26.1488C25.9369 21.034 25.6913 21.3537 25.41 21.5862C24.9 22.0125 24.2362 22.2257 23.4224 22.2257C22.6479 22.2257 21.9916 22.0493 21.4441 21.6986C20.5402 21.1367 20.0677 20.1524 20.0077 18.7514H29.9966C30.0116 17.5443 29.9741 16.6161 29.8766 15.9767ZM20.0977 16.339C20.229 15.4303 20.5477 14.7095 21.054 14.1766C21.5603 13.6457 22.2766 13.3783 23.1936 13.3764C24.0393 13.3764 24.7462 13.6263 25.3219 14.1282C25.8901 14.6339 26.2107 15.3683 26.2763 16.339H20.0977Z" fill="white"/>
</g>
<defs>
<clipPath id="clip0_1078_209">
<rect width="30" height="31" fill="white"/>
</clipPath>
</defs>
</svg>
