<svg width="30" height="31" viewBox="0 0 30 31" fill="none" xmlns="http://www.w3.org/2000/svg">
<path d="M21.25 4.52075H8.75C5 4.52075 2.5 6.45825 2.5 10.9791V20.0208C2.5 24.5416 5 26.4791 8.75 26.4791H21.25C25 26.4791 27.5 24.5416 27.5 20.0208V10.9791C27.5 6.45825 25 4.52075 21.25 4.52075ZM21.8375 12.387L17.925 15.6162C17.1 16.3008 16.05 16.6366 15 16.6366C13.95 16.6366 12.8875 16.3008 12.075 15.6162L8.1625 12.387C7.7625 12.0512 7.7 11.4312 8.0125 11.0178C8.3375 10.6045 8.925 10.527 9.325 10.8628L13.2375 14.092C14.1875 14.8799 15.8 14.8799 16.75 14.092L20.6625 10.8628C21.0625 10.527 21.6625 10.5916 21.975 11.0178C22.3 11.4312 22.2375 12.0512 21.8375 12.387Z" fill="white"/>
</svg>
