 <svg width="24" height="24" viewBox="0 0 682 682" fill="none" xmlns="http://www.w3.org/2000/svg">
    <path opacity="0.25" d="M308.826 2.95819L308.821 2.95862C202.611 13.978 109.557 71.724 53.0033 161.731L51.9077 161.043L53.0032 161.732C-27.1728 289.296 -12.0346 458.686 89.3705 568.984C145.799 630.325 215.615 666.83 299.545 678.782L299.545 678.782C307.357 679.898 324.32 680.433 341.464 680.4C358.603 680.367 375.708 679.765 383.795 678.647C466.386 667.228 536.201 630.859 592.497 569.783L592.498 569.782C638.809 519.623 668.422 455.377 678.782 383.12L678.782 383.119C679.898 375.374 680.467 358.41 680.467 341.333C680.467 324.256 679.898 307.292 678.782 299.547L678.781 299.544C670.944 244.286 653.42 197.433 624.35 153.629L624.346 153.624C612.139 135.047 599.804 119.924 582.535 102.523L582.533 102.521C529.565 48.8887 463.997 15.837 388.448 4.6839C380.348 3.49878 364.498 2.63287 348.584 2.2829C332.666 1.93292 316.853 2.10278 308.826 2.95819ZM313.502 212.883L313.504 212.885C327.302 233.016 339.934 251.314 349.165 264.594C353.781 271.234 357.545 276.618 360.179 280.349C361.497 282.216 362.529 283.664 363.243 284.648C363.279 284.698 363.315 284.747 363.349 284.795C363.407 284.733 363.466 284.668 363.528 284.601C364.409 283.644 365.691 282.22 367.333 280.372C370.616 276.679 375.321 271.321 381.103 264.697C392.667 251.45 408.532 233.152 425.932 213.019L488.996 139.689L489.431 139.183L490.098 139.167L507.165 138.767L507.172 138.767L507.18 138.767C512.19 138.7 516.428 138.733 519.394 138.885C520.865 138.961 522.08 139.069 522.933 139.221C523.338 139.294 523.779 139.396 524.142 139.564C524.312 139.643 524.614 139.803 524.861 140.105C525.162 140.471 525.351 141.027 525.172 141.624C525.127 141.779 525.07 141.89 525.052 141.926L525.05 141.929C525.013 142.001 524.975 142.065 524.945 142.112C524.923 142.147 524.899 142.183 524.875 142.22C524.832 142.284 524.785 142.35 524.739 142.415C524.589 142.622 524.383 142.892 524.131 143.211C523.624 143.855 522.892 144.754 521.966 145.873C520.112 148.114 517.452 151.27 514.193 155.105C507.673 162.775 498.737 173.178 489.004 184.445C480.079 194.836 468.41 208.421 456.435 222.362C442.287 238.831 427.714 255.796 416.738 268.577L416.736 268.58L380.557 310.505L450.703 412.751C489.647 469.432 525.363 521.408 530.151 528.057L530.16 528.07L530.169 528.083L538.702 540.483L540.32 542.833H537.467H478.933H420.4H419.61L419.163 542.182L366.097 464.849C366.097 464.849 366.096 464.849 366.096 464.849C351.498 443.584 338.134 424.254 328.37 410.258C323.487 403.26 319.507 397.598 316.725 393.696C315.332 391.744 314.244 390.239 313.494 389.229C313.451 389.171 313.41 389.115 313.369 389.061C313.279 389.161 313.182 389.267 313.081 389.379C312.155 390.402 310.808 391.915 309.085 393.869C305.641 397.775 300.707 403.426 294.649 410.4C282.535 424.348 265.937 443.579 247.805 464.71L247.804 464.711L181.671 541.645L181.235 542.151L180.567 542.166L162.967 542.566L145.367 542.966L142.001 543.043L144.196 540.489L220.729 451.422L220.73 451.422L296.505 363.369L292.912 358.205C287.879 351.332 150.084 150.564 146.077 144.419L146.07 144.409L146.064 144.399L143.797 140.799L142.342 138.488L145.073 138.5L203.473 138.767L203.477 138.767L262.01 139.167L262.792 139.172L263.236 139.816L313.502 212.883Z" fill="black" stroke="black" stroke-width="3"/>
    <path  d="M315.762 340.74L315.763 340.741L437.723 515.179L463.081 515.567C463.082 515.567 463.084 515.567 463.085 515.567C470.273 515.633 476.82 515.6 481.563 515.484C483.756 515.43 485.548 515.359 486.833 515.274C486.493 514.766 486.084 514.159 485.607 513.455C483.981 511.058 481.581 507.56 478.49 503.079C472.309 494.117 463.368 481.231 452.335 465.373C430.27 433.658 399.837 390.059 366.371 342.193L245.077 168.822L218.918 168.433L218.911 168.433L195.034 168.196L315.762 340.74Z" fill="black" stroke="black" stroke-width="3"/>
</svg>
