<?xml version="1.0" encoding="UTF-8"?>
<svg id="Layer_1" xmlns="http://www.w3.org/2000/svg" version="1.1" viewBox="0 0 32 32">
  <!-- Generator: Adobe Illustrator 29.4.0, SVG Export Plug-In . SVG Version: 2.1.0 Build 152)  -->
  <defs>
    <style>
      .st0 {
        fill: #0a090a;
      }

      .st1 {
        fill: #fff;
      }
    </style>
  </defs>
  <g id="Location_Button">
    <circle class="st0" cx="16" cy="16" r="16" transform="translate(-6.6 16) rotate(-45)"/>
  </g>
  <path id="Location_Icon" class="st1" d="M16,8.1c-2.9,0-5.3,2.3-5.3,5.2s.5,2.4.8,3.1c.8,1.9,4.1,6.8,4.5,7.4h0s0,0,0,0c0,0,0,0,0,0h0c.4-.6,3.7-5.5,4.5-7.4.3-.7.8-1.8.8-3.1,0-2.9-2.4-5.2-5.3-5.2ZM16,17.1c-2,0-3.6-1.6-3.6-3.6s1.6-3.6,3.6-3.6,3.6,1.6,3.6,3.6-1.6,3.6-3.6,3.6Z"/>
</svg>