<?xml version="1.0" encoding="UTF-8"?>
<svg id="Layer_1" xmlns="http://www.w3.org/2000/svg" version="1.1" viewBox="0 0 32 32">
  <!-- Generator: Adobe Illustrator 29.4.0, SVG Export Plug-In . SVG Version: 2.1.0 Build 152)  -->
  <defs>
    <style>
      .st0 {
        fill: #2a2d34;
      }
    </style>
  </defs>
  <g id="Layer">
    <path class="st0" d="M28.6,6.9h-4.8l-.5-2c-.4-1.5-1.8-2.6-3.3-2.6h-7.9c-1.6,0-2.9,1.1-3.3,2.6l-.5,2H3.4c-1.9,0-3.4,1.5-3.4,3.4v16c0,1.9,1.5,3.4,3.4,3.4h25.1c1.9,0,3.4-1.5,3.4-3.4V10.3c0-1.9-1.5-3.4-3.4-3.4ZM29.7,26.3c0,.6-.5,1.1-1.1,1.1H3.4c-.6,0-1.1-.5-1.1-1.1V10.3c0-.6.5-1.1,1.1-1.1h5.7c.5,0,1-.3,1.1-.9l.7-2.8c.1-.5.6-.9,1.1-.9h7.9c.5,0,1,.3,1.1.9l.6,2.8c.1.5.6.9,1.1.9h5.7c.6,0,1.1.5,1.1,1.1v16ZM16,11.4c-3.8,0-6.9,3.1-6.9,6.9s3.1,6.9,6.9,6.9,6.9-3.1,6.9-6.9-3.1-6.9-6.9-6.9ZM16,22.9c-2.5,0-4.6-2-4.6-4.6s2-4.6,4.6-4.6,4.6,2,4.6,4.6-2,4.6-4.6,4.6ZM12.6,8c0-.6.5-1.1,1.1-1.1h4.6c.6,0,1.1.5,1.1,1.1s-.5,1.1-1.1,1.1h-4.6c-.6,0-1.1-.5-1.1-1.1Z"/>
  </g>
</svg>