<?xml version="1.0" encoding="UTF-8"?>
<svg id="Layer_2" data-name="Layer 2" xmlns="http://www.w3.org/2000/svg" viewBox="0 0 13.72 13.72">
  <g id="Layer_1-2" data-name="Layer 1">
    <g>
      <path class="st2" fill="#fff" d="M13.02,13.72c-.18,0-.36-.07-.5-.21L.21,1.2C-.07.92-.07.48.21.21S.92-.07,1.2.21l12.32,12.32c.27.27.27.72,0,.99-.14.14-.32.21-.5.21Z"/>
      <path class="st2" fill="#fff" d="M.7,13.72c-.18,0-.36-.07-.5-.21-.27-.27-.27-.72,0-.99L12.52.21c.27-.27.72-.27.99,0s.27.72,0,.99L1.2,13.51c-.14.14-.32.21-.5.21Z"/>
    </g>
  </g>
</svg>
