<?xml version="1.0" encoding="UTF-8"?>
<svg id="Layer_1" xmlns="http://www.w3.org/2000/svg" version="1.1" viewBox="0 0 32 32">
  <!-- Generator: Adobe Illustrator 29.4.0, SVG Export Plug-In . SVG Version: 2.1.0 Build 152)  -->
  <defs>
    <style>
      .st0 {
        fill: #0a090a;
      }

      .st1 {
        fill: #fff;
      }
    </style>
  </defs>
  <circle id="Phone_Button" class="st0" cx="16" cy="16" r="16" transform="translate(-3.2 4.1) rotate(-13.3)"/>
  <path id="Phone_Icon" class="st1" d="M12.5,9.2c.1,0,.3,0,.4,0,.1,0,.2.2.3.3l1.3,3c0,.1,0,.3,0,.4,0,.1-.1.3-.2.4l-1.6,1.3c.5,1,1.1,1.9,1.9,2.8.8.8,1.7,1.5,2.8,1.9l1.3-1.6c.1-.1.2-.2.4-.2.1,0,.3,0,.4,0l3,1.3c.1,0,.2.2.3.3,0,.1,0,.3,0,.4l-.6,2.8c0,.2,0,.3-.2.4-.1,0-.3.1-.4.1-2.2,0-4.3-.6-6.2-1.7-1.9-1.1-3.3-2.6-4.4-4.4-1.1-1.9-1.7-4-1.7-6.2s0-.3.1-.4c0-.1.2-.2.4-.2l2.8-.6Z"/>
</svg>