<?xml version="1.0" encoding="UTF-8"?>
<svg id="Layer_1" xmlns="http://www.w3.org/2000/svg" version="1.1" viewBox="0 0 32 32">
  <!-- Generator: Adobe Illustrator 29.4.0, SVG Export Plug-In . SVG Version: 2.1.0 Build 152)  -->
  <defs>
    <style>
      .st0 {
        fill: #231f20;
      }
    </style>
  </defs>
  <path class="st0" d="M16,25.1l-8-8.1c-.6-.6-.5-1.5,0-2,.6-.6,1.5-.5,2,0l5.9,6,5.9-6c.6-.6,1.5-.6,2,0,.6.6.6,1.5,0,2l-8,8.1Z"/>
  <path class="st0" d="M16,24.5c-.8,0-1.4-.6-1.4-1.4V1.4C14.6.6,15.2,0,16,0s1.4.6,1.4,1.4v21.7c0,.8-.6,1.4-1.4,1.4Z"/>
  <path class="st0" d="M16,32c-8.8,0-16-7.2-16-16S2.8,5.5,7.4,2.5c.7-.4,1.5-.2,2,.4.4.7.2,1.5-.4,2-3.8,2.4-6.1,6.6-6.1,11.1,0,7.3,5.9,13.2,13.2,13.2s13.2-5.9,13.2-13.2-2.3-8.6-6.1-11.1c-.7-.4-.9-1.3-.4-2,.4-.7,1.3-.9,2-.4,4.6,3,7.4,8,7.4,13.5,0,8.8-7.2,16-16,16Z"/>
</svg>