<?xml version="1.0" encoding="UTF-8"?>
<svg id="Layer_1" xmlns="http://www.w3.org/2000/svg" version="1.1" viewBox="0 0 32 32">
  <!-- Generator: Adobe Illustrator 29.4.0, SVG Export Plug-In . SVG Version: 2.1.0 Build 152)  -->
  <defs>
    <style>
      .st0 {
        fill: #231f20;
      }
    </style>
  </defs>
  <g>
    <path class="st0" d="M16,28.2c-.9,0-1.8,0-2.6-.3-.6-.1-1-.7-.8-1.3.1-.6.7-1,1.3-.8,3.4.7,6.8-.3,9.2-2.7,2.4-2.4,3.4-5.9,2.7-9.2l2.1-.5c.9,4.1-.3,8.3-3.3,11.2-2.3,2.3-5.4,3.6-8.6,3.6Z"/>
    <path class="st0" d="M23,18.4c-.3,0-.5,0-.7-.3-.4-.4-.5-1.1,0-1.5l4.6-4.9,4.8,4.6c.4.4.4,1.1,0,1.5-.4.4-1.1.4-1.5,0l-3.3-3.1-3.1,3.3c-.2.2-.5.3-.8.3Z"/>
  </g>
  <g>
    <path class="st0" d="M5.2,19.5c-.5,0-.9-.3-1.1-.9-.9-4.1.3-8.3,3.3-11.2,2.9-2.9,7.1-4.2,11.2-3.3.6.1,1,.7.8,1.3-.1.6-.7,1-1.3.8-3.4-.7-6.8.3-9.2,2.7-2.4,2.4-3.4,5.9-2.7,9.2.1.6-.2,1.2-.8,1.3,0,0-.2,0-.2,0Z"/>
    <path class="st0" d="M5.2,20.3L.3,15.7c-.4-.4-.4-1.1,0-1.5.4-.4,1.1-.4,1.5,0l3.3,3.1,3.1-3.3c.4-.4,1.1-.5,1.5,0,.4.4.5,1.1,0,1.5l-4.6,4.9Z"/>
  </g>
</svg>