<?xml version="1.0" encoding="UTF-8"?>
<svg id="Layer_1" xmlns="http://www.w3.org/2000/svg" version="1.1" viewBox="0 0 32 32">
  <!-- Generator: Adobe Illustrator 29.4.0, SVG Export Plug-In . SVG Version: 2.1.0 Build 152)  -->
  <path class="st2" fill="#FFFFFF" d="M16,32C7.2,32,0,24.8,0,16S7.2,0,16,0s16,7.2,16,16-7.2,16-16,16ZM16,.9C7.7.9.9,7.7.9,16s6.8,15.1,15.1,15.1,15.1-6.8,15.1-15.1S24.3.9,16,.9Z"/>
  <path class="st2" fill="#FFFFFF" d="M19.7,22.9h-6.9c-1.9,0-3.5-1.6-3.5-3.5v-6.9c0-1.9,1.6-3.5,3.5-3.5h1.6c.4,0,.6.3.6.6s-.3.6-.6.6h-1.6c-1.2,0-2.2,1-2.2,2.2v6.9c0,1.2,1,2.2,2.2,2.2h6.9c1.2,0,2.2-1,2.2-2.2v-.9c0-.4.3-.6.6-.6s.6.3.6.6v.9c0,1.9-1.6,3.5-3.5,3.5ZM13.9,18.5c-.3,0-.5-.2-.6-.4-.1-.4-.2-.9-.2-1.4,0-2.8,2.3-5,5-5h1.3v-1.9c0-.3.1-.5.4-.6.3-.1.5,0,.7.1l3.8,3.8c.3.3.3.6,0,.9l-3.8,3.8c-.2.2-.4.3-.7.1-.3,0-.4-.3-.4-.6v-1.9h-1.3c-1.7,0-3.2,1.1-3.7,2.7,0,.3-.3.4-.6.4ZM18.1,14.1h1.9c.4,0,.6.3.6.6v1l2.3-2.3-2.3-2.3v1c0,.4-.3.6-.6.6h-1.9c-1.8,0-3.2,1.2-3.7,2.8.9-1,2.2-1.6,3.7-1.6Z"/>
</svg>
