<?xml version="1.0" encoding="UTF-8"?>
<svg id="Layer_1" xmlns="http://www.w3.org/2000/svg" version="1.1" viewBox="0 0 32 32">
  <!-- Generator: Adobe Illustrator 29.4.0, SVG Export Plug-In . SVG Version: 2.1.0 Build 152)  -->
  <defs>
    <style>
      .st0 {
        fill: #0a090a;
      }
    </style>
  </defs>
  <path id="video" class="st0" d="M30.7,7.4c-.8-.4-1.7-.3-2.4.3l-3.8,3v-.7c.3-2.8-1.7-5.3-4.4-5.6-.4,0-.8,0-1.2,0H5.6C2.8,4.2.4,6.1,0,8.9c0,.4,0,.8,0,1.2v11.9c-.3,2.8,1.7,5.3,4.4,5.6.4,0,.8,0,1.2,0h13.4c2.8.3,5.3-1.7,5.6-4.4,0-.4,0-.8,0-1.2v-.7l3.8,3c.4.3.9.5,1.4.5.3,0,.7,0,1-.2.8-.4,1.3-1.2,1.3-2v-13.2c0-.9-.5-1.6-1.3-2h0ZM22.3,21.9c0,2.3-1,3.3-3.3,3.3H5.6c-2.3,0-3.3-1-3.3-3.3v-11.9c0-2.3,1-3.3,3.3-3.3h13.4c2.3,0,3.3,1,3.3,3.3v11.9ZM29.8,22.6l-5.2-4.2v-4.9l5.2-4.2v13.2Z"/>
</svg>