<?xml version="1.0" encoding="UTF-8"?>
<svg id="Layer_1" xmlns="http://www.w3.org/2000/svg" version="1.1" viewBox="0 0 32 32">
  <!-- Generator: Adobe Illustrator 29.4.0, SVG Export Plug-In . SVG Version: 2.1.0 Build 152)  -->
  <circle id="Website_Button" class="st0" fill="#171717" cx="16" cy="16" r="16" transform="translate(-2.4 2.8) rotate(-9.2)"/>
  <path id="Website_Icon" class="st1" fill="#fff" d="M16,8.3c-4.2,0-7.7,3.4-7.7,7.7s3.4,7.7,7.7,7.7,7.7-3.4,7.7-7.7-3.4-7.7-7.7-7.7ZM15.4,12.2c-.6,0-1.1,0-1.6-.2.5-1.1,1.1-1.7,1.6-2.1v2.3ZM15.4,13.3v2.1h-2.4c0-.9.2-1.7.4-2.4.6.1,1.3.2,2,.2ZM15.4,16.6v2.2c-.6,0-1.3.1-2,.3-.2-.7-.4-1.5-.4-2.5h2.4ZM15.4,19.9v2.1c-.5-.4-1.1-1-1.5-1.9.5-.1,1.1-.2,1.5-.2ZM16.6,19.9c.6,0,1.1,0,1.6.2-.5,1-1.1,1.7-1.6,2v-2.2ZM16.6,18.8v-2.2h2.4c0,.9-.2,1.8-.4,2.4-.6-.1-1.3-.2-2-.2ZM16.6,15.4v-2.1c.7,0,1.3,0,2.1-.2.2.7.3,1.5.4,2.4h-2.4ZM16.6,12.2v-2.3c.5.4,1.2,1,1.7,2.1-.6.1-1.2.2-1.7.2ZM18.3,9.9c.9.3,1.7.8,2.3,1.5-.4.1-.8.3-1.2.4-.3-.8-.7-1.4-1.1-1.8ZM12.7,11.7c-.5-.2-.9-.3-1.2-.5.7-.6,1.4-1.1,2.3-1.4-.4.5-.8,1.1-1.1,1.9ZM12.3,12.8c-.2.8-.4,1.6-.4,2.7h-2.4c.1-1.2.6-2.4,1.2-3.3.3.2.9.4,1.6.6ZM11.9,16.6c0,1.1.2,2,.4,2.8-.5.1-1.1.3-1.6.6-.7-.9-1.1-2.1-1.3-3.3h2.4ZM12.8,20.4c.4.8.8,1.4,1.2,1.8-.9-.3-1.7-.8-2.4-1.4.4-.2.8-.3,1.2-.4ZM19.3,20.3c.5.1.9.3,1.1.4-.7.6-1.5,1.1-2.3,1.4.4-.5.8-1.1,1.2-1.8ZM19.7,19.3c.2-.8.4-1.7.4-2.7h2.4c-.1,1.2-.6,2.4-1.3,3.3-.3-.2-.9-.4-1.5-.6ZM20.1,15.4c0-1-.2-1.9-.4-2.7.5-.1,1-.3,1.6-.5.7.9,1.1,2,1.2,3.2h-2.4Z"/>
</svg>
