<svg width="30" height="31" viewBox="0 0 30 31" fill="none" xmlns="http://www.w3.org/2000/svg">
<path d="M28.4683 8.23603C28.1442 6.99098 27.1942 6.00952 25.9895 5.67426C23.7887 5.052 14.985 5.052 14.985 5.052C14.985 5.052 6.1817 5.052 3.98083 5.65067C2.79928 5.98557 1.82613 6.99116 1.50204 8.23603C0.922852 10.5101 0.922852 15.2262 0.922852 15.2262C0.922852 15.2262 0.922852 19.966 1.50204 22.2163C1.82648 23.4612 2.77611 24.4427 3.981 24.7779C6.20487 25.4004 14.9854 25.4004 14.9854 25.4004C14.9854 25.4004 23.7887 25.4004 25.9895 24.8017C27.1944 24.4666 28.1442 23.4852 28.4687 22.2403C29.0477 19.966 29.0477 15.2501 29.0477 15.2501C29.0477 15.2501 29.0709 10.5101 28.4683 8.23603ZM12.1821 19.5831V10.8693L19.5028 15.2262L12.1821 19.5831Z" fill="black"/>
</svg>
