<svg width="26" height="24" viewBox="0 0 26 24" fill="none" xmlns="http://www.w3.org/2000/svg">
<path d="M22.292 0.000244141H19.9536V2.33856C19.9536 2.80623 19.5639 3.118 19.1742 3.118C18.7845 3.118 18.3948 2.80623 18.3948 2.33856V0.000244141H5.92374V2.33856C5.92374 2.80623 5.53402 3.118 5.1443 3.118C4.75458 3.118 4.36486 2.80623 4.36486 2.33856V0.000244141H2.02654C0.857383 0.000244141 0 1.01352 0 2.33856V5.14454H24.9421V2.33856C24.9421 1.01352 23.5391 0.000244141 22.292 0.000244141ZM0 6.78137V21.0451C0 22.4481 0.857383 23.3834 2.10449 23.3834H22.3699C23.617 23.3834 25.02 22.3702 25.02 21.0451V6.78137H0ZM6.93701 19.8759H5.06636C4.75458 19.8759 4.4428 19.6421 4.4428 19.2524V17.3038C4.4428 16.992 4.67664 16.6802 5.06636 16.6802H7.01495C7.32673 16.6802 7.63851 16.9141 7.63851 17.3038V19.2524C7.56056 19.6421 7.32673 19.8759 6.93701 19.8759ZM6.93701 12.861H5.06636C4.75458 12.861 4.4428 12.6272 4.4428 12.2374V10.2888C4.4428 9.97707 4.67664 9.66529 5.06636 9.66529H7.01495C7.32673 9.66529 7.63851 9.89912 7.63851 10.2888V12.2374C7.56056 12.6272 7.32673 12.861 6.93701 12.861ZM13.1725 19.8759H11.2239C10.9122 19.8759 10.6004 19.6421 10.6004 19.2524V17.3038C10.6004 16.992 10.8342 16.6802 11.2239 16.6802H13.1725C13.4843 16.6802 13.7961 16.9141 13.7961 17.3038V19.2524C13.7961 19.6421 13.5622 19.8759 13.1725 19.8759ZM13.1725 12.861H11.2239C10.9122 12.861 10.6004 12.6272 10.6004 12.2374V10.2888C10.6004 9.97707 10.8342 9.66529 11.2239 9.66529H13.1725C13.4843 9.66529 13.7961 9.89912 13.7961 10.2888V12.2374C13.7961 12.6272 13.5622 12.861 13.1725 12.861ZM19.408 19.8759H17.4594C17.1477 19.8759 16.8359 19.6421 16.8359 19.2524V17.3038C16.8359 16.992 17.0697 16.6802 17.4594 16.6802H19.408C19.7198 16.6802 20.0316 16.9141 20.0316 17.3038V19.2524C20.0316 19.6421 19.7978 19.8759 19.408 19.8759ZM19.408 12.861H17.4594C17.1477 12.861 16.8359 12.6272 16.8359 12.2374V10.2888C16.8359 9.97707 17.0697 9.66529 17.4594 9.66529H19.408C19.7198 9.66529 20.0316 9.89912 20.0316 10.2888V12.2374C20.0316 12.6272 19.7978 12.861 19.408 12.861Z" fill="#111111"/>
</svg>
