<svg width="30" height="31" viewBox="0 0 30 31" fill="none" xmlns="http://www.w3.org/2000/svg">
<g clip-path="url(#clip0_1091_274)">
<path d="M22.4999 0H7.50031C3.37577 0 0.000488281 3.48779 0.000488281 7.74981V23.2502C0.000488281 27.5111 3.37577 31 7.50031 31H22.4999C26.6245 31 29.9998 27.5111 29.9998 23.2502V7.74981C29.9998 3.48779 26.6245 0 22.4999 0ZM27.4997 23.2502C27.4997 26.0982 25.2577 28.4166 22.4999 28.4166H7.50031C4.74376 28.4166 2.50055 26.0982 2.50055 23.2502V7.74981C2.50055 4.901 4.74376 2.5834 7.50031 2.5834H22.4999C25.2577 2.5834 27.4997 4.901 27.4997 7.74981V23.2502Z" fill="white"/>
<path d="M23.1259 9.04141C24.1614 9.04141 25.0009 8.17398 25.0009 7.10396C25.0009 6.03393 24.1614 5.1665 23.1259 5.1665C22.0904 5.1665 21.251 6.03393 21.251 7.10396C21.251 8.17398 22.0904 9.04141 23.1259 9.04141Z" fill="white"/>
<path d="M14.9998 7.74976C10.8569 7.74976 7.5 11.2189 7.5 15.4996C7.5 19.7786 10.8569 23.2501 14.9998 23.2501C19.1416 23.2501 22.4996 19.7786 22.4996 15.4996C22.4996 11.2189 19.1416 7.74976 14.9998 7.74976ZM14.9998 20.6667C12.2387 20.6667 10.0001 18.3534 10.0001 15.4996C10.0001 12.6457 12.2387 10.3332 14.9998 10.3332C17.7609 10.3332 19.9996 12.6457 19.9996 15.4996C19.9996 18.3534 17.7609 20.6667 14.9998 20.6667Z" fill="white"/>
</g>
<defs>
<clipPath id="clip0_1091_274">
<rect width="30" height="31" fill="white"/>
</clipPath>
</defs>
</svg>
