<svg width="30" height="31" viewBox="0 0 30 31" fill="none" xmlns="http://www.w3.org/2000/svg">
<g clip-path="url(#clip0_1079_202)">
<path d="M11.9824 27.8277V30.9674L11.2477 30.3541C11.1342 30.2592 8.43315 27.9932 5.69412 24.7438C1.91574 20.2612 0 16.2374 0 12.7846V12.4424C0 5.61501 5.37529 0.0605469 11.9824 0.0605469C18.5896 0.0605469 23.9648 5.61501 23.9648 12.4424V12.7846C23.9648 13.0746 23.95 13.369 23.923 13.667L21.5797 11.458C21.0997 6.42317 16.9789 2.47651 11.9824 2.47651C6.66458 2.47651 2.33803 6.94728 2.33803 12.4424V12.7846C2.33803 18.6193 9.61327 25.6828 11.9824 27.8277ZM19.1718 26.0924H22.6788V22.4686H19.1718V26.0924ZM11.9824 7.30843C14.7219 7.30843 16.9508 9.61158 16.9508 12.4424C16.9508 15.2732 14.7219 17.5763 11.9824 17.5763C9.24294 17.5763 7.01408 15.2732 7.01408 12.4424C7.01408 9.61158 9.24294 7.30843 11.9824 7.30843ZM11.9824 9.7244C10.532 9.7244 9.35211 10.9436 9.35211 12.4424C9.35211 13.9409 10.532 15.1604 11.9824 15.1604C13.4326 15.1604 14.6127 13.9409 14.6127 12.4424C14.6127 10.9436 13.4326 9.7244 11.9824 9.7244ZM28.4244 24.4508L27.767 23.8311V27.7097C27.767 29.5157 26.345 30.9849 24.5972 30.9849H17.195C15.4472 30.9849 14.0252 29.5157 14.0252 27.7097V23.8311L13.3678 24.4508L11.7922 22.6661L20.896 14.0838L30 22.6661L28.4244 24.4508ZM25.429 21.6271L20.896 17.354L16.3632 21.6271V27.7094C16.3632 28.1834 16.7363 28.5689 17.195 28.5689H24.5972C25.0559 28.5689 25.429 28.1834 25.429 27.7094V21.6271Z" fill="black"/>
</g>
<defs>
<clipPath id="clip0_1079_202">
<rect width="30" height="31" fill="white"/>
</clipPath>
</defs>
</svg>
