<svg width="30" height="31" viewBox="0 0 30 31" fill="none" xmlns="http://www.w3.org/2000/svg">
<path d="M28.1439 7.77368C26.4318 7.77368 24.8521 7.18759 23.5835 6.19886C22.1286 5.06542 21.0833 3.4028 20.7142 1.48649C20.6228 1.01302 20.5736 0.524404 20.5689 0.0236816H15.6781V13.8332L15.6722 21.3973C15.6722 23.4196 14.3978 25.1343 12.6312 25.7373C12.1185 25.9123 11.5648 25.9953 10.9882 25.9626C10.2523 25.9208 9.56263 25.6913 8.96322 25.3208C7.68763 24.5325 6.82279 23.1023 6.79935 21.4664C6.76244 18.9095 8.76283 16.8248 11.2355 16.8248C11.7236 16.8248 12.1923 16.9072 12.6312 17.0567V13.2822V11.9254C12.1683 11.8545 11.6972 11.8176 11.2208 11.8176C8.51439 11.8176 5.98314 12.9801 4.17377 15.0744C2.80619 16.6571 1.98588 18.6764 1.85931 20.7937C1.69349 23.5752 2.67845 26.2193 4.58861 28.1701C4.86927 28.4565 5.164 28.7223 5.4722 28.9675C7.1099 30.2699 9.11205 30.9758 11.2208 30.9758C11.6972 30.9758 12.1683 30.9395 12.6312 30.8687C14.6011 30.5672 16.4187 29.6353 17.8531 28.1701C19.6156 26.37 20.5894 23.9803 20.5999 21.4367L20.5747 10.1411C21.4156 10.8113 22.3349 11.3659 23.3216 11.7964C24.8562 12.4655 26.4833 12.8045 28.1579 12.8039V9.13417V7.77247C28.1591 7.77368 28.1451 7.77368 28.1439 7.77368Z" fill="black"/>
</svg>
