<svg width="30" height="31" viewBox="0 0 30 31" fill="none" xmlns="http://www.w3.org/2000/svg">
<g clip-path="url(#clip0_1091_357)">
<path d="M25.6066 4.53987C22.7735 1.61225 19.0067 0 15 0C10.9934 0 7.2265 1.61225 4.39343 4.53981C1.56024 7.46738 0 11.3598 0 15.5C0 19.6402 1.56024 23.5326 4.39343 26.4602C7.2265 29.3878 10.9934 31 15 31C19.0067 31 22.7735 29.3878 25.6067 26.4601C28.4398 23.5326 30.0001 19.6402 30.0001 15.5C30.0001 11.3598 28.4398 7.46738 25.6066 4.53987ZM5.63767 5.82559C6.95667 4.46262 8.50513 3.42302 10.1929 2.74447C9.74334 3.32439 9.32269 3.99095 8.93721 4.74065C8.48949 5.61131 8.10318 6.56753 7.78144 7.5889C6.66687 7.39775 5.63415 7.16271 4.71153 6.88686C5.00069 6.51958 5.30919 6.16502 5.63767 5.82559ZM3.64624 8.45145C4.72536 8.8085 5.95946 9.1096 7.30607 9.34809C6.93107 10.9929 6.71035 12.7629 6.65767 14.5909H1.78922C1.9275 12.3971 2.56512 10.3034 3.64624 8.45145ZM3.55044 22.3805C2.52768 20.5702 1.92334 18.5369 1.78916 16.4091H6.66101C6.71855 18.1849 6.93488 19.9046 7.29722 21.5064C5.92296 21.7366 4.65786 22.03 3.55044 22.3805ZM5.63767 25.1745C5.26384 24.7881 4.91567 24.3825 4.59288 23.9602C5.54931 23.6862 6.61853 23.4541 7.76949 23.268C8.09351 24.3035 8.48398 25.2724 8.93715 26.1538C9.35726 26.9707 9.81916 27.6886 10.3147 28.3035C8.57972 27.6264 6.98837 26.5701 5.63767 25.1745ZM14.1202 28.9484C12.7838 28.5616 11.5196 27.3005 10.4911 25.3005C10.1314 24.6011 9.81547 23.838 9.54482 23.0247C10.9938 22.8599 12.5357 22.7625 14.1202 22.7396V28.9484ZM14.1202 20.9212C12.3631 20.946 10.6504 21.06 9.04654 21.2547C8.69275 19.7433 8.47988 18.1075 8.42146 16.4092H14.1202V20.9212H14.1202ZM14.1202 14.5909H8.41812C8.4715 12.845 8.68777 11.1636 9.05258 9.61383C10.6462 9.81969 12.3553 9.9449 14.1202 9.98075V14.5909ZM14.1202 8.16222C12.5296 8.1291 10.9911 8.02193 9.55232 7.84707C9.82133 7.04228 10.1348 6.2869 10.4911 5.59382C11.5195 3.59383 12.7838 2.33275 14.1202 1.94592V8.16222ZM26.4093 8.54802C27.4566 10.3761 28.0749 12.4351 28.211 14.5909H23.3425C23.2904 12.7839 23.0739 11.0338 22.7068 9.40519C24.0622 9.17899 25.3116 8.8912 26.4093 8.54802ZM24.3623 5.82559C24.7156 6.19063 25.0456 6.57328 25.3534 6.97053C24.4116 7.23627 23.3628 7.46181 22.236 7.64333C21.9109 6.60144 21.5186 5.62681 21.0629 4.74065C20.6774 3.99095 20.2568 3.32439 19.8072 2.74447C21.4949 3.42302 23.0434 4.46262 24.3623 5.82559ZM15.8799 16.4092H21.5787C21.5198 18.1207 21.3041 19.769 20.9453 21.29C19.3519 21.0853 17.6435 20.9612 15.8799 20.9264V16.4092ZM15.8799 14.5909V9.9868C17.638 9.96295 19.352 9.84991 20.9574 9.65597C21.3163 11.194 21.529 12.8608 21.5819 14.5909H15.8799ZM15.8798 1.94592H15.8798C17.2162 2.33275 18.4804 3.59383 19.5089 5.59382C19.8709 6.2978 20.1886 7.0662 20.4605 7.8854C19.0095 8.0496 17.4658 8.1463 15.8798 8.1684V1.94592ZM15.8799 28.9484V22.7449C17.4689 22.7771 19.0063 22.8833 20.4445 23.0571C20.1762 23.8582 19.8638 24.6104 19.5089 25.3005C18.4805 27.3005 17.2163 28.5616 15.8799 28.9484ZM24.3623 25.1745C23.0117 26.5701 21.4203 27.6264 19.6853 28.3034C20.1808 27.6885 20.6427 26.9707 21.0629 26.1538C21.5093 25.2855 21.8948 24.332 22.216 23.3137C23.3565 23.5083 24.4117 23.7488 25.3516 24.0318C25.0444 24.4281 24.715 24.81 24.3623 25.1745ZM26.4027 22.4635C25.3108 22.1007 24.059 21.7955 22.6922 21.5547C23.0611 19.9393 23.281 18.2028 23.3392 16.4092H28.211C28.0746 18.5694 27.4541 20.6325 26.4027 22.4635Z" fill="black"/>
</g>
<defs>
<clipPath id="clip0_1091_357">
<rect width="30" height="31" fill="white"/>
</clipPath>
</defs>
</svg>
