<svg width="30" height="31" viewBox="0 0 30 31" fill="none" xmlns="http://www.w3.org/2000/svg">
<g clip-path="url(#clip0_1091_366)">
<path d="M21.8839 18.4798L21.8727 18.5767C19.1239 17.161 18.8364 16.9724 18.4814 17.5227C18.2352 17.9037 17.5177 18.7679 17.3014 19.0236C17.0827 19.2755 16.8652 19.2949 16.4939 19.1205C16.1189 18.9267 14.9152 18.5198 13.4902 17.2024C12.3802 16.1755 11.6352 14.9161 11.4152 14.5286C11.0489 13.875 11.8152 13.782 12.5127 12.418C12.6377 12.1468 12.5739 11.9336 12.4814 11.7412C12.3877 11.5474 11.6414 9.64868 11.3289 8.89177C11.0289 8.13743 10.7202 8.23302 10.4889 8.23302C9.76892 8.16843 9.24267 8.17877 8.77892 8.67735C6.76142 10.9688 7.27017 13.3325 8.99642 15.8461C12.3889 20.4341 14.1964 21.2789 17.5014 22.4517C18.3939 22.7449 19.2077 22.7036 19.8514 22.608C20.5689 22.4904 22.0602 21.6767 22.3714 20.7661C22.6902 19.8554 22.6902 19.0998 22.5964 18.9254C22.5039 18.7511 22.2589 18.6542 21.8839 18.4798Z" fill="black"/>
<path d="M25.65 4.45503C16.0388 -5.14593 0.1325 1.81744 0.12625 15.3619C0.12625 18.0692 0.8125 20.7094 2.12 23.0408L0 31.0001L7.91875 28.8662C17.8 34.3817 29.995 27.0579 30 15.3696C30 11.2673 28.45 7.40649 25.6312 4.5054L25.65 4.45503ZM27.5025 15.327C27.495 25.1863 17.0212 31.3437 8.7375 26.3113L8.2875 26.0349L3.6 27.2943L4.85625 22.5862L4.5575 22.1018C-0.5975 13.622 5.325 2.53949 15.09 2.53949C18.4075 2.53949 21.5213 3.87636 23.8663 6.29824C26.21 8.69945 27.5025 11.917 27.5025 15.327Z" fill="black"/>
</g>
<defs>
<clipPath id="clip0_1091_366">
<rect width="30" height="31" fill="white"/>
</clipPath>
</defs>
</svg>
