<svg width="30" height="31" viewBox="0 0 30 31" fill="none" xmlns="http://www.w3.org/2000/svg">
<g clip-path="url(#clip0_1091_311)">
<path d="M29.1832 22.7509L24.9966 18.4247C23.5014 16.8797 20.9596 17.4978 20.3615 19.5063C19.9129 20.8969 18.4177 21.6694 17.072 21.3603C14.0816 20.5878 10.0445 16.5707 9.29693 13.3261C8.84837 11.9355 9.74549 10.3904 11.0912 9.92695C13.035 9.30893 13.633 6.68235 12.1378 5.13729L7.95124 0.811152C6.75507 -0.270384 4.96082 -0.270384 3.91417 0.811152L1.07327 3.74675C-1.76763 6.83685 1.37232 15.0256 8.3998 22.2874C15.4273 29.5491 23.3519 32.9483 26.3423 29.8581L29.1832 26.9225C30.2299 25.6865 30.2299 23.8324 29.1832 22.7509Z" fill="black"/>
</g>
<defs>
<clipPath id="clip0_1091_311">
<rect width="30" height="31" fill="white"/>
</clipPath>
</defs>
</svg>
