<svg width="20" height="20" viewBox="0 0 20 20" fill="none" xmlns="http://www.w3.org/2000/svg">
<path d="M20.0002 20V12.675C20.0002 9.07495 19.2252 6.32495 15.0252 6.32495C13.0002 6.32495 11.6502 7.42495 11.1002 8.47495H11.0502V6.64995H7.0752V20H11.2252V13.375C11.2252 11.625 11.5502 9.94995 13.7002 9.94995C15.8252 9.94995 15.8502 11.925 15.8502 13.475V19.975H20.0002V20Z" fill="#222222"/>
<path d="M0.325195 6.6499H4.47519V19.9999H0.325195V6.6499Z" fill="#222222"/>
<path d="M2.4 0C1.075 0 0 1.075 0 2.4C0 3.725 1.075 4.825 2.4 4.825C3.725 4.825 4.8 3.725 4.8 2.4C4.8 1.075 3.725 0 2.4 0Z" fill="#222222"/>
</svg>
