<svg width="22" height="22" viewBox="0 0 22 22" fill="none" xmlns="http://www.w3.org/2000/svg">
<path d="M17.75 2H17.5V0.75C17.5 0.34 17.16 0 16.75 0C16.34 0 16 0.34 16 0.75V2H11.5V0.75C11.5 0.34 11.16 0 10.75 0C10.34 0 10 0.34 10 0.75V2H5.5V0.75C5.5 0.34 5.16 0 4.75 0C4.34 0 4 0.34 4 0.75V2H3.75C1.68 2 0 3.68 0 5.75V17.75C0 19.82 1.68 21.5 3.75 21.5H17.75C19.82 21.5 21.5 19.82 21.5 17.75V5.75C21.5 3.68 19.82 2 17.75 2ZM3.75 3.5H4V4.75C4 5.16 4.34 5.5 4.75 5.5C5.16 5.5 5.5 5.16 5.5 4.75V3.5H10V4.75C10 5.16 10.34 5.5 10.75 5.5C11.16 5.5 11.5 5.16 11.5 4.75V3.5H16V4.75C16 5.16 16.34 5.5 16.75 5.5C17.16 5.5 17.5 5.16 17.5 4.75V3.5H17.75C18.99 3.5 20 4.51 20 5.75V8H1.5V5.75C1.5 4.51 2.51 3.5 3.75 3.5ZM17.75 20H3.75C2.51 20 1.5 18.99 1.5 17.75V9.5H20V17.75C20 18.99 18.99 20 17.75 20Z" fill="#222222"/>
</svg>
