<svg width="72" height="73" viewBox="0 0 72 73" fill="none" xmlns="http://www.w3.org/2000/svg">
<path d="M64.3 32.7166L64.0742 32.7267C62.9812 32.776 61.8155 32.8107 60.2939 32.839C59.576 32.852 58.8582 32.8623 58.1403 32.8723C56.394 32.8969 54.5882 32.9227 52.8158 32.9918C50.2156 33.0935 47.5816 33.2321 45.0346 33.3661C42.5062 33.4991 39.8923 33.6366 37.3102 33.7378C37.2882 33.7768 37.2708 33.8183 37.2433 33.8541C37.2238 33.8792 37.1957 33.8954 37.1639 33.8993C34.1606 34.2632 30.9993 33.6384 28.2624 32.1396C25.4047 30.5754 23.0603 28.2341 21.6607 25.5482C21.6353 25.4993 21.6417 25.4408 21.6766 25.4017L21.698 25.3779C20.5417 25.2095 19.2768 25.3159 17.9328 25.6951C16.6027 26.0703 15.3583 26.6568 14.1977 27.2252C11.1644 28.7112 8.74534 30.1212 6.81039 32.1466C10.6978 35.4324 13.7133 39.6189 15.4159 44.1514C16.5112 47.0672 17.5596 51.4084 16.3334 55.5319C15.1742 59.4294 11.9078 62.3095 8.39054 62.5353C5.16368 62.7423 1.72562 60.8176 -0.36845 57.6321C-2.60178 54.2346 -2.95709 50.2626 -2.8617 47.5284C-2.66507 41.9019 -0.43883 36.3917 3.25065 32.3896C0.348529 29.4786 -3.86835 27.7909 -8.05777 27.8702C-9.24179 27.8925 -10.3793 28.0611 -11.438 28.371L-11.6686 28.4364C-12.1153 28.5615 -12.622 28.7035 -12.9548 28.9649C-13.2454 29.1933 -13.532 29.474 -13.8095 29.7453L-14.0176 29.9482C-15.4539 31.3342 -16.6274 33.0854 -17.5052 35.1535C-17.996 36.3088 -18.3853 37.5472 -18.6627 38.8353C-19.3711 42.1267 -19.4391 45.8882 -18.8767 50.6723C-18.6513 52.5868 -18.3475 54.5279 -18.0533 56.4051C-17.8988 57.3908 -17.7419 58.3931 -17.5949 59.4008C-17.2765 59.4285 -16.9491 59.4368 -16.6326 59.4449C-15.9664 59.4621 -15.2777 59.4798 -14.6136 59.6761C-12.9368 60.1721 -11.5353 61.8321 -11.0454 63.9061C-10.6492 65.58 -10.8447 67.3667 -11.5817 68.8079C-12.3446 70.3 -13.6706 71.4188 -15.2201 71.878C-16.602 72.2872 -17.8522 72.2761 -19.0416 71.8446C-20.273 71.3982 -21.3638 70.6311 -22.1962 69.6261C-23.2082 68.402 -23.817 66.8449 -23.9067 65.2436C-23.9834 63.8737 -23.402 62.5167 -22.2692 61.4228C-21.8142 60.9834 -21.2539 60.7168 -20.7116 60.4587C-20.4227 60.3212 -20.125 60.1796 -19.8448 60.0125C-19.8457 60.0054 -19.8463 59.9983 -19.8471 59.9912C-20.97 54.196 -22.1113 48.2094 -21.6885 42.2707C-21.214 35.5957 -18.5924 29.9073 -14.4957 26.6646C-12.2845 24.914 -9.08081 24.5337 -4.41298 25.4667C-1.01431 26.1467 2.21729 27.9276 4.70323 30.4812C6.09524 28.415 8.32295 27.173 10.5345 26.145C14.1026 24.4859 17.6926 23.2071 21.2079 22.3428C21.107 20.6546 21.5176 18.8937 22.3987 17.2428C23.152 15.8317 24.234 14.503 25.707 13.1806C26.6575 12.3276 27.5052 11.7141 28.3743 11.2498C28.9718 10.9305 29.6157 10.6948 30.2384 10.4666C30.5733 10.344 30.9086 10.2211 31.2377 10.0856C33.581 9.11955 35.4899 8.2837 37.2465 7.4545C37.3667 7.3978 37.5678 7.30256 37.7677 7.37624C37.8185 7.3946 37.863 7.42137 37.9025 7.45396C38.8836 7.11902 39.8777 6.76774 40.8778 6.41426C42.8538 5.71562 44.897 4.99344 46.8794 4.3891L57.7234 1.08352C59.0776 0.670765 60.613 0.202585 62.1508 0.55343C63.6517 0.896385 65.0368 2.0197 65.977 3.6482C66.0112 3.70744 66.0447 3.76734 66.0777 3.8275C66.9262 5.38315 67.2851 7.16052 67.5186 8.71036C67.9609 8.853 68.5834 9.17641 68.964 9.65212C69.4643 10.2779 69.9413 11.0141 69.6845 11.7274C69.51 12.2128 69.0433 12.482 68.5801 12.7159C68.0132 13.0019 67.3565 13.2824 66.7472 12.9828C66.3299 12.7781 66.025 12.334 65.8422 11.6636C65.6397 10.9195 65.6485 10.2466 65.8682 9.71769C65.9442 9.53442 66.0493 9.37326 66.1716 9.23294C66.0311 7.6326 65.6939 6.30999 65.1392 5.19412C64.4556 3.82347 63.4303 2.7705 62.2481 2.23351C61.6897 1.97968 61.0648 1.89746 60.5338 2.00813C56.6777 2.81166 53.0088 4.34907 49.4606 5.83583C46.2579 7.17767 42.9461 8.56536 39.4921 9.41869C37.4549 9.92192 35.465 10.6426 33.5605 11.5429C33.5801 11.5836 33.5858 11.6296 33.5618 11.6678C32.9175 12.684 31.8051 13.1763 30.7297 13.6526C30.2542 13.8629 29.7627 14.0807 29.3204 14.3401C27.2771 15.5396 25.9336 18.0044 25.8979 20.6196C25.8642 23.0684 26.9449 25.6834 28.7913 27.6143C30.342 29.2371 32.284 30.2803 34.2595 30.5523C34.3984 30.5716 34.5385 30.587 34.6791 30.6025C35.1241 30.6522 35.5844 30.7034 36.0201 30.8723C36.5711 31.0855 37.1556 31.5537 37.3007 32.1422C42.9365 31.1257 48.7209 30.806 54.4961 31.1925C55.2203 31.2407 55.9775 31.2245 56.7099 31.2085C57.5088 31.1908 58.3345 31.1731 59.1293 31.2382C60.6154 31.3594 62.1521 31.4849 63.6368 31.2943C65.2865 31.0822 66.662 30.483 67.6152 29.5612C69.2126 28.0165 69.7795 25.2669 69.0257 22.7193C68.9764 22.5528 68.9152 22.3442 68.9363 22.147C68.5109 21.6538 68.0419 21.0839 67.7853 20.5188C67.4852 19.854 67.4609 19.1499 67.7199 18.6359C68.031 18.0187 68.7575 17.667 69.4863 17.7811C70.1284 17.8814 70.7428 18.33 71.1058 18.9587C71.1182 18.9802 71.1303 19.0021 71.1422 19.0237C71.4504 19.5943 71.5273 20.256 71.3477 20.7945C71.1807 21.295 70.7893 21.6744 70.3289 21.8149L70.351 21.9309C70.3579 21.9652 70.3505 21.9987 70.3333 22.025C70.458 23.8357 70.3955 25.6537 70.1482 27.4328C70.0022 28.4816 69.7659 29.6835 69.1179 30.6458C68.7005 31.2653 68.1055 31.7801 67.3968 32.1347C66.4148 32.6258 65.3874 32.67 64.3 32.7166ZM-22.0928 61.6144C-23.1736 62.6581 -23.7286 63.946 -23.6561 65.2409C-23.5702 66.7844 -22.9855 68.2832 -22.0082 69.4646C-21.2068 70.4323 -20.1551 71.1713 -18.9685 71.6021C-17.8307 72.0147 -16.6307 72.024 -15.2998 71.6299C-13.8122 71.1891 -12.5382 70.1136 -11.8052 68.68C-11.0952 67.2915 -10.9069 65.5697 -11.2891 63.9558C-11.7572 61.9764 -13.0848 60.393 -14.6725 59.924C-15.3051 59.7369 -15.9769 59.7194 -16.6271 59.7028C-16.9319 59.6949 -17.2463 59.6867 -17.5571 59.6615C-17.4209 60.6059 -17.2948 61.5541 -17.1881 62.4975C-16.3223 62.8905 -15.5882 63.7357 -15.2601 64.7225C-14.9264 65.7267 -15.0933 66.8323 -15.696 67.6082C-16.3119 68.4009 -17.3764 68.7849 -18.3454 68.564C-19.3496 68.3352 -20.1965 67.4715 -20.4026 66.4602C-20.5386 65.7946 -20.414 65.0537 -20.0514 64.3739C-19.8891 64.0693 -19.6861 63.7975 -19.455 63.5668C-19.5086 63.4218 -19.5342 63.1329 -19.5603 62.5318C-19.5664 62.3995 -19.5703 62.2951 -19.5759 62.2545C-19.6644 61.6054 -19.7446 60.9485 -19.8149 60.2971C-20.0723 60.4437 -20.3385 60.5703 -20.5976 60.6936C-21.147 60.9552 -21.6657 61.202 -22.0928 61.6144ZM-4.44975 25.72C-9.04224 24.8015 -12.184 25.1673 -14.3371 26.8716C-18.3804 30.0724 -20.9689 35.6965 -21.4385 42.3018C-21.8575 48.1948 -20.7245 54.1526 -19.6068 59.9209C-19.6066 59.9217 -19.6056 59.922 -19.6054 59.9228L-19.5719 60.0417C-19.5678 60.0556 -19.5752 60.068 -19.5756 60.0816C-19.5703 60.1097 -19.5648 60.1378 -19.5594 60.1658C-19.5554 60.1868 -19.5652 60.204 -19.5705 60.2228C-19.4991 60.8907 -19.4183 61.5646 -19.3275 62.2307C-19.3215 62.2749 -19.3163 62.3883 -19.3101 62.5326C-19.301 62.7376 -19.2825 63.1612 -19.2477 63.377C-19.1702 63.3123 -19.0907 63.2519 -19.009 63.1962C-18.9724 63.1656 -18.9366 63.1397 -18.8975 63.1215C-18.8927 63.1191 -18.8883 63.1171 -18.8834 63.1149C-18.4692 62.861 -18.0085 62.7205 -17.5486 62.7237C-17.4806 62.7245 -17.4227 62.7794 -17.4185 62.8485C-17.413 62.9179 -17.4618 62.9764 -17.5288 62.9812C-17.9577 63.0125 -18.1919 63.0814 -18.7661 63.3482C-18.7931 63.3652 -18.8203 63.3827 -18.8468 63.4007C-18.8662 63.4172 -18.8878 63.4368 -18.9109 63.4577C-18.984 63.5244 -19.0742 63.6068 -19.2018 63.6835C-19.447 63.9122 -19.6616 64.1899 -19.8301 64.5061C-20.1647 65.1337 -20.2809 65.813 -20.1575 66.4189C-19.9713 67.3271 -19.2081 68.106 -18.3021 68.3124C-17.4228 68.5132 -16.4554 68.1632 -15.8949 67.4416C-15.3517 66.7424 -15.1954 65.7036 -15.4971 64.7953C-15.811 63.8544 -16.5187 63.052 -17.347 62.7037C-17.392 62.6846 -17.4233 62.642 -17.4286 62.5932C-17.6585 60.5357 -17.9851 58.4507 -18.301 56.4344C-18.5955 54.5548 -18.8997 52.611 -19.1259 50.6913C-19.6917 45.8773 -19.6224 42.0889 -18.908 38.7684C-18.6272 37.4648 -18.233 36.2108 -17.7364 35.0413C-16.8454 32.9429 -15.6538 31.165 -14.1942 29.7567L-13.9867 29.5545C-13.7049 29.279 -13.4141 28.9941 -13.1132 28.7576C-12.7435 28.4673 -12.2131 28.3187 -11.7449 28.1875L-11.5168 28.1226C-10.438 27.807 -9.27988 27.6353 -8.07402 27.6123C-3.77327 27.531 0.55796 29.2839 3.51232 32.3013C3.51238 32.3014 3.51259 32.3014 3.51268 32.3015C3.91383 32.7074 4.47674 33.1624 5.18572 33.6539C5.18767 33.6554 5.18857 33.6577 5.19055 33.6591C5.37067 33.7331 5.59068 33.9815 5.92145 34.4169C5.98545 34.5007 6.03815 34.5708 6.07244 34.6099C6.38787 34.9677 6.70141 35.3272 7.01231 35.6889C8.54751 37.4723 9.64934 38.8849 10.5843 40.2695C10.9764 40.85 11.3387 41.4282 11.6713 42.0044C12.8734 44.0864 13.6852 46.1361 14.0906 48.1169C14.7095 51.1431 14.3834 54.0945 13.1735 56.4271C12.6038 57.5251 11.5702 58.9832 9.88114 59.6935C8.16172 60.417 5.9702 60.1779 4.16188 59.0695C2.53863 58.074 1.19134 56.4092 0.369707 54.3821C-0.318565 52.6844 -0.668165 50.6843 -0.66953 48.4378C-0.670091 46.7561 -0.478335 45.0674 -0.0989416 43.4175C0.573435 40.4939 1.84296 37.7078 3.57268 35.36C3.79867 35.0536 4.03145 34.7552 4.26494 34.4725C4.29358 34.438 4.33563 34.3784 4.38597 34.3071C4.56555 34.0542 4.72241 33.8494 4.8665 33.7322C4.2834 33.318 3.80402 32.9294 3.43839 32.5736C-0.211756 36.5332 -2.41638 41.9832 -2.61078 47.5497C-2.70528 50.2449 -2.36236 54.1615 -0.162243 57.4949C1.87978 60.6017 5.2259 62.4793 8.36324 62.2778C11.7832 62.0583 14.9617 59.2491 16.093 55.4464C17.2985 51.3925 16.2633 47.1117 15.1824 44.2344C13.2135 38.9936 9.47381 34.2163 4.65152 30.7823C4.63725 30.7722 4.63358 30.7549 4.62455 30.7407C4.61852 30.7363 4.61058 30.7375 4.60512 30.7319C2.14701 28.176 -1.06856 26.396 -4.44975 25.72ZM4.59126 34.4653C4.53643 34.5424 4.49053 34.6069 4.4593 34.6446C4.22864 34.9236 3.99847 35.2188 3.77535 35.5214C2.06542 37.8425 0.810505 40.5969 0.145819 43.4875C-0.229451 45.1184 -0.41947 46.7879 -0.418394 48.4493C-0.417281 50.6615 -0.0741133 52.6273 0.600469 54.2925C1.4008 56.2654 2.70862 57.884 4.28275 58.8496C6.02299 59.9163 8.12811 60.1478 9.77667 59.4544C11.401 58.7711 12.3991 57.3606 12.9504 56.2976C14.1343 54.0163 14.4519 51.1258 13.8455 48.1581C13.3346 45.6649 12.169 43.0584 10.3806 40.4093C9.45149 39.0339 8.35591 37.6292 6.82774 35.8541C6.51735 35.4934 6.20428 35.1348 5.8898 34.7775C5.85292 34.7349 5.79567 34.6598 5.72661 34.5692C5.60109 34.404 5.21873 33.9012 5.09949 33.8841C4.99081 33.9018 4.70046 34.3113 4.59126 34.4653ZM37.6932 7.61839C37.5984 7.58359 37.4814 7.63229 37.36 7.68971C35.5999 8.5206 33.6873 9.35795 31.3404 10.3255C31.0083 10.4625 30.6701 10.5862 30.3321 10.7101C29.7172 10.9354 29.0812 11.1684 28.4982 11.4799C27.6461 11.9351 26.8131 12.5382 25.8769 13.3783C24.425 14.682 23.36 15.9891 22.62 17.3749C21.7433 19.0179 21.3441 20.7695 21.4653 22.4408C21.47 22.502 21.4318 22.5558 21.3746 22.5698C17.843 23.4308 14.2336 24.7128 10.647 26.3805C8.45934 27.3976 6.25264 28.6186 4.89395 30.6482C5.48321 31.0715 6.05583 31.5154 6.61144 31.977C8.57337 29.918 11.0175 28.4926 14.0807 26.9918C15.2512 26.4185 16.5066 25.8269 17.8559 25.4461C19.3275 25.0309 20.711 24.9357 21.9677 25.1628C22.0138 25.1712 22.0554 25.2037 22.0689 25.2501C22.0855 25.2953 22.0763 25.3451 22.0458 25.3792L21.9233 25.5159C23.3071 28.1187 25.59 30.3901 28.3717 31.9134C31.047 33.3781 34.1344 33.9938 37.0714 33.6493C37.3619 33.2129 37.1677 32.4416 36.7864 32.0219C36.4316 31.6297 35.8656 31.3897 35.1931 31.3461C34.7596 31.318 34.3178 31.3657 33.8904 31.4122C33.7219 31.4305 33.5533 31.4489 33.3846 31.4629C30.3503 31.7163 27.2371 30.4916 25.2602 28.266C23.1398 25.8778 22.4316 22.4378 23.4962 19.7016C24.2877 17.6686 25.944 16.1777 27.2987 15.1057C30.5661 12.5205 34.3939 10.5823 38.4198 9.44443C38.3953 9.42587 38.3751 9.40013 38.3666 9.36784C38.2007 8.66002 38.0209 8.13904 37.7846 7.68515C37.7576 7.65455 37.7273 7.6311 37.6932 7.61839ZM66.0994 9.8282C65.85 10.4293 65.9532 11.1263 66.0839 11.6049C66.2445 12.1962 66.5024 12.5819 66.8467 12.7511C67.3532 13.0003 67.9459 12.7433 68.4615 12.4833C68.8991 12.2622 69.3038 12.0306 69.4486 11.628C69.6616 11.0372 69.2263 10.3781 68.7729 9.81023C68.4305 9.38227 67.863 9.08859 67.4576 8.95745C67.44 8.96378 67.4216 8.96584 67.4025 8.96362C67.0128 8.9168 66.6596 9.09965 66.4051 9.36718C66.3982 9.37839 66.3911 9.38576 66.381 9.3941C66.2614 9.52575 66.1633 9.67429 66.0994 9.8282ZM49.3568 5.59617C52.9153 4.10519 56.5947 2.56356 60.4726 1.75538C61.0619 1.6328 61.7254 1.71897 62.3401 1.99867C63.4495 2.50231 64.4258 3.43476 65.1278 4.65077C65.2093 4.79195 65.2875 4.93707 65.3613 5.08603C65.907 6.18348 66.2461 7.47318 66.4002 9.01463C66.6544 8.81599 66.9554 8.6998 67.2645 8.69859C67.0345 7.18183 66.6811 5.45075 65.8601 3.94547C64.9699 2.31847 63.5677 1.13848 62.1075 0.805284C60.6333 0.468972 59.1306 0.927078 57.8048 1.3311L46.9609 4.63668C44.9837 5.23944 42.9428 5.96085 40.9695 6.6583C39.9964 7.00246 39.0283 7.34457 38.0734 7.67109C38.1011 7.72198 38.125 7.77501 38.1467 7.82701C38.3487 8.30832 38.5052 8.81131 38.6115 9.32201C38.6171 9.34861 38.6079 9.3723 38.5987 9.39503C38.8734 9.31911 39.1464 9.23586 39.4229 9.16752C42.859 8.31895 46.1622 6.93471 49.3568 5.59617ZM34.6636 30.8588C34.5211 30.843 34.3787 30.8274 34.2374 30.8077C32.2048 30.5278 30.2085 29.4563 28.6163 27.7906C26.722 25.8086 25.6119 23.1224 25.6465 20.6038C25.6837 17.9029 27.0739 15.3557 29.1881 14.1148C29.6419 13.8483 30.1397 13.6281 30.6214 13.4148C31.6009 12.9812 32.5319 12.5689 33.1505 11.7982C33.1471 11.7942 33.1441 11.7901 33.1416 11.7856C33.1325 11.7719 33.1363 11.7553 33.1334 11.7397C31.1176 12.729 29.207 13.9287 27.4575 15.3127C26.1266 16.366 24.5002 17.8284 23.7301 19.8069C22.7004 22.4536 23.3902 25.7853 25.4418 28.0968C27.365 30.2615 30.3959 31.4529 33.3524 31.2059C33.5194 31.1917 33.6859 31.1737 33.8523 31.1556C34.2898 31.1083 34.7424 31.0591 35.1974 31.0884C35.8308 31.1297 36.3727 31.3428 36.7706 31.6791C36.549 31.4284 36.2411 31.2289 35.9414 31.113C35.5362 30.9563 35.0926 30.907 34.6636 30.8588ZM71.1096 20.701C71.2667 20.23 71.1973 19.6468 70.924 19.1405C70.5992 18.5539 70.045 18.1274 69.4603 18.0358C68.8426 17.9391 68.2049 18.2448 67.9438 18.7628C67.7194 19.2082 67.7449 19.8274 68.0124 20.4191C68.054 20.5115 68.103 20.6051 68.1572 20.699C68.4097 21.1363 68.7744 21.5776 69.0328 21.8794C69.2087 21.6273 69.5229 21.6244 69.8001 21.6223C69.87 21.6216 69.9396 21.6213 70.006 21.6165C70.4951 21.5822 70.9388 21.2141 71.1096 20.701ZM68.9089 30.4925C69.5291 29.5718 69.758 28.4047 69.8996 27.3848C70.1521 25.57 70.2067 23.7149 70.0681 21.8686C70.057 21.8696 70.0463 21.8729 70.0351 21.8737C69.9639 21.8789 69.8894 21.8794 69.8139 21.8801C69.5717 21.882 69.3425 21.8841 69.2372 22.0389C69.1382 22.1844 69.1913 22.4042 69.2653 22.6551C70.0579 25.3345 69.4796 28.1204 67.7916 29.7527C66.802 30.71 65.3798 31.3317 63.6795 31.55C62.1694 31.7441 60.6199 31.6174 59.1212 31.4949C58.3389 31.4311 57.5194 31.4488 56.727 31.4662C55.9891 31.4822 55.2265 31.4989 54.4915 31.4495C48.7189 31.0634 42.9366 31.3863 37.3044 32.4066C37.4471 32.7535 37.4993 33.1409 37.4154 33.4748C39.955 33.3739 42.5237 33.2393 45.0098 33.1084C47.5577 32.9744 50.1928 32.8355 52.7943 32.7342C54.5699 32.6647 56.377 32.6392 58.1249 32.6144C58.8427 32.6042 59.5605 32.5939 60.2777 32.5808C61.7971 32.5528 62.9607 32.5182 64.0514 32.4687L64.2774 32.4591C65.3392 32.4134 66.3416 32.3705 67.2781 31.902C67.9509 31.5655 68.5148 31.0779 68.9089 30.4925Z" fill="#40ACC9"/>
</svg>
