<?xml version="1.0" encoding="UTF-8"?>
<svg id="Layer_1" xmlns="http://www.w3.org/2000/svg" version="1.1" viewBox="0 0 32 32">
  <!-- Generator: Adobe Illustrator 29.5.0, SVG Export Plug-In . SVG Version: 2.1.0 Build 137)  -->
  <defs>
    <style>
      .st0 {
        fill: #171717;
      }

      .st1 {
        fill: #fff;
      }
    </style>
  </defs>
  <path id="Button_Watsapp" class="st0" d="M32,16.001c0,8.837-7.164,15.999-15.999,15.999S0,24.837,0,16.001,7.164,0,16.001,0s15.999,7.164,15.999,16.001Z"/>
  <g>
    <path class="st1" d="M13.436,21.85c.522-.108.975-.309,1.359-.604.34-.256.624-.571.852-.946.357-.567.535-1.205.535-1.919,0-.69-.156-1.278-.468-1.762-.313-.484-.776-.838-1.39-1.061.404-.206.71-.435.918-.685.371-.445.557-1.036.557-1.771,0-.712-.185-1.325-.553-1.836-.611-.832-1.651-1.259-3.117-1.281h-5.814v12.028h5.42c.611,0,1.178-.055,1.7-.163ZM8.715,12.075h2.617c.576,0,1.05.062,1.421.188.431.179.646.549.646,1.109,0,.506-.163.858-.489,1.057-.325.198-.749.298-1.272.298h-2.923v-2.652ZM8.715,19.925v-3.206h2.96c.517.005.917.073,1.203.204.511.234.766.663.766,1.289,0,.74-.264,1.24-.791,1.502-.29.142-.697.212-1.218.212h-2.921Z"/>
    <g>
      <path class="st1" d="M18.219,20.919c.905.73,1.949,1.095,3.133,1.095,1.435,0,2.55-.432,3.346-1.298.513-.545.8-1.08.863-1.607h-2.374c-.138.261-.298.465-.479.611-.331.272-.762.408-1.291.408-.5,0-.927-.112-1.282-.335-.584-.359-.894-.985-.93-1.877h6.478c.012-.768-.014-1.356-.076-1.765-.108-.697-.344-1.311-.709-1.839-.403-.599-.916-1.038-1.537-1.316-.619-.278-1.317-.416-2.092-.416-1.303,0-2.363.411-3.18,1.233-.817.821-1.225,2.003-1.225,3.544,0,1.644.452,2.831,1.357,3.561ZM19.88,15.007c.329-.338.792-.508,1.388-.508.549,0,1.009.16,1.38.479.371.32.577.789.619,1.405h-4.007c.084-.579.291-1.038.619-1.377Z"/>
      <rect class="st1" x="18.503" y="10.375" width="5.227" height="1.214"/>
    </g>
  </g>
</svg>