<?xml version="1.0" encoding="UTF-8"?>
<svg id="Layer_1" xmlns="http://www.w3.org/2000/svg" version="1.1" viewBox="0 0 32 32">
  <!-- Generator: Adobe Illustrator 29.5.0, SVG Export Plug-In . SVG Version: 2.1.0 Build 137)  -->
  <defs>
    <style>
      .st0 {
        fill: #171717;
      }

      .st1 {
        fill: #fff;
      }
    </style>
  </defs>
  <path id="Button_FB" class="st0" d="M31.919,14.367c1.003,10.122-7.436,18.558-17.557,17.551C6.875,31.174.821,25.118.081,17.631-.92,7.512,7.515-.921,17.634.081c7.488.742,13.543,6.798,14.285,14.286Z"/>
  <path id="FB_Icon" class="st1" d="M17.438,12.032v1.944h2.874l-.46,2.996h-2.415v7.243c-.528.083-1.069.126-1.62.126s-1.092-.043-1.619-.126v-7.243h-2.632v-2.996h2.632v-2.284c0-2.598,1.547-4.033,3.915-4.033,1.134,0,2.32.203,2.32.203v2.551h-1.308c-1.287,0-1.689.799-1.689,1.619Z"/>
</svg>