<?xml version="1.0" encoding="UTF-8"?>
<svg id="Layer_1" xmlns="http://www.w3.org/2000/svg" version="1.1" viewBox="0 0 32 32">
  <!-- Generator: Adobe Illustrator 29.5.0, SVG Export Plug-In . SVG Version: 2.1.0 Build 137)  -->
  <defs>
    <style>
      .st0 {
        fill: #171717;
      }

      .st1 {
        fill: #fff;
      }
    </style>
  </defs>
  <path id="Button_Watsapp" class="st0" d="M32,16.001c0,8.837-7.164,15.999-15.999,15.999S0,24.837,0,16.001,7.164,0,16.001,0s15.999,7.164,15.999,16.001Z"/>
  <g>
    <path class="st1" d="M9.59,13.777h2.751v8.836h-2.751v-8.836ZM10.966,9.386c.88,0,1.592.714,1.592,1.591s-.713,1.594-1.592,1.594-1.595-.715-1.595-1.594.713-1.591,1.595-1.591"/>
    <path class="st1" d="M14.064,13.777h2.635v1.209h.036c.367-.695,1.263-1.427,2.601-1.427,2.781,0,3.294,1.829,3.294,4.209v4.846h-2.745v-4.296c0-1.026-.02-2.343-1.428-2.343-1.43,0-1.648,1.116-1.648,2.268v4.371h-2.745v-8.836Z"/>
  </g>
</svg>