<?xml version="1.0" encoding="UTF-8"?>
<svg id="Layer_1" xmlns="http://www.w3.org/2000/svg" version="1.1" viewBox="0 0 32 32">
  <!-- Generator: Adobe Illustrator 29.5.0, SVG Export Plug-In . SVG Version: 2.1.0 Build 137)  -->
  <defs>
    <style>
      .st0 {
        fill: #171717;
      }

      .st1 {
        fill: #fff;
      }
    </style>
  </defs>
  <path id="Button_Tiktok" class="st0" d="M32,16.001c0,8.837-7.164,15.999-15.999,15.999S0,24.837,0,16.001,7.164,0,16.001,0s15.999,7.164,15.999,16.001Z"/>
  <path id="Tiktok_Icon" class="st1" d="M22.651,14.503c0,.137-.019.145-.158.145-.441,0-.873-.059-1.302-.157-.736-.169-1.417-.468-2.047-.882-.032-.022-.068-.068-.103-.052-.044.02-.021.078-.021.118-.002,1.694.006,3.389-.004,5.083-.006,1.184-.383,2.244-1.158,3.147-.824.959-1.87,1.516-3.127,1.669-.968.118-1.887-.057-2.758-.488-.141-.069-.276-.151-.402-.246-.04-.035-.08-.07-.119-.106-.094-.04-.171-.109-.25-.172-.778-.617-1.326-1.395-1.628-2.343-.105-.33-.17-.668-.203-1.013-.023-.249-.026-.5-.01-.749.037-.574.174-1.125.411-1.651.248-.549.585-1.036,1.016-1.457.501-.491,1.081-.858,1.741-1.095.414-.149.84-.24,1.28-.272.318-.023.635-.016.951.022.043.005.069.014.067.065-.003.176-.003.352-.004.527.003.003.026,1.338.026,1.948,0,.022,0,.044-.002.065-.003.061-.034.082-.092.065-.167-.047-.339-.069-.511-.078-.268-.015-.532.024-.782.116-.84.31-1.349.911-1.456,1.797-.105.873.24,1.571.966,2.074.061.042.123.082.18.129.014.012.027.025.041.037.169.067.337.135.517.17.57.113,1.107.026,1.602-.279.571-.352.907-.867,1.026-1.525.023-.124.026-.251.026-.379,0-3.402,0-6.805,0-10.207,0-.158-.023-.138.136-.139h2.409c.081.002.082.002.082.083,0,.182.075.609.082.642.339,1.72,2.344,2.772,2.962,2.866.17.025.341.046.514.044.072,0,.074.002.074.07,0,.161.031,1.805.031,2.407Z"/>
</svg>