<svg width="21" height="13" viewBox="0 0 21 13" fill="none" xmlns="http://www.w3.org/2000/svg">
<path d="M8.55655 5.87597C8.98815 5.65887 9.31445 5.41707 9.53804 5.15577C9.93584 4.68517 10.1321 4.06118 10.1321 3.28768C10.1321 2.53499 9.93584 1.89149 9.54324 1.35199C8.88805 0.473197 7.77915 0.0233999 6.21136 0H0V12.6788H5.79147C6.44406 12.6788 7.04856 12.6229 7.60756 12.5085C8.16655 12.3928 8.65015 12.1809 9.05965 11.8715C9.42365 11.6024 9.72784 11.2683 9.96964 10.8744C10.3518 10.279 10.5429 9.60434 10.5429 8.85295C10.5429 8.12495 10.3752 7.50486 10.0424 6.99526C9.70574 6.48566 9.21175 6.11256 8.55655 5.87597ZM2.56228 2.20219H5.35987C5.97477 2.20219 6.48176 2.26849 6.87956 2.39979C7.33976 2.59088 7.56986 2.97958 7.56986 3.57238C7.56986 4.10408 7.39436 4.47587 7.04726 4.68517C6.69756 4.89447 6.24386 4.99977 5.68747 4.99977H2.56228V2.20219ZM6.98616 10.2556C6.67676 10.4051 6.24126 10.4792 5.68357 10.4792H2.56228V7.09796H5.72647C6.27766 7.10186 6.70666 7.17466 7.01346 7.31116C7.55946 7.55816 7.83115 8.01055 7.83115 8.67225C7.83115 9.45224 7.55036 9.97744 6.98616 10.2556Z" fill="white"/>
<path d="M18.7991 0.591553H13.291V2.16974H18.7991V0.591553Z" fill="white"/>
<path d="M20.7122 6.81972C20.5978 6.08522 20.3456 5.43913 19.953 4.88143C19.5227 4.24963 18.9767 3.78684 18.3124 3.49434C17.6507 3.20054 16.9058 3.05364 16.0764 3.05494C14.6841 3.05494 13.5531 3.49044 12.6782 4.35493C11.8059 5.22203 11.3691 6.46872 11.3691 8.09371C11.3691 9.8266 11.8514 11.0785 12.8212 11.8468C13.7871 12.6164 14.9025 12.9999 16.1687 12.9999C17.7014 12.9999 18.8935 12.5436 19.745 11.6336C20.2897 11.059 20.5978 10.4935 20.6654 9.9384H18.1278C17.9809 10.2127 17.8106 10.4272 17.6156 10.5832C17.262 10.8692 16.8018 11.0122 16.2376 11.0122C15.7007 11.0122 15.2457 10.8939 14.8661 10.6586C14.2395 10.2816 13.9119 9.6212 13.8703 8.68131H20.7954C20.8058 7.87141 20.7798 7.24872 20.7122 6.81972ZM13.9327 7.06282C14.0237 6.45312 14.2447 5.96952 14.5957 5.61203C14.9467 5.25583 15.4433 5.07643 16.079 5.07513C16.6653 5.07513 17.1554 5.24283 17.5545 5.57953C17.9484 5.91882 18.1707 6.41152 18.2162 7.06282H13.9327Z" fill="white"/>
</svg>
