<svg width="20" height="20" viewBox="0 0 20 20" fill="none" xmlns="http://www.w3.org/2000/svg">
<path d="M19.9992 20V12.675C19.9992 9.07495 19.2242 6.32495 15.0242 6.32495C12.9992 6.32495 11.6492 7.42495 11.0992 8.47495H11.0492V6.64995H7.07422V20H11.2242V13.375C11.2242 11.625 11.5492 9.94995 13.6992 9.94995C15.8242 9.94995 15.8492 11.925 15.8492 13.475V19.975H19.9992V20Z" fill="white"/>
<path d="M0.324219 6.6499H4.47422V19.9999H0.324219V6.6499Z" fill="white"/>
<path d="M2.4 0C1.075 0 0 1.075 0 2.4C0 3.725 1.075 4.825 2.4 4.825C3.725 4.825 4.8 3.725 4.8 2.4C4.8 1.075 3.725 0 2.4 0Z" fill="white"/>
</svg>
