<?xml version="1.0" encoding="UTF-8"?>
<svg id="Layer_1" xmlns="http://www.w3.org/2000/svg" xmlns:xlink="http://www.w3.org/1999/xlink" version="1.1" viewBox="0 0 32 32">
  <!-- Generator: Adobe Illustrator 29.5.0, SVG Export Plug-In . SVG Version: 2.1.0 Build 137)  -->
  <defs>
    <style>
      .st0 {
        fill-rule: evenodd;
      }

      .st0, .st1 {
        fill: #fff;
      }

      .st2 {
        fill: url(#Degradado_sin_nombre_8);
      }
    </style>
    <linearGradient id="Degradado_sin_nombre_8" data-name="Degradado sin nombre 8" x1=".879" y1=".879" x2="31.121" y2="31.121" gradientUnits="userSpaceOnUse">
      <stop offset="0" stop-color="#00fb73"/>
      <stop offset="1" stop-color="#00b25b"/>
    </linearGradient>
  </defs>
  <rect class="st2" y="0" width="32" height="32" rx="3" ry="3"/>
  <g>
    <path class="st1" d="M7.762,24.208l1.184-4.418c-.67-1.21-1.023-2.565-1.023-3.941,0-4.498,3.66-8.158,8.158-8.158s8.158,3.66,8.158,8.158-3.66,8.158-8.158,8.158c-1.35,0-2.684-.341-3.878-.988l-4.441,1.19ZM12.423,21.362l.28.167c1.027.612,2.195.935,3.377.935,3.648,0,6.616-2.968,6.616-6.616s-2.968-6.616-6.616-6.616-6.616,2.968-6.616,6.616c0,1.205.335,2.391.968,3.43l.172.282-.661,2.467,2.481-.665Z"/>
    <path class="st0" d="M19.115,16.983c-.336-.201-.773-.425-1.168-.263-.303.124-.497.599-.694.842-.101.125-.221.144-.376.082-1.139-.454-2.012-1.214-2.641-2.262-.106-.163-.087-.291.041-.442.19-.224.428-.477.48-.779.051-.301-.09-.654-.215-.922-.159-.343-.337-.832-.681-1.026-.316-.178-.732-.078-1.013.151-.485.395-.72,1.015-.713,1.629.002.174.023.349.064.517.098.405.285.783.496,1.143.159.271.331.534.518.787.609.828,1.367,1.547,2.245,2.085.439.269.911.504,1.4.666.549.181,1.037.37,1.63.257.62-.118,1.232-.502,1.478-1.099.073-.177.109-.374.068-.561-.084-.386-.607-.616-.92-.803Z"/>
  </g>
</svg>