<svg width="30" height="31" viewBox="0 0 30 31" fill="none" xmlns="http://www.w3.org/2000/svg">
<path d="M4.33359 1.57422C2.27125 1.57422 0.922852 2.9736 0.922852 4.81289C0.922852 6.61155 2.23108 8.05084 4.25446 8.05084H4.29359C6.39627 8.05084 7.70485 6.61155 7.70485 4.81289C7.66554 2.9736 6.39627 1.57422 4.33359 1.57422Z" fill="white"/>
<path d="M1.2793 10.6099H7.30839V29.3533H1.2793V10.6099Z" fill="white"/>
<path d="M22.1067 10.1699C18.8543 10.1699 16.6733 13.3281 16.6733 13.3281V10.6098H10.644V29.3532H16.673V18.8862C16.673 18.3258 16.7123 17.7664 16.8716 17.3657C17.3074 16.2467 18.2993 15.0875 19.9649 15.0875C22.1466 15.0875 23.0191 16.8064 23.0191 19.3261V29.3532H29.0477V18.6061C29.0477 12.8489 26.0731 10.1699 22.1067 10.1699Z" fill="white"/>
</svg>
