<?xml version="1.0" encoding="UTF-8"?>
<svg id="Layer_2" data-name="Layer 2" xmlns="http://www.w3.org/2000/svg" viewBox="0 0 39.97 39.97">
  <defs>
    <style>
      .cls-1 {
        fill: #ef342b;
      }

      .cls-2 {
        fill: #1c71ed;
      }

      .cls-3 {
        fill: #e5e5e5;
      }

      .cls-4 {
        fill: #fcbc03;
      }

      .cls-5 {
        fill: #4385f7;
      }

      .cls-6 {
        fill: #35a755;
      }
    </style>
  </defs>
  <g id="Layer_1-2" data-name="Layer 1">
    <g>
      <rect class="cls-3" width="39.97" height="39.97" rx="3" ry="3"/>
      <g>
        <path class="cls-6" d="M29.74,16.56c0,1.62-.39,3.14-1.09,4.49-1.66,3.38-4.59,7.42-7.88,11.72-.4.52-1.18.52-1.57,0-1.45-1.9-2.84-3.76-4.08-5.53l7.63-7.76h0c.19-.17.37-.35.54-.55l5.8-5.9c.43,1.1.66,2.29.66,3.53Z"/>
        <path class="cls-5" d="M23.28,18.93c.6-.74.97-1.68.97-2.7,0-2.35-1.91-4.26-4.26-4.26-1.11,0-2.12.42-2.88,1.12l5.9-5.8c2.78.91,5.02,3.03,6.07,5.74l-5.8,5.9Z"/>
        <path class="cls-4" d="M22.74,19.48l-7.63,7.76c-1.52-2.18-2.83-4.24-3.76-6.13-.28-.53-.52-1.1-.7-1.69l6.24-6.13c-.73.76-1.17,1.8-1.17,2.93,0,2.35,1.91,4.26,4.26,4.26,1.05,0,2.02-.38,2.76-1.01Z"/>
        <path class="cls-1" d="M16.97,13.21s-.05.05-.08.08l-6.24,6.13c-.28-.9-.43-1.86-.43-2.86,0-2.78,1.16-5.29,3.03-7.06l3.71,3.71Z"/>
        <path class="cls-2" d="M23,7.29l-5.9,5.8s-.09.08-.13.13l-3.71-3.71c1.75-1.67,4.12-2.69,6.73-2.69,1.05,0,2.07.17,3.02.48Z"/>
      </g>
    </g>
  </g>
</svg>