<?xml version="1.0" encoding="UTF-8"?>
<svg id="Layer_1" xmlns="http://www.w3.org/2000/svg" xmlns:xlink="http://www.w3.org/1999/xlink" version="1.1" viewBox="0 0 32 32">
  <!-- Generator: Adobe Illustrator 29.5.0, SVG Export Plug-In . SVG Version: 2.1.0 Build 137)  -->
  <defs>
    <style>
      .st0 {
        fill: #fff;
      }

      .st0, .st1, .st2 {
        fill-rule: evenodd;
      }

      .st3 {
        fill: url(#linear-gradient);
      }

      .st1 {
        fill: #00c9d0;
      }

      .st2 {
        fill: #ff1753;
      }
    </style>
    <linearGradient id="linear-gradient" x1=".879" y1=".879" x2="31.121" y2="31.121" gradientUnits="userSpaceOnUse">
      <stop offset="0" stop-color="#23004a"/>
      <stop offset=".957" stop-color="#010003"/>
      <stop offset="1" stop-color="#000"/>
    </linearGradient>
  </defs>
  <rect class="st3" y="0" width="32" height="32" rx="3" ry="3"/>
  <g>
    <path class="st2" d="M19.351,13.5c1.162.83,2.586,1.319,4.124,1.319v-2.958c-.291,0-.581-.03-.866-.091v2.328c-1.538,0-2.961-.489-4.124-1.319v6.036c0,3.019-2.449,5.467-5.47,5.467-1.127,0-2.175-.341-3.045-.925.993,1.015,2.378,1.645,3.911,1.645,3.021,0,5.47-2.448,5.47-5.467v-6.036h0ZM20.419,10.516c-.594-.649-.984-1.487-1.068-2.413v-.38h-.821c.207,1.178.911,2.184,1.889,2.794h0ZM11.881,21.041c-.332-.435-.511-.967-.51-1.514,0-1.381,1.12-2.501,2.502-2.501.257,0,.513.039.759.117v-3.024c-.287-.039-.576-.056-.866-.05v2.354c-.246-.078-.502-.117-.759-.117-1.382,0-2.502,1.12-2.502,2.501,0,.976.56,1.822,1.376,2.234Z"/>
    <path class="st0" d="M18.485,12.78c1.162.83,2.586,1.319,4.124,1.319v-2.328c-.858-.183-1.618-.631-2.189-1.255-.978-.61-1.683-1.616-1.889-2.794h-2.156v11.813c-.005,1.377-1.123,2.492-2.502,2.492-.813,0-1.535-.387-1.992-.987-.816-.412-1.376-1.257-1.376-2.234,0-1.381,1.12-2.501,2.502-2.501.265,0,.52.041.759.117v-2.354c-2.968.061-5.354,2.485-5.354,5.466,0,1.488.594,2.837,1.559,3.822.87.584,1.918.925,3.045.925,3.021,0,5.47-2.448,5.47-5.467v-6.036Z"/>
    <path class="st1" d="M22.609,11.771v-.629c-.774.001-1.533-.216-2.189-.625.581.636,1.347,1.075,2.189,1.255ZM18.53,7.723c-.02-.113-.035-.226-.045-.34v-.38h-2.977v11.813c-.005,1.377-1.123,2.492-2.502,2.492-.405,0-.787-.096-1.126-.267.457.6,1.179.987,1.992.987,1.379,0,2.497-1.115,2.502-2.492V7.723h2.156ZM13.766,14.07v-.67c-.249-.034-.5-.051-.75-.051-3.021,0-5.47,2.448-5.47,5.467,0,1.893.962,3.561,2.425,4.542-.965-.985-1.559-2.334-1.559-3.822,0-2.981,2.387-5.404,5.354-5.466h0Z"/>
  </g>
</svg>