<?xml version="1.0" encoding="UTF-8"?>
<svg id="Layer_2" data-name="Layer 2" xmlns="http://www.w3.org/2000/svg" xmlns:xlink="http://www.w3.org/1999/xlink" viewBox="0 0 39.97 39.97">
  <defs>
    <style>
      .cls-1 {
        fill: #fff;
        fill-rule: evenodd;
      }

      .cls-2 {
        fill: url(#linear-gradient);
      }
    </style>
    <linearGradient id="linear-gradient" x1="19.98" y1="0" x2="19.98" y2="39.97" gradientUnits="userSpaceOnUse">
      <stop offset="0" stop-color="#011c49"/>
      <stop offset="1" stop-color="#00b8e0"/>
    </linearGradient>
  </defs>
  <g id="Layer_1-2" data-name="Layer 1">
    <g>
      <rect class="cls-2" width="39.97" height="39.97" rx="3" ry="3"/>
      <path class="cls-1" d="M7.69,19.98c0,1.12.15,2.2.43,3.23h4.37c-.13-1.05-.2-2.13-.2-3.23s.07-2.18.2-3.23h-4.37c-.28,1.03-.43,2.11-.43,3.23ZM24.5,31.41c2.99-1.19,5.41-3.51,6.72-6.44h-4.03c-.36,1.74-.9,3.35-1.61,4.72-.33.64-.69,1.22-1.08,1.72h0ZM8.75,24.97c1.31,2.93,3.72,5.26,6.72,6.44-.38-.51-.75-1.08-1.08-1.72-.71-1.37-1.25-2.98-1.61-4.72h-4.03ZM15.47,8.55c-2.99,1.19-5.41,3.52-6.72,6.44h4.03c.35-1.74.9-3.35,1.61-4.72.33-.64.69-1.22,1.08-1.72ZM31.22,15c-1.31-2.93-3.72-5.26-6.72-6.44.38.51.75,1.08,1.08,1.72.71,1.37,1.25,2.98,1.61,4.72h4.03ZM27.48,16.75c.13,1.05.2,2.13.2,3.23s-.07,2.18-.2,3.23h4.37c.28-1.03.43-2.11.43-3.23s-.15-2.2-.43-3.23h-4.37ZM20.86,23.21h4.84c.14-1.04.21-2.12.21-3.23s-.07-2.19-.21-3.23h-4.84v6.46ZM20.86,32.13c1.15-.39,2.27-1.52,3.16-3.24.59-1.14,1.05-2.47,1.38-3.91h-4.53v7.16ZM19.11,24.97h-4.53c.32,1.45.78,2.77,1.38,3.91.89,1.72,2.01,2.85,3.16,3.24v-7.16h0ZM19.11,7.84c-1.15.39-2.27,1.52-3.16,3.24-.59,1.14-1.05,2.47-1.38,3.91h4.53v-7.16h0ZM20.86,7.84v7.16h4.53c-.32-1.45-.78-2.77-1.38-3.91-.89-1.72-2.01-2.85-3.16-3.24ZM14.05,19.98c0,1.11.07,2.19.21,3.23h4.84v-6.46h-4.84c-.14,1.04-.21,2.12-.21,3.23h0Z"/>
    </g>
  </g>
</svg>