<svg width="20" height="15" viewBox="0 0 20 15" fill="none" xmlns="http://www.w3.org/2000/svg">
<path d="M12.9602 7.86133L11.2851 9.54203C10.6059 10.2237 9.41071 10.2384 8.71676 9.54203L7.04165 7.86133L1.02539 13.8971C1.24934 14.0007 1.49625 14.0625 1.75875 14.0625H18.2431C18.5056 14.0625 18.7525 14.0007 18.9763 13.8972L12.9602 7.86133Z" fill="white"/>
<path d="M18.2431 0H1.75867C1.49617 0 1.24926 0.061797 1.02539 0.165352L7.45418 6.61547C7.45461 6.6159 7.45512 6.61598 7.45555 6.61641C7.45598 6.61684 7.45606 6.61743 7.45606 6.61743L9.54641 8.71469C9.76844 8.93673 10.2334 8.93673 10.4554 8.71469L12.5453 6.61778C12.5453 6.61778 12.5458 6.61684 12.5463 6.61641C12.5463 6.61641 12.5472 6.6159 12.5476 6.61547L18.9763 0.165313C18.7524 0.0617189 18.5056 0 18.2431 0Z" fill="white"/>
<path d="M0.186953 0.984863C0.0710938 1.21916 0 1.47924 0 1.75783V12.3047C0 12.5833 0.0710157 12.8434 0.186914 13.0777L6.2136 7.03147L0.186953 0.984863Z" fill="white"/>
<path d="M19.8137 0.984619L13.7871 7.0313L19.8137 13.0776C19.9296 12.8433 20.0007 12.5832 20.0007 12.3046V1.75767C20.0007 1.47899 19.9296 1.21892 19.8137 0.984619Z" fill="white"/>
</svg>
