<svg width="30" height="31" viewBox="0 0 30 31" fill="none" xmlns="http://www.w3.org/2000/svg">
<path d="M14.9998 2.58325H10.8372C8.53725 2.58325 6.6748 4.50782 6.6748 6.88448C6.6748 9.26115 8.53725 11.1858 10.8372 11.1858H14.9998V2.58325Z" fill="white"/>
<path d="M14.9998 11.1987H10.8372C8.53725 11.1987 6.6748 13.1233 6.6748 15.5C6.6748 17.8766 8.53725 19.8012 10.8372 19.8012H14.9998V11.1987Z" fill="white"/>
<path d="M14.9998 19.8013H10.8372C8.53725 19.8013 6.6748 21.7259 6.6748 24.1025C6.6748 26.4792 8.53725 28.4038 10.8372 28.4038C13.1372 28.4038 14.9998 26.4792 14.9998 24.1025V19.8013Z" fill="white"/>
<path d="M15 2.58325H19.1625C21.4625 2.58325 23.325 4.50782 23.325 6.88448C23.325 9.26115 21.4625 11.1858 19.1625 11.1858H15V2.58325Z" fill="white"/>
<path d="M19.1625 11.1987C21.4625 11.1987 23.325 13.1233 23.325 15.5C23.325 17.8766 21.4625 19.8012 19.1625 19.8012C16.8625 19.8012 15 17.8766 15 15.5C15 13.1233 16.8625 11.1987 19.1625 11.1987Z" fill="white"/>
</svg>
