<svg width="20" height="23" viewBox="0 0 20 23" fill="none" xmlns="http://www.w3.org/2000/svg">
<path d="M19.9893 5.6998C18.6881 5.6998 17.4876 5.26875 16.5235 4.54158C15.4178 3.70799 14.6234 2.4852 14.3429 1.07584C14.2734 0.727615 14.236 0.368261 14.2325 0H10.5156V10.1563L10.5111 15.7194C10.5111 17.2067 9.54259 18.4678 8.20002 18.9113C7.81039 19.04 7.38958 19.101 6.95141 19.077C6.39212 19.0462 5.868 18.8775 5.41246 18.605C4.44305 18.0252 3.78579 16.9734 3.76798 15.7702C3.73993 13.8897 5.26017 12.3565 7.13933 12.3565C7.51026 12.3565 7.8665 12.4171 8.20002 12.5271V9.75111V8.7532C7.84824 8.7011 7.49022 8.67394 7.12819 8.67394C5.07137 8.67394 3.14768 9.52891 1.77261 11.0692C0.733284 12.2332 0.109868 13.7183 0.0136837 15.2755C-0.112335 17.3212 0.636209 19.2658 2.08788 20.7005C2.30117 20.9111 2.52516 21.1066 2.75938 21.287C4.00399 22.2448 5.52557 22.764 7.12819 22.764C7.49022 22.764 7.84824 22.7373 8.20002 22.6852C9.69711 22.4634 11.0784 21.7781 12.1685 20.7005C13.508 19.3767 14.248 17.6191 14.2561 15.7484L14.2369 7.44091C14.8759 7.93386 15.5746 8.34175 16.3245 8.65835C17.4907 9.15041 18.7273 9.39977 19.9999 9.39933V6.70038V5.69891C20.0008 5.6998 19.9902 5.6998 19.9893 5.6998Z" fill="white"/>
</svg>
