<?xml version="1.0" encoding="UTF-8"?>
<svg id="Layer_2" data-name="Layer 2" xmlns="http://www.w3.org/2000/svg" viewBox="0 0 53.34 53.34">
  <g id="Layer_1-2" data-name="Layer 1">
    <g>
      <g id="Location_Button" data-name="Location Button">
        <circle class="st0" fill="#171717" cx="26.67" cy="26.67" r="26.67" transform="translate(-11.05 26.67) rotate(-45)"/>
      </g>
      <path class="st1" fill="#fff" id="Location_Icon" data-name="Location Icon" d="M26.67,13.57c-4.8,0-8.85,3.89-8.85,8.69,0,2.07.77,3.92,1.27,5.13,1.32,3.18,6.89,11.35,7.56,12.33v.04s0-.01.02-.02c0,0,.01.02.02.02v-.04c.67-.98,6.25-9.15,7.56-12.33.5-1.21,1.27-3.05,1.27-5.13,0-4.8-4.04-8.69-8.85-8.69ZM26.67,28.52c-3.27,0-5.92-2.65-5.92-5.92s2.65-5.92,5.92-5.92,5.92,2.65,5.92,5.92-2.65,5.92-5.92,5.92Z"/>
    </g>
  </g>
</svg>
