<?xml version="1.0" encoding="UTF-8"?>
<svg id="Layer_1" xmlns="http://www.w3.org/2000/svg" version="1.1" viewBox="0 0 32 32">
  <!-- Generator: Adobe Illustrator 29.5.0, SVG Export Plug-In . SVG Version: 2.1.0 Build 137)  -->
  <defs>
    <style>
      .st0 {
        fill: #171717;
      }

      .st1 {
        fill: #fff;
      }
    </style>
  </defs>
  <path id="Button_Insta" class="st0" d="M32,16.001c0,8.837-7.164,15.999-15.999,15.999S0,24.837,0,16.001,7.164,0,16.001,0s15.999,7.164,15.999,16.001Z"/>
  <g id="Insta_Icon">
    <path class="st1" d="M16,12.016c-2.2,0-3.985,1.784-3.985,3.984s1.784,3.984,3.985,3.984,3.984-1.784,3.984-3.984-1.784-3.984-3.984-3.984ZM16,18.586c-1.428,0-2.586-1.158-2.586-2.586s1.158-2.586,2.586-2.586,2.586,1.158,2.586,2.586-1.158,2.586-2.586,2.586Z"/>
    <path class="st1" d="M20.141,10.927c-.514,0-.931.417-.931.931s.417.931.931.931.931-.417.931-.931-.417-.931-.931-.931Z"/>
    <path class="st1" d="M23.712,12.801c-.038-.826-.168-1.389-.36-1.883-.199-.51-.464-.943-.895-1.374-.431-.432-.864-.697-1.374-.895-.493-.192-1.058-.323-1.883-.36-.828-.038-1.092-.047-3.199-.047s-2.371.009-3.199.047c-.826.037-1.389.168-1.884.36-.509.198-.942.463-1.373.895-.432.431-.697.864-.895,1.374-.192.493-.323,1.057-.36,1.883-.038.828-.047,1.092-.047,3.199s.009,2.371.047,3.199c.037.825.168,1.389.36,1.883.198.51.463.943.895,1.374.431.431.864.697,1.373.895.494.192,1.058.322,1.884.36.828.038,1.092.047,3.199.047s2.371-.009,3.199-.047c.825-.038,1.389-.168,1.883-.36.51-.198.943-.464,1.374-.895s.696-.864.895-1.374c.192-.493.322-1.058.36-1.883.038-.828.047-1.092.047-3.199s-.009-2.371-.047-3.199ZM22.316,19.135c-.034.756-.161,1.167-.268,1.441-.141.362-.308.621-.58.892-.271.272-.53.44-.892.581-.274.106-.685.232-1.441.267-.818.037-1.064.045-3.135.045s-2.317-.008-3.135-.045c-.757-.034-1.167-.161-1.441-.267-.362-.141-.621-.309-.893-.581-.271-.271-.44-.53-.58-.892-.106-.274-.232-.685-.267-1.441-.037-.818-.045-1.064-.045-3.135s.008-2.317.045-3.135c.035-.757.161-1.167.267-1.441.141-.362.309-.621.58-.892.272-.272.531-.44.893-.581.274-.106.684-.232,1.441-.267.818-.037,1.064-.045,3.135-.045s2.317.008,3.135.045c.756.035,1.167.161,1.441.267.362.141.621.309.892.581.272.271.44.53.58.892.107.274.233.684.268,1.441.037.818.045,1.064.045,3.135s-.008,2.317-.045,3.135Z"/>
  </g>
</svg>