<?xml version="1.0" encoding="UTF-8"?>
<svg id="Layer_2" data-name="Layer 2" xmlns="http://www.w3.org/2000/svg" viewBox="0 0 53.34 53.34">
  <g id="Layer_1-2" data-name="Layer 1">
    <g>
      <circle class="st0" fill="#171717" id="Phone_Button" data-name="Phone Button" cx="26.67" cy="26.67" r="26.67" transform="translate(-5.41 6.84) rotate(-13.28)"/>
      <path class="st1" fill="#fff" id="Phone_Icon" data-name="Phone Icon" d="M20.79,15.38c.24-.06.47-.03.71.09.24.12.4.29.49.53l2.12,4.96c.09.21.1.42.04.64-.06.22-.18.42-.35.6l-2.66,2.17c.8,1.71,1.87,3.25,3.21,4.61,1.34,1.36,2.88,2.43,4.63,3.23l2.17-2.66c.18-.18.38-.29.6-.35.22-.06.43-.04.64.04l4.96,2.12c.24.09.41.25.53.49.12.24.15.47.09.71l-1.06,4.6c-.03.27-.15.47-.35.62-.21.15-.43.22-.66.22-3.72,0-7.17-.93-10.36-2.79-3.1-1.83-5.56-4.29-7.39-7.39-1.86-3.19-2.79-6.64-2.79-10.36,0-.24.07-.46.22-.66.15-.21.35-.32.62-.35l4.6-1.06Z"/>
    </g>
  </g>
</svg>
