<?xml version="1.0" encoding="UTF-8"?>
<svg id="Layer_1" xmlns="http://www.w3.org/2000/svg" version="1.1" viewBox="0 0 32 32">
  <!-- Generator: Adobe Illustrator 29.5.0, SVG Export Plug-In . SVG Version: 2.1.0 Build 137)  -->
  <path id="Button_Watsapp" class="st0" fill="#171717" d="M32,16.001c0,8.837-7.164,15.999-15.999,15.999S0,24.837,0,16.001,7.164,0,16.001,0s15.999,7.164,15.999,16.001Z"/>
  <path class="st1" fill="#fff" d="M10.833,17.5c.252.103.478.004.552-.275.05-.193.171-.681.225-.884.074-.277.045-.373-.159-.614-.443-.524-.727-1.201-.727-2.161,0-2.784,2.083-5.276,5.424-5.276,2.958,0,4.583,1.808,4.583,4.222,0,3.176-1.406,5.857-3.492,5.857-1.153,0-2.015-.953-1.739-2.121.332-1.396.973-2.902.973-3.909,0-.902-.484-1.654-1.486-1.654-1.178,0-2.125,1.219-2.125,2.851,0,1.04.352,1.743.352,1.743,0,0-1.206,5.108-1.417,6.003-.421,1.781-.064,3.966-.033,4.186.018.131.186.162.262.064.109-.142,1.512-1.875,1.988-3.605.135-.49.775-3.028.775-3.028.382.73,1.501,1.373,2.69,1.373,3.542,0,5.944-3.228,5.944-7.549,0-3.268-2.767-6.311-6.974-6.311-5.234,0-7.873,3.752-7.873,6.881,0,1.895.718,3.581,2.256,4.208Z"/>
</svg>
