<?xml version="1.0" encoding="UTF-8"?>
<svg id="Layer_1" xmlns="http://www.w3.org/2000/svg" version="1.1" viewBox="0 0 32 32">
  <!-- Generator: Adobe Illustrator 29.5.0, SVG Export Plug-In . SVG Version: 2.1.0 Build 137)  -->
  <path id="Button_Watsapp" class="st0" fill="#171717" d="M32,16.001c0,8.837-7.164,15.999-15.999,15.999S0,24.837,0,16.001,7.164,0,16.001,0s15.999,7.164,15.999,16.001Z"/>
  <path class="st1" fill="#fff" d="M17.356,14.885l5.307-6.169h-1.257l-4.608,5.356-3.68-5.356h-4.245l5.565,8.099-5.565,6.469h1.258l4.866-5.656,3.887,5.656h4.245l-5.772-8.399h0ZM15.634,16.887l-.564-.807-4.486-6.417h1.932l3.621,5.179.564.807,4.706,6.732h-1.932l-3.841-5.493h0Z"/>
</svg>
