<?xml version="1.0" encoding="UTF-8"?>
<svg id="Layer_2" data-name="Layer 2" xmlns="http://www.w3.org/2000/svg" viewBox="0 0 53.34 53.34">
  <g id="Layer_1-2" data-name="Layer 1">
    <g>
      <circle class="st0" fill="#171717" id="Website_Button" data-name="Website Button" cx="26.67" cy="26.67" r="26.67" transform="translate(-3.93 4.62) rotate(-9.22)"/>
      <path class="st1" fill="#fff" id="Website_Icon" data-name="Website Icon" d="M26.67,13.88c-7.05,0-12.79,5.74-12.79,12.79s5.74,12.79,12.79,12.79,12.79-5.74,12.79-12.79-5.74-12.79-12.79-12.79ZM25.73,20.31c-1-.04-1.91-.16-2.74-.32.83-1.82,1.91-2.92,2.74-3.54v3.86ZM25.73,22.17v3.56h-3.98c.07-1.53.28-2.85.6-3.96,1,.21,2.13.35,3.38.4ZM25.73,27.62v3.71c-1.03.06-2.13.2-3.29.44-.36-1.15-.61-2.52-.69-4.15h3.98ZM25.73,33.21v3.55c-.78-.59-1.77-1.59-2.58-3.22.91-.17,1.76-.27,2.58-.32ZM27.61,33.17c.99.03,1.9.13,2.72.28-.85,1.75-1.91,2.79-2.72,3.38v-3.65ZM27.61,31.29v-3.68h4.07c-.08,1.58-.32,2.92-.66,4.05-1.01-.2-2.15-.34-3.41-.38ZM27.61,25.73v-3.57c1.1-.05,2.24-.16,3.47-.41.32,1.12.54,2.43.6,3.97h-4.07ZM27.61,20.29v-3.91c.84.61,1.95,1.7,2.81,3.57-.99.19-1.92.29-2.81.33ZM30.43,16.45c1.45.54,2.76,1.36,3.85,2.43-.68.25-1.34.47-1.99.64-.54-1.27-1.2-2.29-1.86-3.07ZM21.14,19.53c-.82-.25-1.47-.52-1.96-.75,1.1-1.04,2.42-1.86,3.87-2.37-.68.79-1.36,1.82-1.91,3.13ZM20.52,21.29c-.36,1.26-.59,2.73-.66,4.44h-4.05c.18-2.04.92-3.92,2.07-5.49.57.29,1.48.69,2.63,1.05ZM19.87,27.62c.08,1.78.35,3.3.74,4.59-.87.25-1.77.55-2.7.92-1.16-1.57-1.91-3.46-2.09-5.52h4.05ZM21.26,33.98c.59,1.29,1.29,2.27,1.98,3.03-1.5-.5-2.86-1.32-3.99-2.38.69-.25,1.36-.47,2.01-.66ZM32.21,33.9c.8.24,1.43.5,1.91.72-1.1,1.03-2.42,1.84-3.88,2.35.69-.77,1.39-1.77,1.97-3.07ZM32.85,32.13c.38-1.28.64-2.77.72-4.51h3.96c-.18,2.07-.94,3.96-2.11,5.54-.56-.29-1.42-.67-2.57-1.03ZM33.57,25.73c-.07-1.7-.3-3.18-.66-4.44.86-.24,1.74-.54,2.66-.9,1.09,1.54,1.79,3.36,1.96,5.34h-3.96Z"/>
    </g>
  </g>
</svg>
