<?xml version="1.0" encoding="UTF-8"?>
<svg id="Layer_1" xmlns="http://www.w3.org/2000/svg" version="1.1" viewBox="0 0 32 32">
  <!-- Generator: Adobe Illustrator 29.5.0, SVG Export Plug-In . SVG Version: 2.1.0 Build 137)  -->
  <defs>
    <style>
      .st0 {
        fill: #171717;
      }

      .st1 {
        fill: #fff;
      }
    </style>
  </defs>
  <path id="Button_Watsapp" class="st0" d="M32,16.001c0,8.837-7.164,15.999-15.999,15.999S0,24.837,0,16.001,7.164,0,16.001,0s15.999,7.164,15.999,16.001Z"/>
  <g id="Watsapp_Icon">
    <path class="st1" d="M17.881,17.282c-.04-.014-.082-.025-.124-.027-.274-.016-.539.168-.797.464-.178.204-.479.237-.698.087-1.073-.736-1.709-1.549-1.893-2.417-.038-.178.011-.366.132-.501.176-.196.364-.392.496-.613.047-.079.067-.172.069-.263.011-.875-.091-1.642-.703-1.92-.104-.047-.223-.058-.334-.028-.916.249-1.462.928-1.367,2.353.003.042.01.084.021.124.626,2.294,1.829,4.249,4.508,5.363.053.022.111.036.168.04.751.051,1.45-.074,1.924-.947.054-.1.078-.217.061-.328-.089-.568-.763-1.143-1.462-1.386Z"/>
    <path class="st1" d="M23.398,13.575c-.486-1.517-1.423-2.823-2.709-3.778-1.313-.975-2.872-1.49-4.509-1.49-4.179,0-7.579,3.4-7.579,7.578,0,1.17.273,2.329.793,3.371-.106.756-.419,1.542-.834,2.065-.41.518-.426,1.227-.041,1.764l.004.005c.275.377.715.601,1.179.601.177,0,.35-.032.514-.094l2.558-.943c1.052.531,2.219.809,3.405.809.83,0,1.645-.134,2.422-.397,3.085-1.041,5.157-3.927,5.157-7.182,0-.791-.122-1.569-.361-2.31ZM18.261,22.057c-.653.221-1.354.341-2.081.341-1.211,0-2.347-.332-3.319-.911l-3.019,1.113c-.045.018-.092.026-.138.026-.123,0-.241-.058-.317-.163-.105-.145-.101-.338.011-.479.606-.766,1.019-1.892,1.091-2.939-.522-.936-.82-2.014-.82-3.16,0-3.591,2.922-6.512,6.513-6.512,2.899,0,5.362,1.904,6.202,4.527.202.626.31,1.293.31,1.985,0,2.865-1.858,5.303-4.432,6.172Z"/>
  </g>
</svg>