<?xml version="1.0" encoding="UTF-8"?>
<svg id="Layer_1" xmlns="http://www.w3.org/2000/svg" version="1.1" viewBox="0 0 32 32">
  <!-- Generator: Adobe Illustrator 29.5.0, SVG Export Plug-In . SVG Version: 2.1.0 Build 137)  -->
  <path id="Button_YouTube" class="st0" fill="#171717" d="M32,16.001c0,8.837-7.164,15.999-15.999,15.999S0,24.837,0,16.001,7.164,0,16.001,0s15.999,7.164,15.999,16.001Z"/>
  <path id="Youtube_Icon" class="st1" fill="#fff" d="M23.435,12.265c-.178-.668-.704-1.194-1.372-1.372-1.21-.324-6.063-.324-6.063-.324,0,0-4.852,0-6.063.324-.667.178-1.193.704-1.372,1.372-.324,1.21-.324,3.735-.324,3.735,0,0,0,2.525.324,3.735.179.668.705,1.194,1.372,1.372,1.21.324,6.063.324,6.063.324,0,0,4.853,0,6.063-.324.668-.178,1.194-.704,1.372-1.372.324-1.21.324-3.735.324-3.735,0,0,0-2.525-.324-3.735ZM14.448,18.328v-4.656l4.031,2.328-4.031,2.328Z"/>
</svg>
